<svg xmlns="http://www.w3.org/2000/svg" viewBox="0 0 956.64 726.4"><g id="Layer_2" data-name="Layer 2"><g id="Layer_3" data-name="Layer 3"><g id="cloud"><circle cx="659.07" cy="297.57" r="297.57" style="fill:#3282b8"/><g id="Page-1"><path id="Cloud-2" data-name="Cloud" d="M674.87,673.14H202.8c-82.46,0-149.54-67.08-149.54-149.53S120.34,374.06,202.8,374.06a149.15,149.15,0,0,1,78.69,22.35,26.63,26.63,0,0,0,28.07-45.26,202.19,202.19,0,0,0-92.62-29.85,224,224,0,0,1,183.19-95.51c123.34,0,223.68,100.34,223.68,223.68,0,6.31-.27,12.72-.8,19.06A222.47,222.47,0,0,1,613.76,516a26.62,26.62,0,0,0,17.52,33.34,26.18,26.18,0,0,0,7.91,1.22,26.67,26.67,0,0,0,25.43-18.73A276.78,276.78,0,0,0,676.08,473c.65-7.82,1-15.73,1-23.52a279.06,279.06,0,0,0-1.4-27.88c69,.43,125,56.66,125,125.76a125.94,125.94,0,0,1-125.8,125.79m0-304.85c-3.3,0-6.59.11-9.88.29-34.69-113.36-140.29-196-264.86-196A277.41,277.41,0,0,0,151.49,327.4C64.43,350.18,0,429.5,0,523.61,0,635.43,91,726.4,202.8,726.4H674.87c98.73,0,179-80.32,179-179s-80.32-179.06-179-179.06" style="fill:#f7f7f7;fill-rule:evenodd"/></g></g></g></g></svg>