<svg xmlns="http://www.w3.org/2000/svg" viewBox="0 0 943.54 886.96"><g id="Layer_2" data-name="Layer 2"><g id="Layer_3" data-name="Layer 3"><g id="fog"><circle cx="645.96" cy="297.57" r="297.57" style="fill:#3282b8"/><g id="Page-1"><path id="Fog-2" data-name="Fog" d="M675.62,834.82V887h-519V834.82Zm-26.07-82a26.07,26.07,0,1,1,0,52.14H182.71a26.07,26.07,0,0,1,0-52.14H649.55Zm-257.79-570c122,0,225.36,81,259.32,192,3.22-.18,6.44-.29,9.68-.29,96.66,0,175.31,78.65,175.31,175.32S757.42,725.2,660.76,725.2H198.56C89.07,725.2,0,636.13,0,526.64c0-92.13,63.08-169.79,148.32-192.1A271.62,271.62,0,0,1,391.76,182.91Zm0,52.14a219.3,219.3,0,0,0-179.35,93.52,197.93,197.93,0,0,1,90.68,29.23,26.07,26.07,0,0,1-27.49,44.31,146.08,146.08,0,0,0-77-21.88c-80.74,0-146.42,65.68-146.42,146.41s65.68,146.42,146.42,146.42h462.2A123.31,123.31,0,0,0,783.92,549.89c0-67.65-54.83-122.7-122.38-123.13q1.35,13.47,1.37,27.3c0,7.62-.33,15.37-1,23a270.46,270.46,0,0,1-11.22,57.59,26.07,26.07,0,0,1-49.79-15.5A217.65,217.65,0,0,0,610,472.72c.52-6.21.79-12.49.79-18.66C610.77,333.29,512.53,235.05,391.76,235.05Z" style="fill:#f7f7f7;fill-rule:evenodd"/></g></g></g></g></svg>