<svg xmlns="http://www.w3.org/2000/svg" viewBox="0 0 948.29 886.72"><g id="Layer_2" data-name="Layer 2"><g id="Layer_3" data-name="Layer 3"><g id="fog_sun"><circle cx="650.72" cy="297.57" r="297.57" style="fill:#ffd45a"/><g id="Page-1"><path id="Fog_Sun-2" data-name="Fog Sun" d="M678.19,834.38v52.34H157.24V834.38ZM652,752.12a26.17,26.17,0,1,1,0,52.34H183.41a26.17,26.17,0,1,1,0-52.34H652ZM641.34,5.55a26.17,26.17,0,0,1,26.17,26.17h0v87.64a188.85,188.85,0,0,1,74.86,27.31h0l56.37-67.19a26.17,26.17,0,0,1,40.1,33.65h0l-56.37,67.18a190.37,190.37,0,0,1,39.9,69h0l86.3-15.21a26.17,26.17,0,0,1,9.09,51.55h0l-86.33,15.21c.09,2.31.18,4.62.18,6.95a190.07,190.07,0,0,1-13.91,71.61h0l75.8,43.75a26.17,26.17,0,1,1-26.17,45.33h0l-75.89-43.81c-.47.61-.93,1.22-1.41,1.82a175.38,175.38,0,0,1,49.22,121.89c0,97-78.94,176-176,176H199.32C89.41,724.34,0,634.93,0,525,0,432.55,63.32,354.59,148.89,332.2A272.28,272.28,0,0,1,487,196.64a191.34,191.34,0,0,1,13.2-16.33h0l-56.37-67.18A26.17,26.17,0,0,1,484,79.48h0l56.41,67.24a190.45,190.45,0,0,1,74.81-27.36h0V31.72A26.17,26.17,0,0,1,641.34,5.55ZM393.26,232.33a220.17,220.17,0,0,0-180,93.87,198.84,198.84,0,0,1,91,29.34A26.18,26.18,0,0,1,276.65,400a146.57,146.57,0,0,0-77.33-22c-81,0-147,65.93-147,147s65.93,147,147,147h464A123.77,123.77,0,0,0,786.91,548.37c0-67.91-55-123.17-122.85-123.6.9,9,1.38,18.15,1.38,27.4,0,7.65-.33,15.44-1,23.12a271.93,271.93,0,0,1-11.28,57.81,26.17,26.17,0,0,1-50-15.56,218.11,218.11,0,0,0,9.09-46.64c.53-6.23.8-12.53.8-18.73C613.1,331,514.48,232.33,393.26,232.33Zm248.08-62.48A138.29,138.29,0,0,0,535.08,220,273.42,273.42,0,0,1,653.56,372.68c3.23-.18,6.47-.29,9.71-.29a174.74,174.74,0,0,1,85.31,22.14A136.11,136.11,0,0,0,760.66,377a2.24,2.24,0,0,0,.13-.27,2.43,2.43,0,0,1,.14-.2,137,137,0,0,0,18.34-68.76C779.27,231.73,717.4,169.85,641.34,169.85Z" style="fill:#f7f7f7;fill-rule:evenodd"/></g></g></g></g></svg>