<svg xmlns="http://www.w3.org/2000/svg" viewBox="0 0 950.61 940.43"><g id="Layer_2" data-name="Layer 2"><g id="Layer_3" data-name="Layer 3"><g id="hail_sun"><circle cx="653.03" cy="297.57" r="297.57" style="fill:#ffd45a"/><g id="Page-1"><path id="Hail_Sun-2" data-name="Hail Sun" d="M167.21,807a26.19,26.19,0,0,1,37,0c43.32,43.31,45.33,100.55,45.41,106.8v.48a26.2,26.2,0,0,1-52.4.15c0-1-1.08-41.41-30.06-70.38A26.2,26.2,0,0,1,167.21,807Zm210.49,0a26.19,26.19,0,1,1,37,37c-28.27,28.28-30,67.41-30.05,70.25v.16a26.28,26.28,0,0,1-26.2,25.94h-.16a26.12,26.12,0,0,1-26-26.11h0v-.48C332.38,907.5,334.39,850.26,377.7,807Zm-87,53.06a26.2,26.2,0,0,1,26.2,26.2h0v4.35a26.2,26.2,0,0,1-52.39,0h0v-4.35A26.2,26.2,0,0,1,290.74,860Zm345.88-99.63a26.19,26.19,0,0,1,37,37c-29.2,29.21-30,70-30.06,70.4a26.28,26.28,0,0,1-26.19,25.95h-.17a26.13,26.13,0,0,1-26-26.11h0v-.27C591.26,862.32,592.79,804.21,636.62,760.38Zm-87,53.06a26.2,26.2,0,0,1,26.2,26.19h0V844a26.2,26.2,0,0,1-52.4,0h0v-4.35A26.2,26.2,0,0,1,549.66,813.44ZM290.74,606.66a26.2,26.2,0,0,1,26.2,26.2h0V820.78a26.2,26.2,0,1,1-52.39,0h0V632.86A26.2,26.2,0,0,1,290.74,606.66ZM553,557.16a26.2,26.2,0,0,1,26.19,26.2h0V771.28a26.2,26.2,0,1,1-52.39,0h0V583.36A26.2,26.2,0,0,1,553,557.16ZM421.14,731.93a26.2,26.2,0,0,1,26.19,26.2h0v4.35a26.2,26.2,0,1,1-52.39,0h0v-4.35A26.2,26.2,0,0,1,421.14,731.93Zm.73-174.77a26.2,26.2,0,0,1,26.2,26.2h0V697.75a26.2,26.2,0,1,1-52.39,0h0V583.36A26.2,26.2,0,0,1,421.87,557.16ZM642,3.15a26.19,26.19,0,0,1,26.2,26.2h0v87.72a189.1,189.1,0,0,1,74.94,27.34h0l56.43-67.25a26.2,26.2,0,1,1,40.13,33.68h0l-56.43,67.25a190.45,190.45,0,0,1,40,69h0L909.6,231.9a26.2,26.2,0,0,1,9.1,51.6h0l-86.41,15.24c.08,2.31.18,4.62.18,6.95a190.43,190.43,0,0,1-13.92,71.68h0l75.88,43.81a26.2,26.2,0,1,1-26.2,45.37h0l-76-43.86c-.47.6-.93,1.22-1.42,1.83a175.51,175.51,0,0,1,49.28,122c0,97.14-79,176.17-176.16,176.17a26.2,26.2,0,0,1,0-52.4A123.91,123.91,0,0,0,787.72,546.52c0-68-55.1-123.29-123-123.72a273.2,273.2,0,0,1,1.38,27.43c0,7.66-.33,15.45-1,23.14a271.85,271.85,0,0,1-11.28,57.87,26.2,26.2,0,0,1-50-15.57,219.31,219.31,0,0,0,9.1-46.69c.52-6.23.79-12.54.79-18.75,0-121.35-98.72-220.07-220.07-220.07a220.4,220.4,0,0,0-180.23,94,199,199,0,0,1,91.13,29.37A26.2,26.2,0,0,1,276.93,398a146.74,146.74,0,0,0-77.41-22c-81.12,0-147.12,66-147.12,147.12s66,147.12,147.12,147.12a26.2,26.2,0,0,1,0,52.4C89.5,722.69,0,633.18,0,523.17c0-92.59,63.39-170.63,149-193A272.52,272.52,0,0,1,487.52,194.44a190.29,190.29,0,0,1,13.22-16.35h0l-56.43-67.25a26.2,26.2,0,1,1,40.14-33.68h0l56.47,67.3a190.8,190.8,0,0,1,74.89-27.39h0V29.35A26.19,26.19,0,0,1,642,3.15Zm0,164.47a138.41,138.41,0,0,0-106.36,50.16,273.8,273.8,0,0,1,118.6,152.87c3.23-.18,6.47-.29,9.72-.29a175.13,175.13,0,0,1,85.4,22.16A137.62,137.62,0,0,0,761.45,375c0-.09.07-.18.13-.27a1.15,1.15,0,0,1,.14-.19,137.34,137.34,0,0,0,18.35-68.84C780.07,229.56,718.14,167.62,642,167.62Z" style="fill:#f7f7f7;fill-rule:evenodd"/></g></g></g></g></svg>