<svg xmlns="http://www.w3.org/2000/svg" viewBox="0 0 952.06 954.38"><g id="Layer_2" data-name="Layer 2"><g id="Layer_3" data-name="Layer 3"><g id="hail_moon"><circle cx="651.52" cy="300.54" r="300.54" style="fill:#9332d8"/><g id="Page-1"><path id="Hail_Moon-2" data-name="Hail Moon" d="M166.54,821.43a26.1,26.1,0,0,1,36.89,0c43.14,43.14,45.14,100.15,45.23,106.38v.48a26.1,26.1,0,0,1-52.19.15c0-.89-1-41.19-29.93-70.11A26.07,26.07,0,0,1,166.54,821.43Zm209.64,0a26.09,26.09,0,1,1,36.9,36.89c-28.16,28.17-29.85,67.14-29.93,70v.16a26.17,26.17,0,0,1-26.09,25.84h-.16a26,26,0,0,1-25.93-26h0v-.48C331.05,921.58,333.05,864.57,376.18,821.44Zm-86.61,52.84a26.1,26.1,0,0,1,26.09,26.1h0v4.33a26.09,26.09,0,0,1-52.18,0h0v-4.33A26.1,26.1,0,0,1,289.57,874.28Zm344.5-99.23A26.09,26.09,0,1,1,671,812C641.88,841,641,881.65,641,882.06a26.16,26.16,0,0,1-26.08,25.85h-.17a26,26,0,0,1-25.93-26h0v-.27C588.89,876.59,590.41,818.71,634.07,775.05ZM547.45,827.9A26.1,26.1,0,0,1,573.55,854h0v4.33a26.1,26.1,0,0,1-52.19,0h0V854A26.1,26.1,0,0,1,547.45,827.9ZM289.57,622A26.09,26.09,0,0,1,315.66,648h0V835.21a26.09,26.09,0,0,1-52.18,0h0V648A26.09,26.09,0,0,1,289.57,622Zm261.21-49.3a26.1,26.1,0,0,1,26.1,26.09h0V785.91a26.1,26.1,0,0,1-52.19,0h0V598.74A26.1,26.1,0,0,1,550.78,572.65ZM419.44,746.72a26.1,26.1,0,0,1,26.1,26.09h0v4.34a26.1,26.1,0,0,1-52.19,0h0v-4.34A26.1,26.1,0,0,1,419.44,746.72Zm.74-174.07a26.09,26.09,0,0,1,26.09,26.09h0V712.68a26.09,26.09,0,1,1-52.18,0h0V598.74A26.09,26.09,0,0,1,420.18,572.65ZM635.29,81c7.6,0,15.45.36,23.33,1.09a26.09,26.09,0,0,1,21.64,36.1A118.49,118.49,0,0,0,789.35,282.42,116.64,116.64,0,0,0,838,272a26.08,26.08,0,0,1,36.69,20.45A241.15,241.15,0,0,1,816.8,481a174.26,174.26,0,0,1,19.94,81.08c0,96.75-78.7,175.46-175.45,175.46a26.09,26.09,0,1,1,0-52.18A123.42,123.42,0,0,0,784.56,562.05c0-67.7-54.88-122.79-122.49-123.22.9,9,1.38,18.1,1.38,27.31,0,7.64-.33,15.4-1,23.05a270.1,270.1,0,0,1-11.24,57.64,26.09,26.09,0,1,1-49.83-15.51,218.8,218.8,0,0,0,9.07-46.5c.52-6.2.78-12.49.78-18.68C611.26,345.29,512.94,247,392.08,247a219.51,219.51,0,0,0-179.5,93.6,198.07,198.07,0,0,1,90.75,29.25,26.1,26.1,0,1,1-27.52,44.35,146.13,146.13,0,0,0-77.09-21.9c-80.8,0-146.54,65.74-146.54,146.53s65.74,146.54,146.54,146.54a26.09,26.09,0,1,1,0,52.18C89.14,737.51,0,648.37,0,538.79c0-92.2,63.13-169.93,148.44-192.26A270.83,270.83,0,0,1,428.91,197.35,239.83,239.83,0,0,1,635.29,81Zm-13.72,52.66a187.71,187.71,0,0,0-138.72,76.8A272.58,272.58,0,0,1,651.61,386.89c3.22-.18,6.45-.29,9.68-.29a174.87,174.87,0,0,1,123.65,51.12,187,187,0,0,0,39.17-106.66,170.32,170.32,0,0,1-34.76,3.54c-94,0-170.47-76.47-170.47-170.47A172.48,172.48,0,0,1,621.57,133.65Z" style="fill:#f7f7f7;fill-rule:evenodd"/></g></g></g></g></svg>