<svg xmlns="http://www.w3.org/2000/svg" viewBox="0 0 772.22 726.78"><g id="Layer_2" data-name="Layer 2"><g id="Layer_3" data-name="Layer 3"><g id="moon"><circle cx="474.65" cy="297.57" r="297.57" style="fill:#9332d8"/><g id="Page-1"><path id="Moon-2" data-name="Moon" d="M263.27,209.49C145.34,220.75,52.8,320.38,52.8,441.21,52.8,569.56,157.22,674,285.57,674c96.15,0,181.48-59.56,216.25-146.34-7.28.69-14.63,1-22,1-128.49,0-233-104.54-233-233a232.48,232.48,0,0,1,16.48-86.17m22.3,517.29C128.11,726.78,0,598.67,0,441.21S128.11,155.63,285.57,155.63c7.79,0,15.64.33,23.33,1a26.4,26.4,0,0,1,19.88,40.75,179.11,179.11,0,0,0-29.19,98.3c0,99.37,80.85,180.22,180.22,180.22a178.42,178.42,0,0,0,52-7.66,26.4,26.4,0,0,1,33.55,30.55c-27,132.11-144.71,228-279.81,228" style="fill:#f7f7f7;fill-rule:evenodd"/></g></g></g></g></svg>