<svg xmlns="http://www.w3.org/2000/svg" viewBox="0 0 942.7 946.47"><g id="Layer_2" data-name="Layer 2"><g id="Layer_3" data-name="Layer 3"><g id="rain_light_moon"><circle cx="645.13" cy="297.57" r="297.57" style="fill:#9332d8"/><g id="Page-1"><path id="Rain_Light_Moon-2" data-name="Rain Light Moon" d="M417.3,893a26,26,0,0,1,26,26h0v1.54a26,26,0,1,1-51.91,0h0V919A26,26,0,0,1,417.3,893ZM288.09,828.88a26,26,0,0,1,26,26h0v1.54a26,26,0,0,1-51.92,0h0v-1.54A26,26,0,0,1,288.09,828.88Zm258.43,0a26,26,0,0,1,26,26h0v1.54a26,26,0,1,1-51.92,0h0v-1.54A26,26,0,0,1,546.52,828.88ZM417.3,769.12a26,26,0,0,1,26,26h0V837a26,26,0,1,1-51.91,0h0v-41.9A26,26,0,0,1,417.3,769.12ZM288.09,705a26,26,0,0,1,26,26h0v41.92a26,26,0,0,1-51.92,0h0V730.94A26,26,0,0,1,288.09,705Zm258.43,0a26,26,0,0,1,26,26h0v41.92a26,26,0,1,1-51.92,0h0V730.94A26,26,0,0,1,546.52,705ZM417.3,613.91a26,26,0,0,1,26,26h0v65a26,26,0,1,1-51.91,0h0v-65A26,26,0,0,1,417.3,613.91ZM632,74.45c7.56,0,15.38.36,23.21,1.09a26,26,0,0,1,21.53,35.92A117.86,117.86,0,0,0,785.31,274.85a116,116,0,0,0,48.38-10.41,26,26,0,0,1,36.5,20.35,240.11,240.11,0,0,1-57.57,187.6,173.34,173.34,0,0,1,19.84,80.67c0,96.25-78.3,174.56-174.56,174.56a26,26,0,1,1,0-51.92A122.78,122.78,0,0,0,780.54,553.06c0-67.36-54.6-122.17-121.85-122.6.89,8.94,1.36,18,1.36,27.18,0,7.6-.32,15.31-1,22.93a269,269,0,0,1-11.18,57.35,26,26,0,1,1-49.57-15.44,217.12,217.12,0,0,0,9-46.27c.52-6.16.79-12.42.79-18.57,0-120.24-97.82-218.06-218.06-218.06A218.37,218.37,0,0,0,211.49,332.7a197,197,0,0,1,90.29,29.1,26,26,0,0,1-27.38,44.12,145.37,145.37,0,0,0-76.7-21.79c-80.38,0-145.78,65.4-145.78,145.78S117.32,675.7,197.7,675.7a26,26,0,1,1,0,51.92C88.69,727.62,0,638.93,0,529.91c0-91.73,62.81-169.06,147.68-191.27a269.41,269.41,0,0,1,279-148.42A238.61,238.61,0,0,1,632,74.45ZM288.09,549.78a26,26,0,0,1,26,26h0v65a26,26,0,0,1-51.92,0h0v-65A26,26,0,0,1,288.09,549.78Zm258.43,0a26,26,0,0,1,26,26h0v65a26,26,0,0,1-51.92,0h0v-65A26,26,0,0,1,546.52,549.78Zm71.87-422.93a186.73,186.73,0,0,0-138,76.4,271.2,271.2,0,0,1,167.9,175.54c3.2-.18,6.41-.29,9.62-.29a174,174,0,0,1,123,50.86,185.89,185.89,0,0,0,39-106.11,169.9,169.9,0,0,1-34.58,3.52c-93.52,0-169.59-76.08-169.59-169.6A171.61,171.61,0,0,1,618.39,126.85Z" style="fill:#f7f7f7;fill-rule:evenodd"/></g></g></g></g></svg>