<svg xmlns="http://www.w3.org/2000/svg" viewBox="0 0 952.83 949.77"><g id="Layer_2" data-name="Layer 2"><g id="Layer_3" data-name="Layer 3"><g id="rain_medium"><circle cx="655.26" cy="297.57" r="297.57" style="fill:#3282b8"/><g id="Page-1"><path id="Rain_Medium-2" data-name="Rain Medium" d="M426.34,806.76a26.52,26.52,0,0,1,26.52,26.52h0v90a26.52,26.52,0,1,1-53,0h0v-90A26.52,26.52,0,0,1,426.34,806.76Zm-132-65.52a26.53,26.53,0,0,1,26.53,26.52h0v90a26.53,26.53,0,0,1-53.05,0h0v-90A26.53,26.53,0,0,1,294.32,741.24Zm264,0a26.53,26.53,0,0,1,26.52,26.52h0v90a26.52,26.52,0,0,1-53,0h0v-90A26.52,26.52,0,0,1,558.35,741.24Zm-132-130.54a26.53,26.53,0,0,1,26.52,26.52h0v90a26.52,26.52,0,1,1-53,0h0v-90A26.52,26.52,0,0,1,426.34,610.7ZM398.52,175.23c124.07,0,229.24,82.36,263.79,195.26,3.27-.18,6.55-.29,9.84-.29,98.33,0,178.33,80,178.33,178.33s-80,178.34-178.33,178.34a26.52,26.52,0,0,1,0-53,125.44,125.44,0,0,0,125.29-125.3c0-68.81-55.78-124.81-124.5-125.25a277.15,277.15,0,0,1,1.4,27.77c0,7.76-.34,15.64-1,23.42a275.27,275.27,0,0,1-11.43,58.59,26.52,26.52,0,1,1-50.64-15.76A222.14,222.14,0,0,0,620.5,470c.53-6.31.8-12.69.8-19,0-122.84-99.94-222.78-222.78-222.78A223.08,223.08,0,0,0,216.07,323.4a201.46,201.46,0,0,1,92.24,29.73,26.52,26.52,0,1,1-28,45.08A148.53,148.53,0,0,0,202,376C119.86,376,53,442.77,53,524.89S119.86,673.83,202,673.83a26.52,26.52,0,1,1,0,53c-111.37,0-202-90.61-202-202,0-93.73,64.17-172.73,150.88-195.42A276.3,276.3,0,0,1,398.52,175.23ZM294.32,545.18a26.53,26.53,0,0,1,26.53,26.52h0v90a26.53,26.53,0,0,1-53.05,0h0v-90A26.53,26.53,0,0,1,294.32,545.18Zm264,0a26.53,26.53,0,0,1,26.52,26.52h0v90a26.52,26.52,0,1,1-53,0h0v-90A26.52,26.52,0,0,1,558.35,545.18Z" style="fill:#f7f7f7;fill-rule:evenodd"/></g></g></g></g></svg>