<svg xmlns="http://www.w3.org/2000/svg" viewBox="0 0 949.54 948.27"><g id="Layer_2" data-name="Layer 2"><g id="Layer_3" data-name="Layer 3"><g id="rain_heavy_sun"><circle cx="651.97" cy="298.92" r="297.57" style="fill:#ffd45a"/><g id="Page-1"><path id="Rain_Heavy_Sun-2" data-name="Rain Heavy Sun" d="M425.26,610.69a26.46,26.46,0,0,1,26.45,26.46h0V921.82a26.46,26.46,0,0,1-52.91,0h0V637.15A26.46,26.46,0,0,1,425.26,610.69ZM293.58,545.34A26.46,26.46,0,0,1,320,571.8h0V856.47a26.45,26.45,0,0,1-52.9,0h0V571.8A26.46,26.46,0,0,1,293.58,545.34Zm263.35,0a26.46,26.46,0,0,1,26.46,26.46h0V856.47a26.46,26.46,0,0,1-52.91,0h0V571.8A26.46,26.46,0,0,1,556.93,545.34ZM648.28,0a26.45,26.45,0,0,1,26.45,26.45h0V115a190.92,190.92,0,0,1,75.67,27.6h0l57-67.91a26.45,26.45,0,1,1,40.53,34h0l-57,67.91a192.44,192.44,0,0,1,40.33,69.72h0L918.49,231a26.45,26.45,0,1,1,9.19,52.1h0l-87.26,15.39c.09,2.33.18,4.67.18,7a192.24,192.24,0,0,1-14.05,72.37h0l76.62,44.24a26.46,26.46,0,1,1-26.46,45.82h0L800,423.65l-1.43,1.84a177.22,177.22,0,0,1,49.76,123.19c0,98.09-79.8,177.89-177.88,177.89a26.46,26.46,0,1,1,0-52.91,125.12,125.12,0,0,0,125-125c0-68.64-55.64-124.49-124.18-124.93.91,9.11,1.39,18.35,1.39,27.7,0,7.74-.33,15.6-1,23.36a274.46,274.46,0,0,1-11.39,58.44,26.45,26.45,0,0,1-50.52-15.72,220.9,220.9,0,0,0,9.19-47.15c.53-6.29.8-12.66.8-18.93,0-122.53-99.69-222.22-222.22-222.22a222.54,222.54,0,0,0-182,94.89,200.87,200.87,0,0,1,92,29.66,26.45,26.45,0,1,1-27.89,45,148.2,148.2,0,0,0-78.17-22.2c-81.92,0-148.56,66.64-148.56,148.56s66.64,148.56,148.56,148.56a26.46,26.46,0,0,1,0,52.91C90.38,726.57,0,636.19,0,525.1c0-93.49,64-172.29,150.5-194.92a275.18,275.18,0,0,1,341.78-137,194,194,0,0,1,13.35-16.51h0l-57-67.91a26.45,26.45,0,0,1,40.53-34h0l57,68A192.63,192.63,0,0,1,621.82,115h0V26.45A26.46,26.46,0,0,1,648.28,0Zm0,166.08a139.77,139.77,0,0,0-107.41,50.65A276.37,276.37,0,0,1,660.63,371.1c3.27-.19,6.54-.3,9.82-.3a176.71,176.71,0,0,1,86.23,22.38,139.28,139.28,0,0,0,12.21-17.7,2.24,2.24,0,0,1,.13-.27,1.21,1.21,0,0,1,.14-.2,138.66,138.66,0,0,0,18.53-69.51C787.69,228.62,725.16,166.08,648.28,166.08Z" style="fill:#f7f7f7;fill-rule:evenodd"/></g></g></g></g></svg>