<svg xmlns="http://www.w3.org/2000/svg" viewBox="0 0 955.83 951.89"><g id="Layer_2" data-name="Layer 2"><g id="Layer_3" data-name="Layer 3"><g id="rain_heavy_moon"><circle cx="658.26" cy="297.57" r="297.57" style="fill:#9332d8"/><g id="Page-1"><path id="Rain_Heavy_Moon-2" data-name="Rain Heavy Moon" d="M426.52,613.31a26.53,26.53,0,0,1,26.53,26.53h0V925.36a26.53,26.53,0,0,1-53.06,0h0V639.84A26.53,26.53,0,0,1,426.52,613.31ZM294.45,547.77A26.53,26.53,0,0,1,321,574.3h0V859.82a26.54,26.54,0,0,1-53.07,0h0V574.3A26.53,26.53,0,0,1,294.45,547.77Zm264.14,0a26.53,26.53,0,0,1,26.53,26.53h0V859.82a26.53,26.53,0,1,1-53.06,0h0V574.3A26.53,26.53,0,0,1,558.59,547.77ZM646,61.94c7.73,0,15.72.37,23.72,1.1a26.53,26.53,0,0,1,22,36.72,120.48,120.48,0,0,0,110.93,167,118.6,118.6,0,0,0,49.44-10.65,26.54,26.54,0,0,1,37.31,20.8,245.44,245.44,0,0,1-58.84,191.75,177.13,177.13,0,0,1,20.28,82.45c0,98.37-80,178.41-178.41,178.41a26.53,26.53,0,1,1,0-53.06A125.49,125.49,0,0,0,797.79,551.12c0-68.85-55.81-124.87-124.55-125.31.91,9.14,1.39,18.4,1.39,27.78,0,7.76-.33,15.65-1,23.44a274.84,274.84,0,0,1-11.43,58.61,26.53,26.53,0,0,1-50.67-15.77,222.44,222.44,0,0,0,9.22-47.3c.53-6.3.8-12.69.8-19,0-122.89-100-222.88-222.88-222.88a223.2,223.2,0,0,0-182.53,95.18,201.47,201.47,0,0,1,92.28,29.74,26.53,26.53,0,1,1-28,45.09,148.6,148.6,0,0,0-78.39-22.26c-82.16,0-149,66.84-149,149s66.85,149,149,149a26.53,26.53,0,1,1,0,53.06C90.65,729.53,0,638.88,0,527.46,0,433.7,64.2,354.66,150.94,332a275.45,275.45,0,0,1,285.21-151.7A243.84,243.84,0,0,1,646,61.94Zm-14,53.55a190.82,190.82,0,0,0-141,78.09A277.16,277.16,0,0,1,662.6,373c3.27-.18,6.55-.29,9.84-.29a177.85,177.85,0,0,1,125.74,52A190,190,0,0,0,838,316.23a173.74,173.74,0,0,1-35.34,3.6c-95.58,0-173.34-77.76-173.34-173.34A175.44,175.44,0,0,1,632.05,115.49Z" style="fill:#f7f7f7;fill-rule:evenodd"/></g></g></g></g></svg>