<svg xmlns="http://www.w3.org/2000/svg" viewBox="0 0 949.63 946.1"><g id="Layer_2" data-name="Layer 2"><g id="Layer_3" data-name="Layer 3"><g id="rain_medium_moon"><circle cx="652.06" cy="297.57" r="297.57" style="fill:#9332d8"/><g id="Page-1"><path id="Rain_Medium_Moon-2" data-name="Rain Medium Moon" d="M425.92,803.23a26.49,26.49,0,0,1,26.49,26.49h0V919.6a26.5,26.5,0,1,1-53,0h0V829.72A26.5,26.5,0,0,1,425.92,803.23ZM294,737.78a26.49,26.49,0,0,1,26.49,26.49h0v89.88a26.5,26.5,0,0,1-53,0h0V764.27A26.5,26.5,0,0,1,294,737.78Zm263.76,0a26.5,26.5,0,0,1,26.5,26.49h0v89.88a26.5,26.5,0,0,1-53,0h0V764.27A26.49,26.49,0,0,1,557.8,737.78ZM425.92,607.36a26.49,26.49,0,0,1,26.49,26.5h0v89.87a26.5,26.5,0,1,1-53,0h0V633.86A26.5,26.5,0,0,1,425.92,607.36ZM645.08,56.77c7.73,0,15.7.37,23.7,1.1a26.51,26.51,0,0,1,22,36.67A120.29,120.29,0,0,0,801.52,261.3a118.27,118.27,0,0,0,49.38-10.63,26.49,26.49,0,0,1,37.25,20.77A245.05,245.05,0,0,1,829.4,462.92a176.92,176.92,0,0,1,20.25,82.33c0,98.24-79.92,178.17-178.17,178.17a26.5,26.5,0,0,1,0-53A125.32,125.32,0,0,0,796.66,545.25c0-68.74-55.73-124.69-124.37-125.12.91,9.12,1.39,18.37,1.39,27.73,0,7.76-.33,15.64-1,23.41a275.45,275.45,0,0,1-11.41,58.53,26.5,26.5,0,1,1-50.6-15.75,221.78,221.78,0,0,0,9.2-47.23c.53-6.29.8-12.67.8-19,0-122.71-99.84-222.56-222.56-222.56a222.89,222.89,0,0,0-182.27,95A201.16,201.16,0,0,1,308,350.05a26.5,26.5,0,0,1-27.94,45,148.33,148.33,0,0,0-78.29-22.24c-82,0-148.79,66.75-148.79,148.79s66.75,148.8,148.79,148.8a26.5,26.5,0,1,1,0,53C90.52,723.42,0,632.9,0,521.63,0,428,64.11,349.08,150.73,326.41a275,275,0,0,1,284.8-151.49A243.51,243.51,0,0,1,645.08,56.77ZM294,541.91a26.49,26.49,0,0,1,26.49,26.49h0v89.88a26.5,26.5,0,0,1-53,0h0V568.4A26.5,26.5,0,0,1,294,541.91Zm263.76,0a26.5,26.5,0,0,1,26.5,26.49h0v89.88a26.5,26.5,0,0,1-53,0h0V568.4A26.49,26.49,0,0,1,557.8,541.91Zm73.36-431.67a190.6,190.6,0,0,0-140.86,78A276.75,276.75,0,0,1,661.66,367.39c3.27-.18,6.55-.29,9.82-.29A177.57,177.57,0,0,1,797.05,419a189.81,189.81,0,0,0,39.77-108.3,173.34,173.34,0,0,1-35.3,3.59c-95.44,0-173.09-77.65-173.09-173.1A175,175,0,0,1,631.16,110.24Z" style="fill:#f7f7f7;fill-rule:evenodd"/></g></g></g></g></svg>