<svg xmlns="http://www.w3.org/2000/svg" viewBox="0 0 950.61 947.29"><g id="Layer_2" data-name="Layer 2"><g id="Layer_3" data-name="Layer 3"><g id="snow_1_sun"><circle cx="653.03" cy="297.57" r="297.57" style="fill:#ffd45a"/><g id="Page-1"><path id="Snow_1_Sun-2" data-name="Snow 1 Sun" d="M292.51,768a26.36,26.36,0,0,1,26.36,26.36h0v19.73l17.47-9.16a26.36,26.36,0,1,1,24.46,46.7h0l-13.4,7,13.14,7.51a26.36,26.36,0,1,1-26.14,45.78h0l-15.53-8.87v17.88a26.36,26.36,0,0,1-52.72,0h0V901.21l-17.47,9.15a26.36,26.36,0,0,1-24.46-46.7h0l13.39-7-13.12-7.5a26.36,26.36,0,0,1,26.14-45.78h0l15.52,8.87V794.36A26.37,26.37,0,0,1,292.51,768Zm262.86,0a26.35,26.35,0,0,1,26.35,26.35h0v19.73l17.48-9.15a26.35,26.35,0,1,1,24.46,46.69h0l-13.4,7,13.14,7.5a26.36,26.36,0,0,1-26.15,45.78h0l-15.53-8.87v17.87a26.36,26.36,0,1,1-52.71,0h0V901.21l-17.47,9.16a26.36,26.36,0,0,1-24.46-46.7h0l13.39-7-13.13-7.5a26.36,26.36,0,0,1,26.15-45.78h0L529,812.23V794.36A26.36,26.36,0,0,1,555.37,768ZM423.71,606.33a26.35,26.35,0,0,1,26.35,26.35h0v19.73l17.48-9.15A26.35,26.35,0,1,1,492,690h0l-13.4,7,13.13,7.49a26.36,26.36,0,1,1-26.14,45.78h0l-15.53-8.86v17.87a26.36,26.36,0,1,1-52.71,0h0V739.53l-17.47,9.15A26.36,26.36,0,1,1,355.42,702h0l13.39-7-13.12-7.5a26.36,26.36,0,0,1,26.14-45.78h0l15.52,8.87V632.68A26.36,26.36,0,0,1,423.71,606.33ZM645.92,1.83a26.35,26.35,0,0,1,26.36,26.36h0v88.26a190.3,190.3,0,0,1,75.4,27.5h0l56.77-67.66a26.36,26.36,0,1,1,40.38,33.89h0l-56.77,67.66a191.66,191.66,0,0,1,40.18,69.47h0L915.16,232a26.36,26.36,0,0,1,9.15,51.92h0l-86.94,15.32c.09,2.33.18,4.66.18,7a191.49,191.49,0,0,1-14,72.11h0l76.34,44.08a26.36,26.36,0,1,1-26.36,45.65h0l-76.44-44.13c-.47.61-.93,1.23-1.42,1.84a176.59,176.59,0,0,1,49.58,122.75c0,97.73-79.51,177.24-177.24,177.24a26.36,26.36,0,1,1,0-52.71A124.67,124.67,0,0,0,792.53,548.52c0-68.39-55.44-124-123.73-124.48.91,9.08,1.39,18.28,1.39,27.6,0,7.71-.33,15.55-1,23.28a273.24,273.24,0,0,1-11.35,58.23,26.36,26.36,0,0,1-50.34-15.67,220.06,220.06,0,0,0,9.16-47c.53-6.26.8-12.61.8-18.86,0-122.09-99.33-221.41-221.41-221.41a221.73,221.73,0,0,0-181.33,94.54,200.23,200.23,0,0,1,91.68,29.55,26.36,26.36,0,0,1-27.8,44.8A147.6,147.6,0,0,0,200.74,377c-81.62,0-148,66.4-148,148s66.4,148,148,148a26.36,26.36,0,1,1,0,52.71C90.05,725.76,0,635.71,0,525c0-93.15,63.77-171.66,150-194.21A274.19,274.19,0,0,1,490.5,194.29a191,191,0,0,1,13.29-16.45h0L447,110.18A26.36,26.36,0,1,1,487.4,76.29h0L544.22,144a192.05,192.05,0,0,1,75.35-27.55h0V28.19A26.36,26.36,0,0,1,645.92,1.83Zm0,165.48a139.26,139.26,0,0,0-107,50.46,275.39,275.39,0,0,1,119.32,153.8c3.26-.17,6.51-.28,9.78-.28a176.1,176.1,0,0,1,85.92,22.29,138.35,138.35,0,0,0,12.17-17.64c0-.08.07-.18.13-.27a1.21,1.21,0,0,1,.14-.2,138.05,138.05,0,0,0,18.47-69.25C784.84,229.62,722.53,167.31,645.92,167.31Z" style="fill:#f7f7f7;fill-rule:evenodd"/></g></g></g></g></svg>