<svg xmlns="http://www.w3.org/2000/svg" viewBox="0 0 899.11 803.03"><g id="Layer_2" data-name="Layer 2"><g id="Layer_3" data-name="Layer 3"><g id="sun"><circle cx="601.54" cy="297.57" r="297.57" style="fill:#ffd45a"/><g id="Page-1"><path id="Sun-2" data-name="Sun" d="M350.8,669c10.52.37,18.71,9.34,18.71,19.87v94.3c0,10.53-8.19,19.5-18.71,19.87a19.41,19.41,0,0,1-20.12-19.4V688.37A19.41,19.41,0,0,1,350.8,669ZM198,607.29a19.42,19.42,0,0,1,0,27.46L130.67,702.1a19.42,19.42,0,0,1-27.46-27.46l67.35-67.35A19.41,19.41,0,0,1,198,607.29Zm331-1.95,67,67a19.42,19.42,0,1,1-27.46,27.46l-67.34-67.34a19.42,19.42,0,0,1,.5-28C509.43,597.35,521.57,597.9,529,605.34ZM345.93,272.19c102.57-1.41,186.31,82.32,184.91,184.9C529.49,555.45,449.4,635.55,351,636.9,248.46,638.31,164.72,554.58,166.12,452,167.47,353.64,247.56,273.54,345.93,272.19ZM351.72,311C270,309.23,203.17,376.08,205,457.78c1.69,76.45,63.84,138.59,140.29,140.27C427,599.85,493.79,533,492,451.32,490.3,374.88,428.16,312.73,351.72,311ZM114.66,436.74a19.41,19.41,0,0,1,19.4,20.13c-.37,10.52-9.34,18.7-19.87,18.7H19.88C9.35,475.57.39,467.39,0,456.87a19.42,19.42,0,0,1,19.41-20.13ZM697,452.94h0a19.42,19.42,0,0,1-19.42,19.41H582.3a19.41,19.41,0,0,1-19.41-19.41h0a19.41,19.41,0,0,1,19.41-19.42h95.24A19.42,19.42,0,0,1,697,452.94ZM128.71,209.6l67,67a19.42,19.42,0,0,1-27.46,27.46l-67.34-67.35a19.42,19.42,0,0,1,.5-27.95C109.14,201.6,121.27,202.15,128.71,209.6Zm465.55-2.08c7.16,7.71,6.6,19.83-.84,27.27l-67,67A19.42,19.42,0,1,1,499,274.34L566.3,207A19.43,19.43,0,0,1,594.26,207.52ZM347.58,106.08c10.52.38,18.71,9.34,18.71,19.87v94.31c0,10.53-8.19,19.49-18.71,19.87a19.43,19.43,0,0,1-20.13-19.41V125.48A19.42,19.42,0,0,1,347.58,106.08Z" style="fill:#f7f7f7;fill-rule:evenodd"/></g></g></g></g></svg>