<svg xmlns="http://www.w3.org/2000/svg" viewBox="0 0 953.07 943.32"><g id="Layer_2" data-name="Layer 2"><g id="Layer_3" data-name="Layer 3"><g id="thunder_moon"><circle cx="655.5" cy="297.57" r="297.57" style="fill:#9332d8"/><g id="Page-1"><path id="Thunder_Moon-2" data-name="Thunder Moon" d="M370.63,527.19l154.17,0a26.27,26.27,0,0,1,23.52,38h0l-32.64,65.68L568.42,627a26.27,26.27,0,0,1,23,41.89h0L395,932.73a26.27,26.27,0,0,1-47.08-19.44h0l22.65-157L292.19,758a26.28,26.28,0,0,1-24.61-36.92h0l79-178.29a26.29,26.29,0,0,1,24-15.63h0Zm17.09,52.56L332.39,704.56l68.05-1.51H401a26.28,26.28,0,0,1,26,30h0l-12.29,85.15L514.93,683.64l-41.38,3.09a26.27,26.27,0,0,1-25.48-37.9h0l34.33-69.05Zm252-519.08c7.66,0,15.56.37,23.49,1.1A26.27,26.27,0,0,1,685,98.13,119.31,119.31,0,0,0,794.89,263.52a117.37,117.37,0,0,0,49-10.55,26.28,26.28,0,0,1,36.94,20.6,242.91,242.91,0,0,1-58.26,189.89,175.53,175.53,0,0,1,20.08,81.66c0,97.42-79.26,176.68-176.69,176.68a26.28,26.28,0,1,1,0-52.55A124.28,124.28,0,0,0,790.07,545.12c0-68.18-55.27-123.66-123.35-124.09a274.73,274.73,0,0,1,1.39,27.5c0,7.69-.34,15.5-1,23.21a272.8,272.8,0,0,1-11.31,58,26.28,26.28,0,0,1-50.19-15.62,219.38,219.38,0,0,0,9.13-46.84c.53-6.24.8-12.57.8-18.8,0-121.7-99-220.72-220.73-220.72a221,221,0,0,0-180.76,94.26,199.4,199.4,0,0,1,91.39,29.45,26.28,26.28,0,0,1-27.71,44.66,147.19,147.19,0,0,0-77.64-22.05c-81.36,0-147.56,66.2-147.56,147.56s66.2,147.56,147.56,147.56a26.28,26.28,0,1,1,0,52.55C89.77,721.8,0,632,0,521.69c0-92.85,63.58-171.12,149.48-193.61A272.71,272.71,0,0,1,431.92,177.85,241.51,241.51,0,0,1,639.75,60.67Zm-13.81,53A189,189,0,0,0,486.24,191,274.47,274.47,0,0,1,656.18,368.72c3.25-.18,6.5-.29,9.75-.29A176.14,176.14,0,0,1,790.45,419.9a188.09,188.09,0,0,0,39.44-107.4,171.82,171.82,0,0,1-35,3.57c-94.66,0-171.66-77-171.66-171.67A172.88,172.88,0,0,1,625.94,113.71Z" style="fill:#f7f7f7;fill-rule:evenodd"/></g></g></g></g></svg>