<svg xmlns="http://www.w3.org/2000/svg" viewBox="0 0 947.37 949.99"><g id="Layer_2" data-name="Layer 2"><g id="Layer_3" data-name="Layer 3"><g id="thunder_sun"><circle cx="649.8" cy="297.57" r="297.57" style="fill:#ffd45a"/><g id="Page-1"><path id="Thunder_Sun-2" data-name="Thunder Sun" d="M370.35,534.17l154.07.05a26.25,26.25,0,0,1,23.5,37.94h0l-32.63,65.63,52.7-3.94a26.25,26.25,0,0,1,23,41.86h0L394.73,939.41A26.26,26.26,0,0,1,347.68,920h0l22.64-156.9L292,764.84a26.55,26.55,0,0,1-22.43-11.69,26.27,26.27,0,0,1-2.16-25.2h0l79-178.16a26.27,26.27,0,0,1,24-15.62Zm17.08,52.52L332.15,711.41l68-1.52h.58a26.26,26.26,0,0,1,26,30h0L414.44,825,514.54,690.5l-41.34,3.08a26.25,26.25,0,0,1-25.46-37.86h0l34.3-69ZM643.43,7.5a26.25,26.25,0,0,1,26.26,26.26h0v87.92a189.47,189.47,0,0,1,75.1,27.39h0l56.56-67.39a26.25,26.25,0,1,1,40.22,33.75h0L785,182.83a190.94,190.94,0,0,1,40,69.2h0l86.58-15.26a26.25,26.25,0,1,1,9.12,51.71h0l-86.61,15.27c.09,2.32.18,4.63.18,7a190.64,190.64,0,0,1-14,71.83h0l76,43.91a26.25,26.25,0,1,1-26.26,45.47h0L794,428c-.47.61-.93,1.23-1.42,1.84A175.9,175.9,0,0,1,842,552.08c0,97.35-79.2,176.56-176.55,176.56a26.26,26.26,0,1,1,0-52.51,124.19,124.19,0,0,0,124-124c0-68.12-55.23-123.56-123.26-124a274.33,274.33,0,0,1,1.39,27.48c0,7.69-.34,15.49-1,23.19a271.81,271.81,0,0,1-11.31,58,26.26,26.26,0,1,1-50.14-15.61,219,219,0,0,0,9.12-46.79c.53-6.25.79-12.57.79-18.8C615.09,334,516.16,235,394.54,235A220.88,220.88,0,0,0,213.91,329.2a199.35,199.35,0,0,1,91.32,29.44,26.25,26.25,0,1,1-27.68,44.62,147.1,147.1,0,0,0-77.58-22c-81.31,0-147.46,66.14-147.46,147.44S118.66,676.13,200,676.13a26.26,26.26,0,0,1,0,52.51c-110.27,0-200-89.7-200-200,0-92.78,63.53-171,149.37-193.46a273.12,273.12,0,0,1,339.24-136,189.2,189.2,0,0,1,13.24-16.39h0l-56.56-67.4a26.26,26.26,0,1,1,40.23-33.75h0l56.6,67.44a191.17,191.17,0,0,1,75.06-27.44h0V33.76A26.25,26.25,0,0,1,643.43,7.5Zm0,164.84a138.7,138.7,0,0,0-106.6,50.27A274.35,274.35,0,0,1,655.69,375.82c3.25-.18,6.49-.29,9.75-.29A175.37,175.37,0,0,1,751,397.74a138,138,0,0,0,12.12-17.57c.06-.09.08-.18.13-.27s.1-.13.14-.2a137.46,137.46,0,0,0,18.4-69C781.81,234.42,719.74,172.34,643.43,172.34Z" style="fill:#f7f7f7;fill-rule:evenodd"/></g></g></g></g></svg>