<svg xmlns="http://www.w3.org/2000/svg" viewBox="0 0 943.65 945.73"><g id="Layer_2" data-name="Layer 2"><g id="Layer_3" data-name="Layer 3"><g id="wind_sun"><circle cx="646.07" cy="297.57" r="297.57" style="fill:#ffd45a"/><g id="Page-1"><path id="Wind_Sun-2" data-name="Wind Sun" d="M289.13,795.43l263.52,1.05a26.16,26.16,0,0,1-.1,52.32h-.1l-263.42-1a22.83,22.83,0,0,0,.1,45.66,22.6,22.6,0,0,0,9.89-2.24,26.16,26.16,0,0,1,22.77,47.11,75.16,75.16,0,1,1-32.66-142.85ZM138,737.87a74.38,74.38,0,0,1,32.64,7.45,26.16,26.16,0,1,1-22.74,47.11,22.6,22.6,0,0,0-9.9-2.24,22.83,22.83,0,1,0,0,45.66,26.16,26.16,0,1,1,0,52.32,75.15,75.15,0,1,1,0-150.3Zm503.09-732A26.16,26.16,0,0,1,667.24,32h0v87.61a188.75,188.75,0,0,1,74.83,27.29h0l56.35-67.16a26.16,26.16,0,1,1,40.07,33.63h0l-56.34,67.17A190.12,190.12,0,0,1,822,249.49h0l86.26-15.21a26.16,26.16,0,1,1,9.09,51.53h0L831.09,301c.08,2.31.18,4.61.18,6.94a190.05,190.05,0,0,1-13.9,71.57h0l75.77,43.75A26.16,26.16,0,1,1,867,468.59h0l-75.86-43.8c-.48.61-.93,1.22-1.42,1.83a175.23,175.23,0,0,1,49.21,121.83c0,96.95-78.85,175.83-175.78,175.9h0l-263.42,1a75.15,75.15,0,1,1,32.54-142.85,26.16,26.16,0,1,1-22.74,47.11,22.84,22.84,0,1,0-9.91,43.42h0l263.32-1h.1A123.73,123.73,0,0,0,786.59,548.45c0-67.88-55-123.12-122.8-123.55q1.35,13.52,1.37,27.39c0,7.65-.33,15.43-1,23.11a271.71,271.71,0,0,1-11.26,57.79,26.16,26.16,0,0,1-50-15.55A218.74,218.74,0,0,0,612.05,471c.53-6.22.79-12.52.79-18.72,0-121.17-98.57-219.75-219.74-219.75a220.05,220.05,0,0,0-180,93.84,198.59,198.59,0,0,1,91,29.33,26.16,26.16,0,0,1-27.59,44.46,146.55,146.55,0,0,0-77.3-22c-81,0-146.91,65.9-146.91,146.91S118.23,672,199.23,672a26.16,26.16,0,0,1,0,52.32C89.37,724.36,0,635,0,525.12c0-92.45,63.3-170.37,148.83-192.75a272.14,272.14,0,0,1,338-135.5A188,188,0,0,1,500,180.55h0l-56.34-67.17a26.16,26.16,0,0,1,40.08-33.63h0L540.14,147a190.28,190.28,0,0,1,74.78-27.34h0V32A26.16,26.16,0,0,1,641.08,5.85Zm0,164.24a138.25,138.25,0,0,0-106.22,50.09A273.3,273.3,0,0,1,653.29,372.83c3.24-.18,6.47-.29,9.71-.29a174.78,174.78,0,0,1,85.28,22.13,136.94,136.94,0,0,0,12.07-17.51h0l.13-.26a.9.9,0,0,1,.14-.2A137.05,137.05,0,0,0,779,308C779,231.93,717.11,170.09,641.08,170.09Z" style="fill:#f7f7f7;fill-rule:evenodd"/></g></g></g></g></svg>