<svg xmlns="http://www.w3.org/2000/svg" viewBox="0 0 950.61 947.52"><g id="Layer_2" data-name="Layer 2"><g id="Layer_3" data-name="Layer 3"><g id="wind_moon"><circle cx="653.03" cy="297.57" r="297.57" style="fill:#9332d8"/><g id="Page-1"><path id="Wind_Moon-2" data-name="Wind Moon" d="M289.71,796.93l264,1.05a26.21,26.21,0,0,1-.11,52.42h-.1l-263.93-1a22.88,22.88,0,1,0,10,43.51,26.21,26.21,0,1,1,22.81,47.19,74.5,74.5,0,0,1-32.71,7.47,75.3,75.3,0,1,1,0-150.59ZM638.19,66.69c7.64,0,15.53.37,23.44,1.11a26.2,26.2,0,0,1,21.74,36.26A119,119,0,0,0,793,269.05a117.11,117.11,0,0,0,48.85-10.52,26.22,26.22,0,0,1,36.86,20.55,242.44,242.44,0,0,1-58,189.25,175.19,175.19,0,0,1,19.86,81.12c0,97.15-79,176.18-176.13,176.26h0l-263.93,1a75.3,75.3,0,1,1,32.61-143.13,26.21,26.21,0,0,1-22.79,47.21,22.88,22.88,0,1,0-9.93,43.5h0l263.83-1h.11A124,124,0,0,0,788.14,549.45c0-68-55.13-123.35-123-123.79.9,9,1.38,18.18,1.38,27.45,0,7.67-.33,15.46-1,23.15a272,272,0,0,1-11.29,57.9,26.21,26.21,0,0,1-50.06-15.58,219.48,219.48,0,0,0,9.1-46.72c.53-6.23.8-12.54.8-18.75,0-104.33-73-191.88-170.52-214.47a26,26,0,0,1-7.73-1.66,219.72,219.72,0,0,0-222.26,90,198.89,198.89,0,0,1,91.16,29.38,26.21,26.21,0,1,1-27.64,44.55,146.76,146.76,0,0,0-77.44-22c-81.17,0-147.21,66-147.21,147.19s66,147.21,147.21,147.21a26.21,26.21,0,0,1,0,52.42C89.55,725.71,0,636.16,0,526.08,0,433.46,63.42,355.38,149.11,333A272.11,272.11,0,0,1,431.17,183.12,240.92,240.92,0,0,1,638.19,66.69Zm-13.78,52.92a188.54,188.54,0,0,0-139.06,76.73A273.77,273.77,0,0,1,654.58,373.49c3.24-.18,6.48-.29,9.73-.29a175.71,175.71,0,0,1,124.44,51.56,187.8,187.8,0,0,0,39.12-106.85A171,171,0,0,1,793,321.47c-94.42,0-171.24-76.82-171.24-171.25A172.92,172.92,0,0,1,624.41,119.61Z" style="fill:#f7f7f7;fill-rule:evenodd"/></g></g></g></g></svg>