<svg xmlns="http://www.w3.org/2000/svg" viewBox="0 0 948.1 950.53"><g id="Layer_2" data-name="Layer 2"><g id="Layer_3" data-name="Layer 3"><g id="wind_mix"><circle cx="650.52" cy="297.57" r="297.57" style="fill:#3282b8"/><g id="Page-1"><path id="WinteryMix" d="M423.17,896.36a26.31,26.31,0,0,1,26.31,26.31h0v1.55a26.31,26.31,0,0,1-52.62,0h0v-1.55A26.32,26.32,0,0,1,423.17,896.36ZM554.36,768a26.3,26.3,0,0,1,26.31,26.31h0V814l17.45-9.14a26.31,26.31,0,1,1,24.41,46.61h0l-13.37,7,13.11,7.49a26.32,26.32,0,0,1-26.11,45.7h0l-15.49-8.85v17.84a26.31,26.31,0,1,1-52.62,0h0V900.93l-17.44,9.14a26.31,26.31,0,0,1-24.41-46.61h0l13.36-7L486.46,849a26.31,26.31,0,0,1,26.1-45.69h0l15.49,8.85V794.28A26.31,26.31,0,0,1,554.36,768ZM292,826.2a26.31,26.31,0,0,1,26.31,26.31h0v1.55a26.31,26.31,0,1,1-52.62,0h0v-1.55A26.32,26.32,0,0,1,292,826.2Zm131-216.05a26.31,26.31,0,0,1,26.31,26.3h0v19.7L466.69,647a26.31,26.31,0,1,1,24.42,46.61h0l-13.38,7,13.11,7.48a26.31,26.31,0,1,1-26.09,45.7h0L449.25,745V762.8a26.31,26.31,0,0,1-52.62,0h0V743.12l-17.43,9.13a26.31,26.31,0,1,1-24.42-46.61h0l13.37-7L355,691.14a26.31,26.31,0,1,1,26.1-45.69h0l15.49,8.85V636.45A26.31,26.31,0,0,1,422.94,610.15ZM292,685.88a26.31,26.31,0,0,1,26.31,26.31h0v1.55a26.31,26.31,0,0,1-52.62,0h0v-1.55A26.32,26.32,0,0,1,292,685.88ZM553.91,672.4a26.31,26.31,0,0,1,26.31,26.31h0v1.55a26.31,26.31,0,0,1-52.62,0h0v-1.55A26.31,26.31,0,0,1,553.91,672.4ZM395.35,178.54c123.08,0,227.42,81.71,261.69,193.71,3.25-.17,6.5-.28,9.76-.28,97.55,0,176.92,79.36,176.92,176.91S764.35,725.8,666.8,725.8a26.31,26.31,0,0,1,0-52.62,124.45,124.45,0,0,0,124.3-124.3c0-68.27-55.34-123.82-123.51-124.25A275.38,275.38,0,0,1,669,452.17c0,7.7-.34,15.52-1,23.24a272.71,272.71,0,0,1-11.33,58.12,26.31,26.31,0,1,1-50.25-15.64A219.24,219.24,0,0,0,615.56,471c.53-6.26.8-12.6.8-18.84,0-121.86-99.14-221-221-221a221.33,221.33,0,0,0-181,94.38A199.76,199.76,0,0,1,305.86,355a26.31,26.31,0,0,1-27.74,44.72,147.38,147.38,0,0,0-77.74-22.08C118.9,377.67,52.62,444,52.62,525.42S118.9,673.18,200.38,673.18a26.31,26.31,0,1,1,0,52.62C89.89,725.8,0,635.91,0,525.42c0-93,63.66-171.35,149.68-193.86A274.11,274.11,0,0,1,395.35,178.54ZM292,545.56a26.31,26.31,0,0,1,26.31,26.31h0v1.55a26.31,26.31,0,1,1-52.62,0h0v-1.55A26.32,26.32,0,0,1,292,545.56Z" style="fill:#f7f7f7;fill-rule:evenodd"/></g></g></g></g></svg>