<svg xmlns="http://www.w3.org/2000/svg" viewBox="0 0 947.37 950.48"><g id="Layer_2" data-name="Layer 2"><g id="Layer_3" data-name="Layer 3"><g id="wind_mix_moon"><circle cx="649.8" cy="297.57" r="297.57" style="fill:#9332d8"/><g id="Page-1"><path id="WinteryMix_Moon" data-name="WinteryMix Moon" d="M422.85,896.35a26.29,26.29,0,0,1,26.29,26.29h0v1.55a26.29,26.29,0,1,1-52.58,0h0v-1.55A26.29,26.29,0,0,1,422.85,896.35ZM553.94,768.06a26.28,26.28,0,0,1,26.28,26.29h0V814l17.44-9.13a26.29,26.29,0,1,1,24.39,46.57h0l-13.36,7,13.1,7.48a26.29,26.29,0,0,1-26.08,45.66h0l-15.49-8.84v17.82a26.29,26.29,0,1,1-52.57,0h0V900.92l-17.43,9.13a26.29,26.29,0,0,1-24.4-46.58h0l13.36-7L486.08,849a26.29,26.29,0,0,1,26.09-45.65h0l15.48,8.83V794.35A26.29,26.29,0,0,1,553.94,768.06ZM291.76,826.25a26.29,26.29,0,0,1,26.29,26.28h0v1.55a26.29,26.29,0,0,1-52.58,0h0v-1.55A26.29,26.29,0,0,1,291.76,826.25ZM422.62,610.36a26.29,26.29,0,0,1,26.28,26.29h0v19.68l17.43-9.14a26.29,26.29,0,1,1,24.4,46.58h0l-13.36,7,13.1,7.48a26.29,26.29,0,1,1-26.09,45.66h0l-15.48-8.84V762.9a26.29,26.29,0,1,1-52.57,0h0V743.23l-17.43,9.12a26.29,26.29,0,1,1-24.39-46.57h0l13.35-7-13.1-7.48a26.29,26.29,0,0,1,26.09-45.66h0l15.48,8.84V636.65A26.29,26.29,0,0,1,422.62,610.36ZM291.76,686a26.3,26.3,0,0,1,26.29,26.29h0v1.55a26.29,26.29,0,0,1-52.58,0h0v-1.55A26.3,26.3,0,0,1,291.76,686Zm261.72-13.47a26.3,26.3,0,0,1,26.29,26.29h0v1.56a26.29,26.29,0,1,1-52.58,0h0v-1.56A26.3,26.3,0,0,1,553.48,672.56ZM640.09,64.44c7.66,0,15.57.36,23.51,1.09a26.3,26.3,0,0,1,21.81,36.38,119.36,119.36,0,0,0,109.9,165.48,117.51,117.51,0,0,0,49-10.55,26.3,26.3,0,0,1,37,20.62,243.22,243.22,0,0,1-58.3,190,175.7,175.7,0,0,1,20.09,81.7c0,97.48-79.3,176.78-176.79,176.78a26.29,26.29,0,0,1,0-52.58,124.35,124.35,0,0,0,124.21-124.2c0-68.21-55.3-123.72-123.41-124.16.9,9.06,1.38,18.24,1.38,27.53,0,7.69-.33,15.5-1,23.22a273.71,273.71,0,0,1-11.32,58.08A26.29,26.29,0,1,1,606,518.18a220.3,220.3,0,0,0,9.13-46.86c.53-6.25.79-12.58.79-18.81,0-121.77-99.06-220.84-220.83-220.84A221.21,221.21,0,0,0,214.18,326a199.58,199.58,0,0,1,91.44,29.47,26.29,26.29,0,0,1-27.72,44.69,147.24,147.24,0,0,0-77.68-22.06c-81.41,0-147.64,66.23-147.64,147.63s66.23,147.64,147.64,147.64a26.29,26.29,0,1,1,0,52.58C89.82,725.92,0,636.11,0,525.7,0,432.8,63.61,354.49,149.56,332a272.88,272.88,0,0,1,282.6-150.31A241.62,241.62,0,0,1,640.09,64.44ZM291.76,545.82a26.29,26.29,0,0,1,26.29,26.29h0v1.55a26.29,26.29,0,0,1-52.58,0h0v-1.55A26.29,26.29,0,0,1,291.76,545.82ZM626.27,117.5A189.1,189.1,0,0,0,486.5,194.88a274.61,274.61,0,0,1,170,177.77c3.25-.18,6.5-.29,9.75-.29a176.23,176.23,0,0,1,124.59,51.5A188.3,188.3,0,0,0,830.34,316.4a172.11,172.11,0,0,1-35,3.57c-94.7,0-171.75-77.05-171.75-171.76A174.13,174.13,0,0,1,626.27,117.5Z" style="fill:#f7f7f7;fill-rule:evenodd"/></g></g></g></g></svg>