<svg xmlns="http://www.w3.org/2000/svg" viewBox="0 0 945.6 949.99"><g id="Layer_2" data-name="Layer 2"><g id="Layer_3" data-name="Layer 3"><g id="wind"><circle cx="648.02" cy="297.57" r="297.57" style="fill:#3282b8"/><g id="Page-1"><path id="Wind-2" data-name="Wind" d="M289.7,799.4l264,1.05a26.21,26.21,0,0,1-.11,52.42h-.1l-263.93-1a22.88,22.88,0,1,0,10,43.51,26.21,26.21,0,1,1,22.81,47.2A75.3,75.3,0,1,1,289.7,799.4ZM138.26,741.73A74.66,74.66,0,0,1,171,749.19a26.21,26.21,0,1,1-22.79,47.21,22.88,22.88,0,1,0-9.92,43.5,26.21,26.21,0,0,1,0,52.42,75.3,75.3,0,1,1,0-150.59ZM393.87,183c122.62,0,226.56,81.4,260.7,193,3.24-.18,6.49-.29,9.73-.29,97.19,0,176.25,79.07,176.25,176.25s-79,176.18-176.11,176.25h0l-263.94,1.05A75.3,75.3,0,1,1,433.08,586.1a26.21,26.21,0,1,1-22.79,47.21,22.52,22.52,0,0,0-9.92-2.25,22.88,22.88,0,1,0,0,45.75h0l263.83-1h.1A124,124,0,0,0,788.13,551.93c0-68-55.13-123.36-123-123.78.9,9,1.38,18.18,1.38,27.43,0,7.67-.33,15.47-1,23.16a272.76,272.76,0,0,1-11.29,57.9,26.21,26.21,0,0,1-50.06-15.58,218.77,218.77,0,0,0,9.11-46.71c.52-6.24.79-12.55.79-18.77,0-121.4-98.77-220.17-220.18-220.17a220.52,220.52,0,0,0-180.32,94,199.18,199.18,0,0,1,91.16,29.39,26.21,26.21,0,0,1-27.63,44.55,146.84,146.84,0,0,0-77.46-22c-81.16,0-147.2,66-147.2,147.2s66,147.2,147.2,147.2a26.21,26.21,0,1,1,0,52.42C89.55,728.18,0,638.63,0,528.56c0-92.63,63.42-170.71,149.12-193.13A273.08,273.08,0,0,1,393.87,183Z" style="fill:#f7f7f7;fill-rule:evenodd"/></g></g></g></g></svg>