<svg xmlns="http://www.w3.org/2000/svg" viewBox="0 0 853.92 553.87"><g id="Layer_2" data-name="Layer 2"><g id="Layer_3" data-name="Layer 3"><g id="cloud"><g id="Page-1"><path id="Cloud-2" data-name="Cloud" d="M674.87,500.62H202.8c-82.46,0-149.54-67.08-149.54-149.54S120.34,201.53,202.8,201.53a149.15,149.15,0,0,1,78.69,22.35,26.63,26.63,0,0,0,28.07-45.26,202.19,202.19,0,0,0-92.62-29.85A224,224,0,0,1,400.13,53.26c123.34,0,223.68,100.34,223.68,223.68,0,6.31-.27,12.72-.8,19.06a222.68,222.68,0,0,1-9.25,47.46,26.62,26.62,0,0,0,17.52,33.33,26.18,26.18,0,0,0,7.91,1.22,26.67,26.67,0,0,0,25.43-18.73,276.78,276.78,0,0,0,11.46-58.82c.65-7.82,1-15.73,1-23.52a279.06,279.06,0,0,0-1.4-27.88c69,.43,125,56.66,125,125.76a126,126,0,0,1-125.8,125.8m0-304.86c-3.3,0-6.59.11-9.88.29C630.3,82.69,524.7,0,400.13,0A277.41,277.41,0,0,0,151.49,154.87C64.43,177.65,0,257,0,351.08,0,462.9,91,553.87,202.8,553.87H674.87c98.73,0,179-80.32,179-179s-80.32-179.06-179-179.06" style="fill:#fff;fill-rule:evenodd"/></g></g></g></g></svg>