<svg xmlns="http://www.w3.org/2000/svg" viewBox="0 0 939.06 718.55"><g id="Layer_2" data-name="Layer 2"><g id="Layer_3" data-name="Layer 3"><g id="cloud_sun"><g id="Page-1"><path id="Cloud_Sun-2" data-name="Cloud Sun" d="M663,666.22H199.25c-81,0-146.93-65.9-146.93-146.91s65.91-146.93,146.93-146.93a146.61,146.61,0,0,1,77.31,22,26.16,26.16,0,0,0,27.58-44.47,198.83,198.83,0,0,0-91-29.33,220.1,220.1,0,0,1,180-93.84c121.18,0,219.76,98.59,219.76,219.77,0,6.2-.26,12.5-.79,18.72A218.62,218.62,0,0,1,603,511.82a26.16,26.16,0,1,0,50,15.55,271.11,271.11,0,0,0,11.27-57.79c.64-7.68,1-15.46,1-23.11,0-9.25-.48-18.39-1.38-27.4,67.78.43,122.81,55.68,122.81,123.56A123.74,123.74,0,0,1,663,666.22m-21.92-502c76,0,137.88,61.85,137.88,137.88a137.08,137.08,0,0,1-18.33,68.74,1.15,1.15,0,0,0-.14.19c0,.1-.08.19-.13.28a137.87,137.87,0,0,1-12.07,17.5A174.9,174.9,0,0,0,663,366.71c-3.24,0-6.47.11-9.7.29A273.35,273.35,0,0,0,534.9,214.34a138.2,138.2,0,0,1,106.22-50.09m297.54,85.41a26.15,26.15,0,0,0-30.31-21.22l-86.27,15.21a190.24,190.24,0,0,0-39.88-69l56.35-67.16a26.16,26.16,0,1,0-40.08-33.63l-56.35,67.16a189,189,0,0,0-74.84-27.3V26.16a26.16,26.16,0,0,0-52.32,0v87.61a190.56,190.56,0,0,0-74.79,27.35L483.78,73.91a26.16,26.16,0,1,0-40.08,33.63l56.35,67.16A189.79,189.79,0,0,0,486.85,191a272.16,272.16,0,0,0-338,135.51C63.3,348.92,0,426.85,0,519.31,0,629.17,89.38,718.55,199.25,718.55H663c97,0,175.92-78.92,175.92-175.92a175.3,175.3,0,0,0-49.21-121.84c.48-.6,1-1.22,1.42-1.82L867,462.77a26.16,26.16,0,0,0,26.16-45.32l-75.78-43.74a189.91,189.91,0,0,0,13.9-71.58c0-2.33-.09-4.64-.17-6.94L917.44,280a26.18,26.18,0,0,0,21.22-30.32" style="fill:#fff;fill-rule:evenodd"/></g></g></g></g></svg>