<svg xmlns="http://www.w3.org/2000/svg" viewBox="0 0 876.5 873.39"><g id="Layer_2" data-name="Layer 2"><g id="Layer_3" data-name="Layer 3"><g id="hail_moon"><g id="Page-1"><path id="Hail_Moon-2" data-name="Hail Moon" d="M166.54,740.45a26.08,26.08,0,0,1,36.89,0c43.14,43.13,45.14,100.14,45.23,106.37v.48a26.1,26.1,0,0,1-52.19.15c0-.88-1-41.19-29.93-70.1A26.07,26.07,0,0,1,166.54,740.45Zm209.64,0a26.09,26.09,0,0,1,36.9,36.9c-28.16,28.16-29.85,67.14-29.93,70v.15a26.17,26.17,0,0,1-26.09,25.85h-.16a26,26,0,0,1-25.93-26h0v-.47C331.05,840.6,333.05,783.58,376.18,740.45ZM289.57,793.3a26.09,26.09,0,0,1,26.09,26.09h0v4.33a26.09,26.09,0,0,1-52.18,0h0v-4.33A26.09,26.09,0,0,1,289.57,793.3Zm344.5-99.24A26.09,26.09,0,1,1,671,731C641.88,760.05,641,800.67,641,801.08a26.16,26.16,0,0,1-26.08,25.84h-.17a26,26,0,0,1-25.93-26h0v-.28C588.89,795.6,590.41,737.72,634.07,694.06Zm-86.62,52.85A26.1,26.1,0,0,1,573.55,773h0v4.34a26.1,26.1,0,0,1-52.19,0h0V773A26.1,26.1,0,0,1,547.45,746.91ZM289.57,541a26.1,26.1,0,0,1,26.09,26.1h0V754.23a26.09,26.09,0,0,1-52.18,0h0V567.06A26.1,26.1,0,0,1,289.57,541Zm261.21-49.3a26.11,26.11,0,0,1,26.1,26.1h0V704.93a26.1,26.1,0,0,1-52.19,0h0V517.76A26.1,26.1,0,0,1,550.78,491.66ZM419.44,665.74a26.1,26.1,0,0,1,26.1,26.09h0v4.33a26.1,26.1,0,0,1-52.19,0h0v-4.33A26.1,26.1,0,0,1,419.44,665.74Zm.74-174.08a26.1,26.1,0,0,1,26.09,26.1h0V631.69a26.09,26.09,0,1,1-52.18,0h0V517.76A26.1,26.1,0,0,1,420.18,491.66ZM635.29,0c7.6,0,15.45.37,23.33,1.09A26.1,26.1,0,0,1,680.26,37.2,118.48,118.48,0,0,0,789.35,201.43,116.49,116.49,0,0,0,838,191a26.09,26.09,0,0,1,36.69,20.46A241.15,241.15,0,0,1,816.8,400a174.26,174.26,0,0,1,19.94,81.08c0,96.74-78.7,175.46-175.45,175.46a26.1,26.1,0,1,1,0-52.19A123.41,123.41,0,0,0,784.56,481.07c0-67.7-54.88-122.8-122.49-123.23.9,9,1.38,18.1,1.38,27.32,0,7.64-.33,15.39-1,23a270.34,270.34,0,0,1-11.24,57.64,26.09,26.09,0,0,1-49.83-15.51,219,219,0,0,0,9.07-46.51c.52-6.2.78-12.48.78-18.67C611.26,264.3,512.94,166,392.08,166a219.5,219.5,0,0,0-179.5,93.59,198.08,198.08,0,0,1,90.75,29.26,26.09,26.09,0,1,1-27.52,44.34,146.12,146.12,0,0,0-77.09-21.89c-80.8,0-146.54,65.73-146.54,146.53s65.74,146.53,146.54,146.53a26.1,26.1,0,0,1,0,52.19C89.14,656.53,0,567.38,0,457.81,0,365.6,63.13,287.87,148.44,265.55A270.82,270.82,0,0,1,428.91,116.36,239.83,239.83,0,0,1,635.29,0ZM621.57,52.67a187.7,187.7,0,0,0-138.72,76.79A272.6,272.6,0,0,1,651.61,305.9c3.22-.17,6.45-.28,9.68-.28a174.86,174.86,0,0,1,123.65,51.11,186.94,186.94,0,0,0,39.17-106.65,171,171,0,0,1-34.76,3.54c-94,0-170.47-76.48-170.47-170.48A172.37,172.37,0,0,1,621.57,52.67Z" style="fill:#fff;fill-rule:evenodd"/></g></g></g></g></svg>