<svg xmlns="http://www.w3.org/2000/svg" viewBox="0 0 940.36 937.28"><g id="Layer_2" data-name="Layer 2"><g id="Layer_3" data-name="Layer 3"><g id="hail_sun"><g id="Page-1"><path id="Hail_Sun-2" data-name="Hail Sun" d="M167.21,803.8a26.19,26.19,0,0,1,37,0c43.32,43.31,45.33,100.55,45.41,106.81v.47a26.2,26.2,0,0,1-52.4.15c0-1-1.08-41.4-30.06-70.38A26.2,26.2,0,0,1,167.21,803.8Zm210.49,0a26.19,26.19,0,0,1,37,37.05c-28.27,28.28-30,67.41-30.05,70.24v.16a26.27,26.27,0,0,1-26.2,25.94h-.16a26.12,26.12,0,0,1-26-26.11h0v-.47C332.38,904.35,334.39,847.11,377.7,803.8Zm-87,53.06a26.2,26.2,0,0,1,26.2,26.2h0v4.35a26.2,26.2,0,1,1-52.39,0h0v-4.35A26.2,26.2,0,0,1,290.74,856.86Zm345.88-99.63a26.19,26.19,0,0,1,37,37c-29.2,29.21-30,70-30.06,70.4a26.28,26.28,0,0,1-26.19,26h-.17a26.13,26.13,0,0,1-26-26.11h0v-.27C591.26,859.17,592.79,801.06,636.62,757.23Zm-87,53.06a26.2,26.2,0,0,1,26.2,26.2h0v4.35a26.2,26.2,0,0,1-52.4,0h0v-4.35A26.21,26.21,0,0,1,549.66,810.29ZM290.74,603.51a26.2,26.2,0,0,1,26.2,26.2h0V817.63a26.2,26.2,0,1,1-52.39,0h0V629.71A26.2,26.2,0,0,1,290.74,603.51ZM553,554a26.2,26.2,0,0,1,26.19,26.2h0V768.13a26.2,26.2,0,1,1-52.39,0h0V580.21A26.2,26.2,0,0,1,553,554ZM421.14,728.79A26.2,26.2,0,0,1,447.33,755h0v4.35a26.2,26.2,0,1,1-52.39,0h0V755A26.2,26.2,0,0,1,421.14,728.79ZM421.87,554a26.2,26.2,0,0,1,26.2,26.2h0v114.4a26.2,26.2,0,0,1-52.39,0h0V580.21A26.2,26.2,0,0,1,421.87,554ZM642,0a26.19,26.19,0,0,1,26.2,26.2h0v87.72a189.25,189.25,0,0,1,74.94,27.34h0L799.57,74a26.2,26.2,0,1,1,40.13,33.68h0l-56.43,67.25a190.45,190.45,0,0,1,40,69.05h0l86.38-15.24a26.2,26.2,0,0,1,9.1,51.61h0l-86.41,15.23c.08,2.31.18,4.62.18,7a190.43,190.43,0,0,1-13.92,71.68h0L894.43,418a26.2,26.2,0,1,1-26.2,45.37h0l-76-43.86c-.47.61-.93,1.22-1.42,1.83a175.51,175.51,0,0,1,49.28,122c0,97.14-79,176.17-176.16,176.17a26.2,26.2,0,0,1,0-52.4A123.9,123.9,0,0,0,787.72,543.37c0-68-55.1-123.29-123-123.72a273.2,273.2,0,0,1,1.38,27.43c0,7.66-.33,15.45-1,23.14a271.73,271.73,0,0,1-11.28,57.87,26.2,26.2,0,0,1-50-15.57,219.31,219.31,0,0,0,9.1-46.69c.52-6.23.79-12.54.79-18.75C613.73,325.74,515,227,393.66,227a220.4,220.4,0,0,0-180.23,94,199,199,0,0,1,91.13,29.38,26.2,26.2,0,1,1-27.63,44.52,146.74,146.74,0,0,0-77.41-22C118.4,372.9,52.4,438.89,52.4,520s66,147.12,147.12,147.12a26.2,26.2,0,0,1,0,52.4C89.5,719.54,0,630,0,520c0-92.59,63.39-170.63,149-193A272.56,272.56,0,0,1,487.52,191.29a190.29,190.29,0,0,1,13.22-16.35h0l-56.43-67.25A26.2,26.2,0,1,1,484.45,74h0l56.47,67.3a190.8,190.8,0,0,1,74.89-27.39h0V26.2A26.19,26.19,0,0,1,642,0Zm0,164.47a138.41,138.41,0,0,0-106.36,50.16A273.8,273.8,0,0,1,654.24,367.5c3.23-.17,6.47-.29,9.72-.29a175.13,175.13,0,0,1,85.4,22.16,137.62,137.62,0,0,0,12.09-17.53c0-.08.07-.18.13-.26a.9.9,0,0,1,.14-.2,137.34,137.34,0,0,0,18.35-68.84C780.07,226.41,718.14,164.47,642,164.47Z" style="fill:#fff;fill-rule:evenodd"/></g></g></g></g></svg>