<svg xmlns="http://www.w3.org/2000/svg" viewBox="0 0 850.48 774.54"><g id="Layer_2" data-name="Layer 2"><g id="Layer_3" data-name="Layer 3"><g id="rain_medium"><g id="Page-1"><path id="Rain_Medium-2" data-name="Rain Medium" d="M426.34,631.53a26.53,26.53,0,0,1,26.52,26.52h0v90a26.52,26.52,0,0,1-53,0h0v-90A26.52,26.52,0,0,1,426.34,631.53ZM294.32,566a26.52,26.52,0,0,1,26.53,26.52h0v90a26.53,26.53,0,0,1-53.05,0h0v-90A26.52,26.52,0,0,1,294.32,566Zm264,0a26.52,26.52,0,0,1,26.52,26.52h0v90a26.52,26.52,0,0,1-53,0h0v-90A26.52,26.52,0,0,1,558.35,566Zm-132-130.55A26.53,26.53,0,0,1,452.86,462h0v90a26.52,26.52,0,0,1-53,0h0V462A26.52,26.52,0,0,1,426.34,435.47ZM398.52,0C522.59,0,627.76,82.36,662.31,195.26c3.27-.17,6.55-.29,9.84-.29,98.33,0,178.33,80,178.33,178.34s-80,178.33-178.33,178.33a26.52,26.52,0,0,1,0-53A125.44,125.44,0,0,0,797.44,373.31c0-68.82-55.78-124.82-124.5-125.25a276.8,276.8,0,0,1,1.4,27.76c0,7.76-.34,15.65-1,23.43a275.39,275.39,0,0,1-11.43,58.59,26.52,26.52,0,1,1-50.64-15.77,222,222,0,0,0,9.21-47.27c.53-6.3.8-12.69.8-19C621.3,153,521.36,53,398.52,53a223.1,223.1,0,0,0-182.45,95.13,201.36,201.36,0,0,1,92.24,29.74,26.52,26.52,0,1,1-28,45.07A148.52,148.52,0,0,0,202,200.73C119.86,200.73,53,267.54,53,349.66S119.86,498.6,202,498.6a26.52,26.52,0,1,1,0,53c-111.37,0-202-90.6-202-202,0-93.72,64.17-172.73,150.88-195.42A276.3,276.3,0,0,1,398.52,0ZM294.32,370a26.52,26.52,0,0,1,26.53,26.52h0v90a26.53,26.53,0,0,1-53.05,0h0v-90A26.52,26.52,0,0,1,294.32,370Zm264,0a26.52,26.52,0,0,1,26.52,26.52h0v90a26.52,26.52,0,1,1-53,0h0v-90A26.52,26.52,0,0,1,558.35,370Z" style="fill:#fff;fill-rule:evenodd"/></g></g></g></g></svg>