<svg xmlns="http://www.w3.org/2000/svg" viewBox="0 0 843.16 768.55"><g id="Layer_2" data-name="Layer 2"><g id="Layer_3" data-name="Layer 3"><g id="rain_light"><g id="Page-1"><path id="Rain_Light-2" data-name="Rain Light" d="M422.66,714.41a26.31,26.31,0,0,1,26.3,26.3h0v1.55a26.3,26.3,0,0,1-52.59,0h0v-1.55A26.3,26.3,0,0,1,422.66,714.41ZM291.79,649.46a26.29,26.29,0,0,1,26.29,26.29h0v1.56a26.29,26.29,0,1,1-52.58,0h0v-1.56A26.29,26.29,0,0,1,291.79,649.46Zm261.75,0a26.29,26.29,0,0,1,26.29,26.29h0v1.56a26.29,26.29,0,0,1-52.58,0h0v-1.56A26.29,26.29,0,0,1,553.54,649.46ZM422.66,588.93A26.3,26.3,0,0,1,449,615.22h0v42.45a26.3,26.3,0,0,1-52.59,0h0V615.22A26.3,26.3,0,0,1,422.66,588.93ZM291.79,524a26.29,26.29,0,0,1,26.29,26.29h0v42.46a26.29,26.29,0,1,1-52.58,0h0V550.26A26.29,26.29,0,0,1,291.79,524Zm261.75,0a26.29,26.29,0,0,1,26.29,26.29h0v42.46a26.29,26.29,0,1,1-52.58,0h0V550.26A26.29,26.29,0,0,1,553.54,524ZM422.66,431.72A26.31,26.31,0,0,1,449,458h0v65.82a26.3,26.3,0,0,1-52.59,0h0V458A26.3,26.3,0,0,1,422.66,431.72ZM395.09,0c123,0,227.26,81.65,261.51,193.58,3.25-.17,6.5-.28,9.76-.28,97.49,0,176.8,79.31,176.8,176.79s-79.31,176.8-176.8,176.8a26.29,26.29,0,1,1,0-52.58A124.36,124.36,0,0,0,790.57,370.09c0-68.22-55.3-123.74-123.42-124.17.9,9.06,1.38,18.24,1.38,27.53,0,7.69-.33,15.5-1,23.22a272.35,272.35,0,0,1-11.33,58.08A26.29,26.29,0,1,1,606,339.13a219.66,219.66,0,0,0,9.13-46.86c.53-6.26.8-12.59.8-18.82,0-121.78-99.08-220.87-220.86-220.87A221.18,221.18,0,0,0,214.21,146.9a199.67,199.67,0,0,1,91.45,29.48,26.29,26.29,0,1,1-27.72,44.68A147.31,147.31,0,0,0,200.24,199c-81.42,0-147.66,66.24-147.66,147.65s66.24,147.66,147.66,147.66a26.29,26.29,0,1,1,0,52.58C89.83,546.89,0,457.07,0,346.65c0-92.92,63.62-171.24,149.58-193.73A273.93,273.93,0,0,1,395.09,0ZM291.79,366.77a26.3,26.3,0,0,1,26.29,26.29h0v65.82a26.29,26.29,0,1,1-52.58,0h0V393.06A26.3,26.3,0,0,1,291.79,366.77Zm261.75,0a26.3,26.3,0,0,1,26.29,26.29h0v65.82a26.29,26.29,0,1,1-52.58,0h0V393.06A26.3,26.3,0,0,1,553.54,366.77Z" style="fill:#fff;fill-rule:evenodd"/></g></g></g></g></svg>