<svg xmlns="http://www.w3.org/2000/svg" viewBox="0 0 890.01 889.33"><g id="Layer_2" data-name="Layer 2"><g id="Layer_3" data-name="Layer 3"><g id="rain_medium_moon"><g id="Page-1"><path id="Rain_Medium_Moon-2" data-name="Rain Medium Moon" d="M425.92,746.46A26.5,26.5,0,0,1,452.41,773h0v89.87a26.5,26.5,0,1,1-53,0h0V773A26.51,26.51,0,0,1,425.92,746.46ZM294,681a26.5,26.5,0,0,1,26.49,26.5h0v89.87a26.5,26.5,0,1,1-53,0h0V707.51A26.51,26.51,0,0,1,294,681Zm263.76,0a26.51,26.51,0,0,1,26.5,26.5h0v89.87a26.5,26.5,0,1,1-53,0h0V707.51A26.5,26.5,0,0,1,557.8,681ZM425.92,550.6a26.49,26.49,0,0,1,26.49,26.49h0V667a26.5,26.5,0,0,1-53,0h0V577.09A26.5,26.5,0,0,1,425.92,550.6ZM645.08,0c7.73,0,15.7.37,23.7,1.11a26.5,26.5,0,0,1,22,36.66A120.29,120.29,0,0,0,801.52,204.53a118.42,118.42,0,0,0,49.38-10.62,26.49,26.49,0,0,1,37.25,20.77A245,245,0,0,1,829.4,406.15a177,177,0,0,1,20.25,82.34c0,98.24-79.92,178.16-178.17,178.16a26.5,26.5,0,0,1,0-53A125.32,125.32,0,0,0,796.66,488.49c0-68.75-55.73-124.69-124.37-125.13.91,9.13,1.39,18.38,1.39,27.74,0,7.75-.33,15.63-1,23.4A275.2,275.2,0,0,1,661.29,473a26.5,26.5,0,1,1-50.6-15.75,221.57,221.57,0,0,0,9.2-47.22c.53-6.3.8-12.68.8-19,0-122.72-99.84-222.56-222.56-222.56a222.89,222.89,0,0,0-182.27,95A201,201,0,0,1,308,293.28a26.5,26.5,0,0,1-27.94,45,148.41,148.41,0,0,0-78.29-22.23c-82,0-148.79,66.75-148.79,148.79s66.75,148.79,148.79,148.79a26.5,26.5,0,1,1,0,53C90.52,666.65,0,576.13,0,464.87c0-93.63,64.11-172.56,150.73-195.23a275,275,0,0,1,284.8-151.48A243.5,243.5,0,0,1,645.08,0ZM294,485.14a26.5,26.5,0,0,1,26.49,26.5h0v89.87a26.5,26.5,0,1,1-53,0h0V511.64A26.51,26.51,0,0,1,294,485.14Zm263.76,0a26.51,26.51,0,0,1,26.5,26.5h0v89.87a26.5,26.5,0,1,1-53,0h0V511.64A26.5,26.5,0,0,1,557.8,485.14ZM631.16,53.48a190.56,190.56,0,0,0-140.86,78A276.77,276.77,0,0,1,661.66,310.62c3.27-.18,6.55-.29,9.82-.29a177.61,177.61,0,0,1,125.57,51.9,189.78,189.78,0,0,0,39.77-108.3,173.34,173.34,0,0,1-35.3,3.59c-95.44,0-173.09-77.65-173.09-173.1A174.84,174.84,0,0,1,631.16,53.48Z" style="fill:#fff;fill-rule:evenodd"/></g></g></g></g></svg>