<svg xmlns="http://www.w3.org/2000/svg" viewBox="0 0 950.61 950.65"><g id="Layer_2" data-name="Layer 2"><g id="Layer_3" data-name="Layer 3"><g id="rain_light_sun"><g id="Page-1"><path id="Rain_Light_Sun-2" data-name="Rain Light Sun" d="M425.73,896.11a26.48,26.48,0,0,1,26.48,26.49v1.56a26.48,26.48,0,1,1-53,0V922.6A26.49,26.49,0,0,1,425.73,896.11ZM293.91,830.69a26.49,26.49,0,0,1,26.48,26.49h0v1.56a26.49,26.49,0,0,1-53,0h0v-1.56A26.49,26.49,0,0,1,293.91,830.69Zm263.65,0A26.49,26.49,0,0,1,584,857.18h0v1.56a26.49,26.49,0,0,1-53,0h0v-1.56A26.49,26.49,0,0,1,557.56,830.69Zm-131.83-61a26.48,26.48,0,0,1,26.48,26.48h0V839a26.48,26.48,0,1,1-53,0h0V796.2A26.49,26.49,0,0,1,425.73,769.72ZM293.91,704.29a26.49,26.49,0,0,1,26.48,26.48h0v42.77a26.49,26.49,0,0,1-53,0h0V730.77A26.49,26.49,0,0,1,293.91,704.29Zm263.65,0A26.49,26.49,0,0,1,584,730.77h0v42.77a26.49,26.49,0,0,1-53,0h0V730.77A26.49,26.49,0,0,1,557.56,704.29ZM425.73,611.38a26.47,26.47,0,0,1,26.48,26.48h0v66.3a26.48,26.48,0,1,1-53,0h0v-66.3A26.48,26.48,0,0,1,425.73,611.38ZM649,0a26.48,26.48,0,0,1,26.49,26.48h0v88.69a191.17,191.17,0,0,1,75.75,27.63h0l57-68a26.48,26.48,0,1,1,40.58,34h0l-57.05,68a192.44,192.44,0,0,1,40.38,69.8h0l87.33-15.4a26.48,26.48,0,0,1,9.2,52.16h0l-87.36,15.4c.09,2.34.18,4.68.18,7a192.32,192.32,0,0,1-14.07,72.46h0l76.71,44.28a26.48,26.48,0,1,1-26.49,45.87h0l-76.8-44.34c-.47.62-.94,1.24-1.43,1.85A177.41,177.41,0,0,1,849.27,549.3c0,98.19-79.88,178.08-178.07,178.08a26.49,26.49,0,1,1,0-53A125.26,125.26,0,0,0,796.31,549.3c0-68.72-55.71-124.64-124.32-125.07.91,9.12,1.39,18.36,1.39,27.72,0,7.75-.33,15.62-1,23.39A275.11,275.11,0,0,1,661,533.85a26.49,26.49,0,0,1-50.58-15.74,221.61,221.61,0,0,0,9.2-47.2c.53-6.3.8-12.68.8-19,0-122.66-99.8-222.46-222.47-222.46a222.79,222.79,0,0,0-182.19,95,201.22,201.22,0,0,1,92.12,29.69,26.49,26.49,0,1,1-27.93,45A148.43,148.43,0,0,0,201.7,377C119.69,377,53,443.68,53,525.69S119.69,674.41,201.7,674.41a26.49,26.49,0,0,1,0,53C90.48,727.38,0,636.9,0,525.69c0-93.6,64.08-172.49,150.67-195.14A275.52,275.52,0,0,1,492.83,193.37a196.26,196.26,0,0,1,13.36-16.52h0l-57-68a26.48,26.48,0,1,1,40.58-34h0l57.08,68a192.81,192.81,0,0,1,75.71-27.68h0V26.48A26.48,26.48,0,0,1,649,0ZM293.91,546a26.49,26.49,0,0,1,26.48,26.49h0v66.29a26.49,26.49,0,1,1-53,0h0V572.44A26.49,26.49,0,0,1,293.91,546Zm263.65,0A26.49,26.49,0,0,1,584,572.44h0v66.29a26.49,26.49,0,1,1-53,0h0V572.44A26.49,26.49,0,0,1,557.56,546ZM649,166.27A139.92,139.92,0,0,0,541.47,217a276.73,276.73,0,0,1,119.9,154.54c3.27-.18,6.54-.29,9.83-.29a176.9,176.9,0,0,1,86.32,22.4,139.33,139.33,0,0,0,12.23-17.72,2.24,2.24,0,0,1,.13-.27.9.9,0,0,1,.14-.2,138.74,138.74,0,0,0,18.55-69.59C788.57,228.88,726,166.27,649,166.27Z" style="fill:#fff;fill-rule:evenodd"/></g></g></g></g></svg>