<svg xmlns="http://www.w3.org/2000/svg" viewBox="0 0 891.27 889.96"><g id="Layer_2" data-name="Layer 2"><g id="Layer_3" data-name="Layer 3"><g id="rain_heavy_moon"><g id="Page-1"><path id="Rain_Heavy_Moon-2" data-name="Rain Heavy Moon" d="M426.52,551.38a26.53,26.53,0,0,1,26.53,26.53h0V863.42a26.53,26.53,0,1,1-53.06,0h0V577.91A26.53,26.53,0,0,1,426.52,551.38ZM294.45,485.83A26.53,26.53,0,0,1,321,512.36h0V797.88a26.54,26.54,0,0,1-53.07,0h0V512.36A26.53,26.53,0,0,1,294.45,485.83Zm264.14,0a26.53,26.53,0,0,1,26.53,26.53h0V797.88a26.53,26.53,0,1,1-53.06,0h0V512.36A26.53,26.53,0,0,1,558.59,485.83ZM646,0c7.73,0,15.72.37,23.72,1.11a26.52,26.52,0,0,1,22,36.71,120.48,120.48,0,0,0,110.93,167,118.6,118.6,0,0,0,49.44-10.65A26.54,26.54,0,0,1,889.41,215a245.41,245.41,0,0,1-58.84,191.74,177.16,177.16,0,0,1,20.28,82.45c0,98.38-80,178.41-178.41,178.41a26.53,26.53,0,1,1,0-53.06A125.49,125.49,0,0,0,797.79,489.18c0-68.84-55.81-124.87-124.55-125.3.91,9.14,1.39,18.4,1.39,27.77,0,7.77-.33,15.66-1,23.44a274.84,274.84,0,0,1-11.43,58.61,26.53,26.53,0,0,1-50.67-15.77,222.35,222.35,0,0,0,9.22-47.29c.53-6.3.8-12.7.8-19,0-122.89-100-222.87-222.88-222.87A223.22,223.22,0,0,0,216.16,264a201.37,201.37,0,0,1,92.28,29.75,26.53,26.53,0,1,1-28,45.09,148.61,148.61,0,0,0-78.39-22.27c-82.16,0-149,66.85-149,149s66.85,149,149,149a26.53,26.53,0,0,1,0,53.06C90.65,667.59,0,577,0,465.52,0,371.77,64.2,292.73,150.94,270A275.44,275.44,0,0,1,436.15,118.32,243.86,243.86,0,0,1,646,0Zm-14,53.55a190.83,190.83,0,0,0-141,78.1A277.16,277.16,0,0,1,662.6,311.07c3.27-.19,6.55-.3,9.84-.3a177.89,177.89,0,0,1,125.74,52A190,190,0,0,0,838,254.29a173,173,0,0,1-35.34,3.6c-95.58,0-173.34-77.76-173.34-173.34A175.52,175.52,0,0,1,632.05,53.55Z" style="fill:#fff;fill-rule:evenodd"/></g></g></g></g></svg>