<svg xmlns="http://www.w3.org/2000/svg" viewBox="0 0 880.58 883.78"><g id="Layer_2" data-name="Layer 2"><g id="Layer_3" data-name="Layer 3"><g id="snow_1_moon"><g id="Page-1"><path id="Snow_1_Moon-2" data-name="Snow 1 Moon" d="M294.28,705.48a26.2,26.2,0,0,1,26.21,26.21h0l-1.48,9.8a7.15,7.15,0,0,0,11.57,6.62h0l6.57-5.32a7.73,7.73,0,0,1,1.55-1,26.21,26.21,0,0,1,24.38,46.37,7.55,7.55,0,0,1-1.86.75h0l-.29.08a7.15,7.15,0,0,0-.07,13.8,7.37,7.37,0,0,1,2,.86,26.21,26.21,0,0,1-26.07,45.44,7.32,7.32,0,0,1-1.61-1.16h0l-4-3.66a7.16,7.16,0,0,0-11.89,6.48h0l1,6a7.47,7.47,0,0,1,.13,1.63,26.21,26.21,0,0,1-52.4,0,7.42,7.42,0,0,1,.14-1.69h0l1.57-8.67a7.15,7.15,0,0,0-11.41-6.94h0l-7.69,5.94a26.21,26.21,0,0,1-25.22-45.95,7.32,7.32,0,0,1,1.88-.75h0l.25-.07a7.16,7.16,0,0,0,.13-13.8h-.06a7.92,7.92,0,0,1-2-.86,26.21,26.21,0,0,1,26.05-45.45,7.68,7.68,0,0,1,1.62,1.15h0l4,3.65a7.15,7.15,0,0,0,11.86-6.51h0l-1-6a7.47,7.47,0,0,1-.13-1.63A26.21,26.21,0,0,1,294.28,705.48Zm258.09,0a26.2,26.2,0,0,1,26.21,26.21h0l-1.48,9.8a7.15,7.15,0,0,0,11.57,6.62h0l6.58-5.32a7.39,7.39,0,0,1,1.54-1,26.21,26.21,0,0,1,24.38,46.37,7.64,7.64,0,0,1-1.85.75h0l-.3.08a7.15,7.15,0,0,0-.07,13.8,7.24,7.24,0,0,1,2,.86,26.21,26.21,0,0,1-26.07,45.44,7.56,7.56,0,0,1-1.61-1.16h0l-4-3.66a7.16,7.16,0,0,0-11.89,6.48h0l1,6a7.47,7.47,0,0,1,.13,1.63,26.21,26.21,0,0,1-52.4,0,7.42,7.42,0,0,1,.14-1.69h0l1.57-8.67a7.15,7.15,0,0,0-11.41-6.94h0l-7.69,5.94a26.22,26.22,0,0,1-25.23-45.95,7.68,7.68,0,0,1,1.89-.75h0l.25-.07a7.15,7.15,0,0,0,.13-13.8h-.06a7.92,7.92,0,0,1-2-.86,26.21,26.21,0,0,1,26.05-45.45,7.68,7.68,0,0,1,1.62,1.15h0l4,3.65a7.15,7.15,0,0,0,11.86-6.51h0l-1-6a8.15,8.15,0,0,1-.13-1.63A26.22,26.22,0,0,1,552.37,705.48ZM421.4,540.8A26.21,26.21,0,0,1,447.61,567h0l-1.48,9.79a7.15,7.15,0,0,0,11.57,6.63h0l6.57-5.33a7.89,7.89,0,0,1,1.55-1,26.22,26.22,0,0,1,24.38,46.38,7.94,7.94,0,0,1-1.86.74h0l-.29.08a7.15,7.15,0,0,0-.06,13.8,7.8,7.8,0,0,1,2,.87,26.21,26.21,0,0,1-26.06,45.43,7.17,7.17,0,0,1-1.63-1.15h0l-4-3.66a7.15,7.15,0,0,0-11.89,6.47h0l1,6a8.78,8.78,0,0,1,.13,1.62,26.21,26.21,0,0,1-52.4,0,8.69,8.69,0,0,1,.13-1.69h0l1.59-8.68a7.16,7.16,0,0,0-11.42-6.94h0l-7.69,5.94a26.22,26.22,0,0,1-25.23-46,7.53,7.53,0,0,1,1.89-.75h0l.25-.07a7.15,7.15,0,0,0,.13-13.8h-.07a7.51,7.51,0,0,1-2-.86,26.21,26.21,0,0,1,26.05-45.44,7.64,7.64,0,0,1,1.62,1.14h0l4,3.65a7.15,7.15,0,0,0,11.86-6.5h0l-1-6a8.18,8.18,0,0,1-.12-1.64A26.21,26.21,0,0,1,421.4,540.8ZM638.25,0c7.64,0,15.53.37,23.44,1.1a26.2,26.2,0,0,1,21.74,36.27,119,119,0,0,0,109.6,165,117.11,117.11,0,0,0,48.85-10.52,26.21,26.21,0,0,1,36.86,20.55,242.46,242.46,0,0,1-58.13,189.45,175,175,0,0,1,20,81.46c0,97.2-79.07,176.28-176.27,176.28a26.22,26.22,0,1,1,0-52.43A124,124,0,0,0,788.22,483.31c0-68-55.14-123.37-123.06-123.8.9,9,1.38,18.18,1.38,27.44,0,7.68-.33,15.47-1,23.16A272,272,0,0,1,654.28,468a26.21,26.21,0,0,1-50.06-15.58,219.69,219.69,0,0,0,9.1-46.73c.53-6.23.79-12.54.79-18.76,0-121.41-98.78-220.2-220.2-220.2a220.56,220.56,0,0,0-180.34,94,199.1,199.1,0,0,1,91.17,29.39,26.21,26.21,0,1,1-27.64,44.55,146.89,146.89,0,0,0-77.45-22c-81.18,0-147.22,66-147.22,147.21s66,147.22,147.22,147.22a26.22,26.22,0,0,1,0,52.43C89.56,659.59,0,570,0,459.94c0-92.63,63.43-170.72,149.13-193.16A272.11,272.11,0,0,1,430.91,116.9,241,241,0,0,1,638.25,0ZM624.47,52.91a188.54,188.54,0,0,0-139.36,77.16A273.85,273.85,0,0,1,654.65,307.33c3.23-.18,6.47-.29,9.72-.29A175.73,175.73,0,0,1,788.6,358.39,187.74,187.74,0,0,0,828,251.24,171.11,171.11,0,0,1,793,254.8c-94.44,0-171.26-76.83-171.26-171.27A173.2,173.2,0,0,1,624.47,52.91Z" style="fill:#fff;fill-rule:evenodd"/></g></g></g></g></svg>