<svg xmlns="http://www.w3.org/2000/svg" viewBox="0 0 847.5 771.83"><g id="Layer_2" data-name="Layer 2"><g id="Layer_3" data-name="Layer 3"><g id="snow_1"><g id="Page-1"><path id="Snow_1-2" data-name="Snow 1" d="M293.29,592.06a26.43,26.43,0,0,1,26.43,26.43h0v19.78l17.52-9.18a26.43,26.43,0,0,1,24.52,46.83h0l-13.44,7,13.18,7.52a26.43,26.43,0,1,1-26.21,45.9h0l-15.57-8.89V745.4a26.43,26.43,0,1,1-52.86,0h0V725.62l-17.52,9.18A26.43,26.43,0,1,1,224.82,688h0l13.42-7-13.16-7.51a26.43,26.43,0,0,1,26.21-45.91h0l15.57,8.9V618.49A26.44,26.44,0,0,1,293.29,592.06Zm263.55,0a26.42,26.42,0,0,1,26.43,26.42h0v19.78l17.53-9.18a26.43,26.43,0,0,1,24.52,46.82h0l-13.44,7,13.18,7.52a26.43,26.43,0,0,1-26.22,45.9h0l-15.57-8.89V745.4a26.43,26.43,0,1,1-52.85,0h0V725.63l-17.52,9.18A26.43,26.43,0,0,1,488.37,688h0l13.43-7-13.16-7.53a26.43,26.43,0,1,1,26.22-45.89h0l15.56,8.88V618.49A26.42,26.42,0,0,1,556.84,592.07ZM424.83,430a26.42,26.42,0,0,1,26.43,26.42h0v19.78L468.78,467a26.43,26.43,0,1,1,24.53,46.82h0l-13.44,7L493,528.35a26.43,26.43,0,1,1-26.21,45.91h0l-15.57-8.9v17.93a26.43,26.43,0,1,1-52.85,0h0V563.51l-17.52,9.18a26.43,26.43,0,0,1-24.52-46.83h0l13.42-7-13.16-7.52a26.42,26.42,0,0,1,26.21-45.89h0l15.57,8.89V456.38A26.42,26.42,0,0,1,424.83,430ZM397.12,0C520.75,0,625.56,82.07,660,194.58c3.27-.18,6.53-.29,9.81-.29,98,0,177.71,79.72,177.71,177.71S767.78,549.71,669.79,549.71a26.43,26.43,0,1,1,0-52.86A125,125,0,0,0,794.64,372c0-68.57-55.59-124.38-124.06-124.81.91,9.1,1.39,18.33,1.39,27.66,0,7.74-.33,15.6-1,23.35a273.29,273.29,0,0,1-11.38,58.38,26.43,26.43,0,1,1-50.47-15.71,220.55,220.55,0,0,0,9.18-47.1c.53-6.28.8-12.65.8-18.92,0-122.4-99.59-222-222-222a222.31,222.31,0,0,0-181.81,94.79,200.87,200.87,0,0,1,91.92,29.63,26.43,26.43,0,1,1-27.86,44.92A148,148,0,0,0,201.27,200C119.44,200,52.86,266.6,52.86,348.43s66.58,148.42,148.41,148.42a26.43,26.43,0,0,1,0,52.86C90.29,549.71,0,459.42,0,348.43,0,255,63.94,176.31,150.35,153.7A275.32,275.32,0,0,1,397.12,0Z" style="fill:#fff;fill-rule:evenodd"/></g></g></g></g></svg>