<svg xmlns="http://www.w3.org/2000/svg" viewBox="0 0 696.96 696.96"><g id="Layer_2" data-name="Layer 2"><g id="Layer_3" data-name="Layer 3"><g id="sun"><g id="Page-1"><path id="Sun-2" data-name="Sun" d="M350.8,562.9c10.52.37,18.71,9.34,18.71,19.87v94.31c0,10.52-8.19,19.49-18.71,19.87a19.42,19.42,0,0,1-20.12-19.41V582.3A19.41,19.41,0,0,1,350.8,562.9ZM198,501.23a19.42,19.42,0,0,1,0,27.46L130.67,596a19.42,19.42,0,0,1-27.46-27.46l67.35-67.34A19.41,19.41,0,0,1,198,501.23Zm331-2,67,67a19.42,19.42,0,1,1-27.46,27.46l-67.34-67.34a19.42,19.42,0,0,1,.5-27.95C509.43,491.28,521.57,491.83,529,499.27ZM345.93,166.12c102.57-1.4,186.31,82.33,184.91,184.9C529.49,449.39,449.4,529.48,351,530.83c-102.57,1.41-186.31-82.32-184.91-184.89C167.47,247.57,247.56,167.48,345.93,166.12ZM351.72,205C270,203.17,203.17,270,205,351.72,206.67,428.16,268.82,490.3,345.27,492c81.69,1.8,148.52-65,146.72-146.73C490.3,268.81,428.16,206.67,351.72,205ZM114.66,330.68a19.41,19.41,0,0,1,19.4,20.12c-.37,10.52-9.34,18.71-19.87,18.71H19.88C9.35,369.51.39,361.32,0,350.8a19.42,19.42,0,0,1,19.41-20.12ZM697,346.87h0a19.42,19.42,0,0,1-19.42,19.41H582.3a19.41,19.41,0,0,1-19.41-19.41h0a19.41,19.41,0,0,1,19.41-19.42h95.24A19.42,19.42,0,0,1,697,346.87ZM128.71,103.53l67,67A19.42,19.42,0,1,1,168.27,198l-67.34-67.34a19.42,19.42,0,0,1,.5-27.95C109.14,95.54,121.27,96.09,128.71,103.53Zm465.55-2.08c7.16,7.71,6.6,19.83-.84,27.27l-67,67A19.42,19.42,0,1,1,499,168.27l67.35-67.34A19.42,19.42,0,0,1,594.26,101.45ZM347.58,0c10.52.38,18.71,9.34,18.71,19.87v94.31c0,10.53-8.19,19.5-18.71,19.87a19.41,19.41,0,0,1-20.13-19.4V19.42A19.42,19.42,0,0,1,347.58,0Z" style="fill:#fff;fill-rule:evenodd"/></g></g></g></g></svg>