<svg xmlns="http://www.w3.org/2000/svg" viewBox="0 0 882.65 882.65"><g id="Layer_2" data-name="Layer 2"><g id="Layer_3" data-name="Layer 3"><g id="thunder_moon"><g id="Page-1"><path id="Thunder_Moon-2" data-name="Thunder Moon" d="M370.63,466.52l154.17.05a26.27,26.27,0,0,1,23.52,38h0l-32.64,65.68,52.74-3.94a26.27,26.27,0,0,1,23,41.89h0L395,872.06a26.27,26.27,0,0,1-47.08-19.44h0l22.65-157-78.4,1.75a26.28,26.28,0,0,1-24.61-36.92h0l79-178.29a26.29,26.29,0,0,1,24-15.63h0Zm17.09,52.56L332.39,643.89l68.05-1.51H401a26.28,26.28,0,0,1,26,30h0l-12.29,85.15L514.93,623l-41.38,3.09a26.27,26.27,0,0,1-25.48-37.9h0l34.33-69ZM639.75,0c7.66,0,15.56.37,23.49,1.1A26.27,26.27,0,0,1,685,37.46,119.31,119.31,0,0,0,794.89,202.85a117.37,117.37,0,0,0,49-10.55,26.28,26.28,0,0,1,36.94,20.6,242.91,242.91,0,0,1-58.26,189.89,175.53,175.53,0,0,1,20.08,81.66c0,97.42-79.26,176.68-176.69,176.68a26.28,26.28,0,1,1,0-52.55A124.28,124.28,0,0,0,790.07,484.45c0-68.18-55.27-123.66-123.35-124.09a274.73,274.73,0,0,1,1.39,27.5c0,7.69-.34,15.5-1,23.21a272.8,272.8,0,0,1-11.31,58.05,26.28,26.28,0,0,1-50.19-15.62,219.38,219.38,0,0,0,9.13-46.84c.53-6.24.8-12.57.8-18.8,0-121.7-99-220.72-220.73-220.72A221,221,0,0,0,214.07,261.4a199.4,199.4,0,0,1,91.39,29.45,26.28,26.28,0,0,1-27.71,44.66,147.19,147.19,0,0,0-77.64-22.05c-81.36,0-147.56,66.2-147.56,147.56s66.2,147.56,147.56,147.56a26.28,26.28,0,1,1,0,52.55C89.77,661.13,0,571.37,0,461,0,368.17,63.58,289.9,149.48,267.41A272.71,272.71,0,0,1,431.92,117.18,241.51,241.51,0,0,1,639.75,0ZM625.94,53a189,189,0,0,0-139.7,77.33A274.47,274.47,0,0,1,656.18,308.05c3.25-.18,6.5-.29,9.75-.29a176.14,176.14,0,0,1,124.52,51.47,188.09,188.09,0,0,0,39.44-107.4,171.82,171.82,0,0,1-35,3.57c-94.66,0-171.66-77-171.66-171.67A172.88,172.88,0,0,1,625.94,53Z" style="fill:#fff;fill-rule:evenodd"/></g></g></g></g></svg>