<svg xmlns="http://www.w3.org/2000/svg" viewBox="0 0 854.55 778.94"><g id="Layer_2" data-name="Layer 2"><g id="Layer_3" data-name="Layer 3"><g id="thunder"><g id="Page-1"><path id="Thunder-2" data-name="Thunder" d="M375.88,356.92l156.36,0a26.64,26.64,0,0,1,23.85,38.51h0L523,462.07l53.49-4a26.65,26.65,0,0,1,23.36,42.49h0L400.62,768.2a26.65,26.65,0,0,1-47.75-19.72h0l23-159.23L296.33,591a26.65,26.65,0,0,1-25-37.44h0l80.14-180.82a26.66,26.66,0,0,1,24.36-15.84h0Zm17.33,53.3L337.11,536.8l69-1.54h.59a26.65,26.65,0,0,1,26.38,30.45h0l-12.46,86.36L522.22,515.58l-42,3.13a26.65,26.65,0,0,1-25.84-38.44h0l34.81-70ZM400.43,0C525.09,0,630.76,82.76,665.48,196.2c3.29-.18,6.58-.29,9.89-.29,98.8,0,179.18,80.38,179.18,179.18s-80.38,179.2-179.18,179.2a26.65,26.65,0,0,1,0-53.3,126,126,0,0,0,125.89-125.9c0-69.14-56-125.41-125.09-125.84.91,9.17,1.4,18.48,1.4,27.89,0,7.8-.34,15.72-1,23.54a276,276,0,0,1-11.48,58.87,26.65,26.65,0,1,1-50.89-15.84,222.35,222.35,0,0,0,9.26-47.49c.53-6.34.8-12.76.8-19.08,0-123.42-100.41-223.84-223.84-223.84A224.17,224.17,0,0,0,217.1,148.88a202.35,202.35,0,0,1,92.69,29.88,26.65,26.65,0,0,1-28.09,45.29A149.28,149.28,0,0,0,203,201.69c-82.52,0-149.65,67.13-149.65,149.65S120.43,501,203,501a26.65,26.65,0,1,1,0,53.3C91,554.29,0,463.24,0,351.34,0,257.16,64.48,177.78,151.6,155A277.63,277.63,0,0,1,400.43,0Z" style="fill:#fff;fill-rule:evenodd"/></g></g></g></g></svg>