<svg xmlns="http://www.w3.org/2000/svg" viewBox="0 0 843.72 771.98"><g id="Layer_2" data-name="Layer 2"><g id="Layer_3" data-name="Layer 3"><g id="wind_mix"><g id="Page-1"><path id="WinteryMix" d="M423.17,717.81a26.32,26.32,0,0,1,26.31,26.31h0v1.55a26.31,26.31,0,1,1-52.62,0h0v-1.55A26.32,26.32,0,0,1,423.17,717.81ZM554.36,589.43a26.3,26.3,0,0,1,26.31,26.31h0v19.69l17.45-9.14a26.31,26.31,0,1,1,24.41,46.61h0l-13.37,7,13.11,7.49a26.31,26.31,0,1,1-26.11,45.69h0l-15.49-8.84v17.84a26.31,26.31,0,1,1-52.62,0h0V722.39l-17.44,9.14a26.31,26.31,0,0,1-24.41-46.62h0l13.36-7-13.1-7.49a26.31,26.31,0,0,1,26.1-45.69h0l15.49,8.84V615.74A26.31,26.31,0,0,1,554.36,589.43ZM292,647.65A26.32,26.32,0,0,1,318.29,674h0v1.55a26.31,26.31,0,0,1-52.62,0h0V674A26.32,26.32,0,0,1,292,647.65Zm131-216a26.31,26.31,0,0,1,26.31,26.31h0V477.6l17.44-9.13a26.31,26.31,0,1,1,24.42,46.61h0l-13.38,7,13.11,7.48a26.31,26.31,0,0,1-26.09,45.7h0l-15.5-8.86v17.85a26.31,26.31,0,0,1-52.62,0h0V564.57l-17.43,9.14a26.31,26.31,0,1,1-24.42-46.61h0l13.37-7L355,512.6a26.31,26.31,0,1,1,26.1-45.69h0l15.49,8.85V457.91A26.31,26.31,0,0,1,422.94,431.6ZM292,507.34a26.31,26.31,0,0,1,26.31,26.31h0v1.54a26.31,26.31,0,0,1-52.62,0h0v-1.54A26.32,26.32,0,0,1,292,507.34Zm261.93-13.48a26.31,26.31,0,0,1,26.31,26.31h0v1.55a26.31,26.31,0,0,1-52.62,0h0v-1.55A26.31,26.31,0,0,1,553.91,493.86ZM395.35,0C518.43,0,622.77,81.71,657,193.71c3.25-.17,6.5-.29,9.76-.29,97.55,0,176.92,79.37,176.92,176.92S764.35,547.26,666.8,547.26a26.31,26.31,0,1,1,0-52.62,124.45,124.45,0,0,0,124.3-124.3c0-68.27-55.34-123.82-123.51-124.26A275.74,275.74,0,0,1,669,273.63c0,7.7-.34,15.52-1,23.24A272.83,272.83,0,0,1,656.67,355a26.31,26.31,0,1,1-50.25-15.64,219.24,219.24,0,0,0,9.14-46.88c.53-6.27.8-12.6.8-18.84,0-121.86-99.14-221-221-221a221.33,221.33,0,0,0-181,94.38,199.76,199.76,0,0,1,91.51,29.49,26.31,26.31,0,0,1-27.74,44.72,147.38,147.38,0,0,0-77.74-22.08c-81.48,0-147.76,66.28-147.76,147.75S118.9,494.64,200.38,494.64a26.31,26.31,0,1,1,0,52.62C89.89,547.26,0,457.37,0,346.88,0,253.9,63.66,175.53,149.68,153A274.11,274.11,0,0,1,395.35,0ZM292,367a26.31,26.31,0,0,1,26.31,26.31h0v1.55a26.31,26.31,0,0,1-52.62,0h0v-1.55A26.32,26.32,0,0,1,292,367Z" style="fill:#fff;fill-rule:evenodd"/></g></g></g></g></svg>