<svg xmlns="http://www.w3.org/2000/svg" viewBox="0 0 880.5 880.83"><g id="Layer_2" data-name="Layer 2"><g id="Layer_3" data-name="Layer 3"><g id="wind_moon"><g id="Page-1"><path id="Wind_Moon-2" data-name="Wind Moon" d="M289.71,730.23l264,1a26.22,26.22,0,0,1-.11,52.43h-.1L289.6,782.66a22.87,22.87,0,0,0,.11,45.74,22.57,22.57,0,0,0,9.9-2.24,26.21,26.21,0,1,1,22.81,47.2,74.5,74.5,0,0,1-32.71,7.47,75.3,75.3,0,1,1,0-150.6ZM638.19,0c7.64,0,15.53.37,23.44,1.1a26.21,26.21,0,0,1,21.74,36.27A119,119,0,0,0,793,202.35a117,117,0,0,0,48.85-10.52,26.22,26.22,0,0,1,36.86,20.56,242.42,242.42,0,0,1-58,189.24,175.2,175.2,0,0,1,19.86,81.13c0,97.15-79,176.18-176.13,176.25h0l-263.93,1a75.3,75.3,0,1,1,32.61-143.13,26.21,26.21,0,0,1-22.79,47.21,22.88,22.88,0,1,0-9.93,43.5h0l263.83-1h.11A124,124,0,0,0,788.14,482.76c0-68-55.13-123.36-123-123.79.9,9,1.38,18.18,1.38,27.44,0,7.67-.33,15.47-1,23.15a272,272,0,0,1-11.29,57.91,26.21,26.21,0,0,1-50.06-15.58,219.72,219.72,0,0,0,9.1-46.72c.53-6.23.8-12.54.8-18.76,0-104.33-73-191.87-170.52-214.46a25.75,25.75,0,0,1-7.73-1.67,219.81,219.81,0,0,0-222.26,90,198.9,198.9,0,0,1,91.16,29.39,26.21,26.21,0,1,1-27.64,44.55,146.77,146.77,0,0,0-77.44-22c-81.17,0-147.21,66-147.21,147.2s66,147.2,147.21,147.2a26.22,26.22,0,0,1,0,52.43C89.55,659,0,569.47,0,459.39c0-92.63,63.42-170.71,149.11-193.14A272,272,0,0,1,431.17,116.43,240.92,240.92,0,0,1,638.19,0ZM624.41,52.91a188.55,188.55,0,0,0-139.06,76.74A273.75,273.75,0,0,1,654.58,306.79c3.24-.17,6.48-.28,9.73-.28a175.66,175.66,0,0,1,124.44,51.56,187.83,187.83,0,0,0,39.12-106.85A171,171,0,0,1,793,254.78c-94.42,0-171.24-76.83-171.24-171.25A173.12,173.12,0,0,1,624.41,52.91Z" style="fill:#fff;fill-rule:evenodd"/></g></g></g></g></svg>