<svg xmlns="http://www.w3.org/2000/svg" viewBox="0 0 939 939.88"><g id="Layer_2" data-name="Layer 2"><g id="Layer_3" data-name="Layer 3"><g id="wind_sun"><g id="Page-1"><path id="Wind_Sun-2" data-name="Wind Sun" d="M289.13,789.58l263.52,1a26.16,26.16,0,0,1-.1,52.32h-.1L289,841.9a22.83,22.83,0,0,0,.1,45.66,22.6,22.6,0,0,0,9.89-2.24,26.16,26.16,0,0,1,22.77,47.11,75.16,75.16,0,1,1-32.66-142.85ZM138,732a74.52,74.52,0,0,1,32.64,7.45,26.16,26.16,0,1,1-22.74,47.11A22.84,22.84,0,1,0,138,830a26.16,26.16,0,0,1,0,52.32A75.15,75.15,0,1,1,138,732ZM641.08,0a26.16,26.16,0,0,1,26.16,26.16h0v87.61a188.75,188.75,0,0,1,74.83,27.29h0L798.42,73.9a26.16,26.16,0,1,1,40.07,33.63h0L782.15,174.7A190.2,190.2,0,0,1,822,243.64h0l86.26-15.21A26.16,26.16,0,1,1,917.38,280h0l-86.29,15.21c.08,2.31.18,4.61.18,6.94a190.14,190.14,0,0,1-13.9,71.58h0l75.77,43.74A26.16,26.16,0,1,1,867,462.74h0l-75.86-43.8c-.48.61-.93,1.22-1.42,1.83A175.23,175.23,0,0,1,838.91,542.6c0,96.95-78.85,175.83-175.78,175.9h0l-263.42,1A75.15,75.15,0,1,1,432.23,576.7a26.16,26.16,0,1,1-22.74,47.11,22.84,22.84,0,1,0-9.91,43.42h0l263.32-1h.1A123.73,123.73,0,0,0,786.59,542.6c0-67.88-55-123.12-122.8-123.55q1.35,13.51,1.37,27.39c0,7.65-.33,15.43-1,23.11a271.71,271.71,0,0,1-11.26,57.79,26.16,26.16,0,0,1-50-15.55,218.74,218.74,0,0,0,9.08-46.63c.53-6.22.79-12.52.79-18.72,0-121.17-98.57-219.75-219.74-219.75a220.05,220.05,0,0,0-180,93.84,198.59,198.59,0,0,1,91,29.33,26.16,26.16,0,1,1-27.59,44.46,146.54,146.54,0,0,0-77.3-21.95c-81,0-146.91,65.9-146.91,146.9s65.91,146.92,146.91,146.92a26.16,26.16,0,1,1,0,52.32C89.37,718.51,0,629.13,0,519.27,0,426.82,63.3,348.9,148.83,326.52a272.14,272.14,0,0,1,338-135.5A188,188,0,0,1,500,174.7h0l-56.34-67.17A26.16,26.16,0,0,1,483.75,73.9h0l56.39,67.21a190.28,190.28,0,0,1,74.78-27.34h0V26.16A26.16,26.16,0,0,1,641.08,0Zm0,164.24a138.25,138.25,0,0,0-106.22,50.09A273.3,273.3,0,0,1,653.29,367c3.24-.18,6.47-.29,9.71-.29a174.78,174.78,0,0,1,85.28,22.13,136.94,136.94,0,0,0,12.07-17.51h0l.13-.26a.9.9,0,0,1,.14-.2A137.05,137.05,0,0,0,779,302.11C779,226.09,717.11,164.24,641.08,164.24Z" style="fill:#fff;fill-rule:evenodd"/></g></g></g></g></svg>