<svg xmlns="http://www.w3.org/2000/svg" viewBox="0 0 895.63 670.86"><g id="Layer_2" data-name="Layer 2"><g id="Layer_3" data-name="Layer 3"><g id="cloud_moon"><g id="Page-1"><path id="Cloud_Moon-2" data-name="Cloud Moon" d="M675.73,617.54H203.06c-82.56,0-149.74-67.17-149.74-149.73S120.5,318.07,203.06,318.07a149.31,149.31,0,0,1,78.78,22.38A26.66,26.66,0,0,0,310,295.13a202.55,202.55,0,0,0-92.73-29.89,224.29,224.29,0,0,1,183.42-95.63c123.5,0,224,100.47,224,224,0,6.32-.27,12.74-.8,19.08a223.36,223.36,0,0,1-9.27,47.53A26.66,26.66,0,1,0,665.46,476,276.94,276.94,0,0,0,677,417.13c.65-7.83,1-15.75,1-23.56,0-9.42-.49-18.73-1.41-27.91,69.08.44,125.16,56.73,125.16,125.92a126.11,126.11,0,0,1-126,126M635.15,53.82A175.22,175.22,0,0,0,632.4,85c0,96.05,78.13,174.2,174.18,174.2a173.94,173.94,0,0,0,35.52-3.62,190.91,190.91,0,0,1-40,109,178.68,178.68,0,0,0-126.35-52.23c-3.3,0-6.6.11-9.89.3A278.57,278.57,0,0,0,493.4,132.29,191.79,191.79,0,0,1,635.15,53.82M895.63,246.48A241.34,241.34,0,0,0,893.76,216a26.64,26.64,0,0,0-37.49-20.9,119.24,119.24,0,0,1-49.69,10.69A121.05,121.05,0,0,1,695.12,38,26.67,26.67,0,0,0,673,1.12C665,.37,656.93,0,649.16,0A245.06,245.06,0,0,0,438.28,118.91a276.71,276.71,0,0,0-286.6,152.44C64.51,294.17,0,373.58,0,467.81c0,112,91.09,203.05,203.06,203.05H675.73c98.86,0,179.28-80.42,179.28-179.28a178.1,178.1,0,0,0-20.37-82.86,244.09,244.09,0,0,0,61-162.24" style="fill:#404040;fill-rule:evenodd"/></g></g></g></g></svg>