<svg xmlns="http://www.w3.org/2000/svg" viewBox="0 0 880.98 822.6"><g id="Layer_2" data-name="Layer 2"><g id="Layer_3" data-name="Layer 3"><g id="fog_moon"><g id="Page-1"><path id="Fog_Moon-2" data-name="Fog Moon" d="M679.63,770.15V822.6H157.57V770.15ZM653.4,687.72a26.23,26.23,0,1,1,0,52.45H183.79a26.23,26.23,0,0,1,0-52.45H653.4ZM638.54,0c7.64,0,15.54.37,23.45,1.1a26.22,26.22,0,0,1,21.76,36.29A119.06,119.06,0,0,0,793.39,202.46a117,117,0,0,0,48.87-10.52,26.24,26.24,0,0,1,36.88,20.57A242.56,242.56,0,0,1,821,402a175.1,175.1,0,0,1,20,81.5c0,97.24-79.11,176.35-176.36,176.35H199.74C89.6,659.89,0,570.29,0,460.15c0-92.68,63.46-170.8,149.2-193.24A272.25,272.25,0,0,1,431.11,117,241.05,241.05,0,0,1,638.54,0ZM394.09,166.83A220.64,220.64,0,0,0,213.67,260.9a199.27,199.27,0,0,1,91.21,29.4,26.23,26.23,0,0,1-27.65,44.58,146.86,146.86,0,0,0-77.49-22c-81.22,0-147.29,66.07-147.29,147.28s66.07,147.28,147.29,147.28H664.67a124,124,0,0,0,123.9-123.89c0-68.06-55.16-123.43-123.11-123.87a274,274,0,0,1,1.38,27.47c0,7.67-.33,15.46-1,23.16a272.39,272.39,0,0,1-11.29,57.94,26.23,26.23,0,0,1-50.09-15.59,219.77,219.77,0,0,0,9.11-46.75c.52-6.23.79-12.55.79-18.76C614.39,265.66,515.57,166.83,394.09,166.83ZM624.75,52.94a188.62,188.62,0,0,0-139.42,77.19A274,274,0,0,1,654.94,307.47c3.24-.18,6.48-.29,9.73-.29A175.78,175.78,0,0,1,789,358.56a187.89,187.89,0,0,0,39.37-107.2,171.3,171.3,0,0,1-34.94,3.56c-94.48,0-171.34-76.87-171.34-171.35A173.23,173.23,0,0,1,624.75,52.94Z" style="fill:#404040;fill-rule:evenodd"/></g></g></g></g></svg>