<svg xmlns="http://www.w3.org/2000/svg" viewBox="0 0 939.39 881.17"><g id="Layer_2" data-name="Layer 2"><g id="Layer_3" data-name="Layer 3"><g id="fog_sun"><g id="Page-1"><path id="Fog_Sun-2" data-name="Fog Sun" d="M678.19,828.83v52.34H157.24V828.83ZM652,746.57a26.17,26.17,0,1,1,0,52.34H183.41a26.17,26.17,0,0,1,0-52.34H652ZM641.34,0a26.17,26.17,0,0,1,26.17,26.17h0v87.64a188.85,188.85,0,0,1,74.86,27.31h0l56.37-67.19a26.17,26.17,0,0,1,40.1,33.65h0l-56.37,67.18a190.33,190.33,0,0,1,39.9,69h0l86.3-15.22a26.17,26.17,0,0,1,9.09,51.55h0l-86.33,15.22c.09,2.3.18,4.61.18,6.95a190.06,190.06,0,0,1-13.91,71.6h0l75.8,43.76a26.17,26.17,0,1,1-26.17,45.32h0l-75.89-43.81c-.47.61-.93,1.22-1.41,1.82a175.38,175.38,0,0,1,49.22,121.89c0,97-78.94,176-176,176H199.32C89.41,718.8,0,629.39,0,519.49,0,427,63.32,349,148.89,326.65A272.28,272.28,0,0,1,487,191.09a191.34,191.34,0,0,1,13.2-16.33h0l-56.37-67.18A26.17,26.17,0,0,1,484,73.93h0l56.41,67.24a190.45,190.45,0,0,1,74.81-27.36h0V26.17A26.17,26.17,0,0,1,641.34,0ZM393.26,226.78a220.17,220.17,0,0,0-180,93.87,198.84,198.84,0,0,1,91,29.34,26.18,26.18,0,0,1-27.59,44.49,146.57,146.57,0,0,0-77.33-22c-81,0-147,65.93-147,147s65.93,147,147,147h464A123.77,123.77,0,0,0,786.91,542.82c0-67.91-55-123.17-122.85-123.6.9,9,1.38,18.15,1.38,27.4,0,7.66-.33,15.44-1,23.12a271.93,271.93,0,0,1-11.28,57.81,26.17,26.17,0,0,1-50-15.55,218.32,218.32,0,0,0,9.09-46.65c.53-6.22.8-12.53.8-18.73C613.1,325.4,514.48,226.78,393.26,226.78ZM641.34,164.3a138.29,138.29,0,0,0-106.26,50.11A273.42,273.42,0,0,1,653.56,367.13c3.23-.18,6.47-.29,9.71-.29A174.74,174.74,0,0,1,748.58,389a136.7,136.7,0,0,0,12.08-17.51,2.39,2.39,0,0,0,.13-.28,2.43,2.43,0,0,1,.14-.2,137,137,0,0,0,18.34-68.75C779.27,226.18,717.4,164.3,641.34,164.3Z" style="fill:#404040;fill-rule:evenodd"/></g></g></g></g></svg>