<svg xmlns="http://www.w3.org/2000/svg" viewBox="0 0 846.32 768.3"><g id="Layer_2" data-name="Layer 2"><g id="Layer_3" data-name="Layer 3"><g id="hail"><g id="Page-1"><path id="Hail-2" data-name="Hail" d="M168.45,633.83a26.38,26.38,0,0,1,37.31,0c43.63,43.63,45.66,101.29,45.75,107.6v.48a26.39,26.39,0,0,1-52.78.14c0-1-1.09-41.71-30.28-70.89A26.39,26.39,0,0,1,168.45,633.83Zm212,0a26.39,26.39,0,0,1,37.32,37.32c-28.48,28.49-30.19,67.91-30.28,70.76v.16a26.47,26.47,0,0,1-26.39,26.14H361a26.31,26.31,0,0,1-26.22-26.3h0v-.48C334.84,735.12,336.86,677.46,380.49,633.83Zm-87.6,53.46a26.38,26.38,0,0,1,26.39,26.39h0v4.38a26.39,26.39,0,1,1-52.78,0h0v-4.38A26.39,26.39,0,0,1,292.89,687.29ZM641.33,586.92a26.38,26.38,0,0,1,37.31,37.31c-29.41,29.43-30.27,70.51-30.28,70.92A26.46,26.46,0,0,1,622,721.29h-.17A26.31,26.31,0,0,1,595.58,695h0v-.27C595.63,689.62,597.17,631.07,641.33,586.92Zm-87.61,53.45a26.39,26.39,0,0,1,26.39,26.39h0v4.38a26.39,26.39,0,1,1-52.78,0h0v-4.38A26.4,26.4,0,0,1,553.72,640.37ZM292.89,432.06a26.39,26.39,0,0,1,26.39,26.39h0V647.77a26.39,26.39,0,0,1-52.78,0h0V458.45A26.4,26.4,0,0,1,292.89,432.06Zm264.2-49.86a26.4,26.4,0,0,1,26.39,26.39h0V597.9a26.39,26.39,0,0,1-52.78,0h0V408.59A26.4,26.4,0,0,1,557.09,382.2ZM424.25,558.26a26.4,26.4,0,0,1,26.39,26.39h0V589a26.39,26.39,0,1,1-52.78,0h0v-4.38A26.39,26.39,0,0,1,424.25,558.26ZM425,382.2a26.4,26.4,0,0,1,26.39,26.39h0V523.83a26.39,26.39,0,1,1-52.78,0h0V408.59A26.4,26.4,0,0,1,425,382.2ZM396.57,0C520,0,624.69,82,659.07,194.31c3.26-.18,6.52-.29,9.79-.29,97.86,0,177.46,79.61,177.46,177.46S766.72,549,668.86,549a26.39,26.39,0,1,1,0-52.78A124.83,124.83,0,0,0,793.54,371.48c0-68.47-55.51-124.2-123.89-124.63.91,9.09,1.39,18.3,1.39,27.62,0,7.73-.33,15.57-1,23.32a273.27,273.27,0,0,1-11.36,58.3,26.39,26.39,0,1,1-50.4-15.69,219.86,219.86,0,0,0,9.16-47c.53-6.27.8-12.63.8-18.89,0-122.23-99.45-221.69-221.69-221.69A222,222,0,0,0,215,147.45,200.39,200.39,0,0,1,306.81,177,26.39,26.39,0,1,1,279,221.89a147.82,147.82,0,0,0-78-22.14c-81.72,0-148.21,66.48-148.21,148.2S119.27,496.17,201,496.17A26.39,26.39,0,1,1,201,549C90.16,549,0,458.78,0,348c0-93.26,63.85-171.88,150.14-194.46A275,275,0,0,1,396.57,0Z" style="fill:#404040;fill-rule:evenodd"/></g></g></g></g></svg>