<svg xmlns="http://www.w3.org/2000/svg" viewBox="0 0 565.92 571.15"><g id="Layer_2" data-name="Layer 2"><g id="Layer_3" data-name="Layer 3"><g id="moon"><g id="Page-1"><path id="Moon-2" data-name="Moon" d="M263.27,53.86C145.34,65.12,52.8,164.74,52.8,285.58c0,128.35,104.42,232.77,232.77,232.77,96.15,0,181.48-59.56,216.25-146.34-7.28.69-14.63,1-22,1-128.49,0-233-104.53-233-233a232.44,232.44,0,0,1,16.48-86.17m22.3,517.29C128.11,571.15,0,443,0,285.58S128.11,0,285.57,0c7.79,0,15.64.33,23.33,1a26.41,26.41,0,0,1,19.88,40.76A179.11,179.11,0,0,0,299.59,140c0,99.37,80.85,180.22,180.22,180.22a178.42,178.42,0,0,0,52-7.66,26.4,26.4,0,0,1,33.55,30.55c-27,132.11-144.71,228-279.81,228" style="fill:#404040;fill-rule:evenodd"/></g></g></g></g></svg>