<svg xmlns="http://www.w3.org/2000/svg" viewBox="0 0 930.41 929.78"><g id="Layer_2" data-name="Layer 2"><g id="Layer_3" data-name="Layer 3"><g id="rain_medium_sun"><g id="Page-1"><path id="Rain_Medium_Sun-2" data-name="Rain Medium Sun" d="M416.69,790a25.93,25.93,0,0,1,25.92,25.92h0v87.93a25.92,25.92,0,0,1-51.84,0h0V815.93A25.92,25.92,0,0,1,416.69,790Zm-129-64a25.91,25.91,0,0,1,25.92,25.92h0v87.93a25.92,25.92,0,1,1-51.84,0h0V751.9A25.92,25.92,0,0,1,287.66,726Zm258.05,0a25.91,25.91,0,0,1,25.92,25.92h0v87.93a25.92,25.92,0,1,1-51.84,0h0V751.9A25.92,25.92,0,0,1,545.71,726Zm-129-127.59a25.93,25.93,0,0,1,25.92,25.92h0v87.93a25.92,25.92,0,0,1-51.84,0h0V624.31A25.92,25.92,0,0,1,416.69,598.39ZM635.22,0a25.92,25.92,0,0,1,25.92,25.92h0v86.8a187.21,187.21,0,0,1,74.14,27h0l55.83-66.53a25.92,25.92,0,1,1,39.71,33.32h0L775,173.09a188.52,188.52,0,0,1,39.52,68.32h0L900,226.33a25.92,25.92,0,0,1,9,51.06h0l-85.51,15.07c.09,2.29.18,4.58.18,6.88a188.26,188.26,0,0,1-13.77,70.92h0L885,413.61a25.92,25.92,0,1,1-25.92,44.89h0l-75.17-43.4c-.47.6-.92,1.21-1.4,1.81a173.67,173.67,0,0,1,48.75,120.72c0,96.1-78.19,174.3-174.29,174.3a25.92,25.92,0,0,1,0-51.84A122.6,122.6,0,0,0,779.39,537.63c0-67.26-54.52-122-121.68-122.42a270.53,270.53,0,0,1,1.37,27.14c0,7.58-.33,15.29-1,22.9A268.75,268.75,0,0,1,647,522.51a25.93,25.93,0,0,1-24.74,18.22,25.92,25.92,0,0,1-24.76-33.63,216,216,0,0,0,9-46.2c.52-6.16.79-12.41.79-18.55,0-120.07-97.68-217.74-217.74-217.74a218,218,0,0,0-178.32,93,196.82,196.82,0,0,1,90.16,29.06A25.92,25.92,0,1,1,274,390.7,145.25,145.25,0,0,0,197.41,369c-80.27,0-145.57,65.3-145.57,145.57s65.3,145.57,145.57,145.57a25.92,25.92,0,1,1,0,51.84C88.56,711.93,0,623.37,0,514.52c0-91.61,62.72-168.82,147.46-191a269.65,269.65,0,0,1,334.9-134.25,188.22,188.22,0,0,1,13.08-16.18h0l-55.83-66.54a25.92,25.92,0,1,1,39.71-33.32h0l55.88,66.59a188.61,188.61,0,0,1,74.09-27.1h0V25.92A25.92,25.92,0,0,1,635.22,0ZM287.66,534.35a25.92,25.92,0,0,1,25.92,25.93h0V648.2a25.92,25.92,0,1,1-51.84,0h0V560.28A25.93,25.93,0,0,1,287.66,534.35Zm258.05,0a25.92,25.92,0,0,1,25.92,25.93h0V648.2a25.92,25.92,0,1,1-51.84,0h0V560.28A25.93,25.93,0,0,1,545.71,534.35Zm89.51-371.61A137,137,0,0,0,530,212.36,270.85,270.85,0,0,1,647.32,363.61c3.2-.17,6.4-.28,9.62-.28a173.26,173.26,0,0,1,84.49,21.92,136.46,136.46,0,0,0,12-17.34c.05-.09.07-.18.12-.26a1.43,1.43,0,0,1,.14-.2,135.81,135.81,0,0,0,18.16-68.11C771.82,224,710.55,162.74,635.22,162.74Z" style="fill:#404040;fill-rule:evenodd"/></g></g></g></g></svg>