<svg xmlns="http://www.w3.org/2000/svg" viewBox="0 0 872.01 872.01"><g id="Layer_2" data-name="Layer 2"><g id="Layer_3" data-name="Layer 3"><g id="rain_light_moon"><g id="Page-1"><path id="Rain_Light_Moon-2" data-name="Rain Light Moon" d="M417.3,818.56a26,26,0,0,1,26,26h0v1.54a26,26,0,0,1-51.91,0h0v-1.54A26,26,0,0,1,417.3,818.56ZM288.09,754.43a26,26,0,0,1,26,26h0v1.54a26,26,0,0,1-51.92,0h0v-1.54A26,26,0,0,1,288.09,754.43Zm258.43,0a26,26,0,0,1,26,26h0v1.54a26,26,0,0,1-51.92,0h0v-1.54A26,26,0,0,1,546.52,754.43ZM417.3,694.67a26,26,0,0,1,26,26h0v41.91a26,26,0,1,1-51.91,0h0V720.62A26,26,0,0,1,417.3,694.67ZM288.09,630.53a26,26,0,0,1,26,26h0v41.92a26,26,0,0,1-51.92,0h0V656.49A26,26,0,0,1,288.09,630.53Zm258.43,0a26,26,0,0,1,26,26h0v41.92a26,26,0,0,1-51.92,0h0V656.49A26,26,0,0,1,546.52,630.53ZM417.3,539.46a26,26,0,0,1,26,26h0v65a26,26,0,1,1-51.91,0h0v-65A26,26,0,0,1,417.3,539.46ZM632,0c7.56,0,15.38.36,23.21,1.08A26,26,0,0,1,676.78,37,117.86,117.86,0,0,0,785.31,200.4,115.89,115.89,0,0,0,833.69,190a26,26,0,0,1,36.5,20.36,240.11,240.11,0,0,1-57.57,187.6,173.34,173.34,0,0,1,19.84,80.67c0,96.25-78.3,174.56-174.56,174.56a26,26,0,1,1,0-51.92A122.78,122.78,0,0,0,780.54,478.61c0-67.36-54.6-122.17-121.85-122.6.89,8.94,1.36,18,1.36,27.18,0,7.6-.32,15.31-1,22.93a268.77,268.77,0,0,1-11.18,57.34A26,26,0,1,1,598.34,448a217.12,217.12,0,0,0,9-46.27c.52-6.16.79-12.42.79-18.57,0-120.24-97.82-218.06-218.06-218.06a218.37,218.37,0,0,0-178.59,93.12,197,197,0,0,1,90.29,29.1,26,26,0,0,1-27.38,44.12,145.37,145.37,0,0,0-76.7-21.79c-80.38,0-145.78,65.4-145.78,145.78s65.4,145.79,145.78,145.79a26,26,0,1,1,0,51.92C88.69,653.17,0,564.48,0,455.46,0,363.73,62.81,286.4,147.68,264.19a269.41,269.41,0,0,1,279-148.42A238.61,238.61,0,0,1,632,0ZM288.09,475.33a26,26,0,0,1,26,26h0v65a26,26,0,0,1-51.92,0h0v-65A26,26,0,0,1,288.09,475.33Zm258.43,0a26,26,0,0,1,26,26h0v65a26,26,0,0,1-51.92,0h0v-65A26,26,0,0,1,546.52,475.33ZM618.39,52.4a186.73,186.73,0,0,0-138,76.4,271.2,271.2,0,0,1,167.9,175.54c3.2-.18,6.41-.29,9.62-.29a174,174,0,0,1,123,50.85,185.86,185.86,0,0,0,39-106.1,169.9,169.9,0,0,1-34.58,3.52c-93.52,0-169.59-76.08-169.59-169.6A171.53,171.53,0,0,1,618.39,52.4Z" style="fill:#404040;fill-rule:evenodd"/></g></g></g></g></svg>