<svg xmlns="http://www.w3.org/2000/svg" viewBox="0 0 842.17 743.64"><g id="Layer_2" data-name="Layer 2"><g id="Layer_3" data-name="Layer 3"><g id="snow_2"><g id="Page-1"><path id="Snow_2-2" data-name="Snow 2" d="M422.63,565a26.26,26.26,0,0,1,26.26,26.26h0v19.66l17.41-9.12a26.26,26.26,0,1,1,24.37,46.53h0l-13.35,7,13.09,7.48a26.26,26.26,0,1,1-26.05,45.61h0l-15.47-8.84v17.82a26.27,26.27,0,0,1-52.53,0h0V697.73L379,706.84a26.26,26.26,0,1,1-24.37-46.53h0l13.34-7-13.08-7.47a26.26,26.26,0,1,1,26-45.61h0l15.46,8.83V591.26A26.27,26.27,0,0,1,422.63,565ZM529.79,374.49a26.26,26.26,0,0,1,26.26,26.26h0v19.66l17.41-9.13a26.26,26.26,0,1,1,24.37,46.53h0l-13.35,7,13.09,7.48a26.26,26.26,0,0,1-26.06,45.6h0l-15.46-8.83v17.81a26.27,26.27,0,0,1-52.53,0h0V507.21l-17.4,9.12a26.26,26.26,0,1,1-24.37-46.53h0l13.34-7L462,455.33a26.26,26.26,0,1,1,26.06-45.6h0l15.45,8.83V400.75A26.27,26.27,0,0,1,529.79,374.49ZM394.63,0c122.85,0,227,81.56,261.21,193.36,3.24-.18,6.49-.29,9.74-.29,97.37,0,176.59,79.22,176.59,176.59S763,546.25,665.58,546.25a26.26,26.26,0,0,1,0-52.52A124.21,124.21,0,0,0,789.65,369.66c0-68.14-55.24-123.59-123.28-124,.9,9.05,1.38,18.22,1.38,27.5,0,7.68-.33,15.49-1,23.2a272.42,272.42,0,0,1-11.31,58,26.27,26.27,0,0,1-50.16-15.61,219.09,219.09,0,0,0,9.13-46.81c.52-6.24.79-12.57.79-18.79,0-121.64-99-220.61-220.6-220.61A220.9,220.9,0,0,0,214,146.73a199.31,199.31,0,0,1,91.34,29.44,26.26,26.26,0,0,1-27.68,44.63,147.21,147.21,0,0,0-77.61-22c-81.32,0-147.49,66.16-147.49,147.48S118.69,493.73,200,493.73a26.26,26.26,0,1,1,0,52.52c-110.29,0-200-89.72-200-200,0-92.81,63.54-171,149.41-193.51A273.6,273.6,0,0,1,394.63,0ZM291.45,317.27a26.26,26.26,0,0,1,26.26,26.26h0v19.65l17.4-9.12a26.27,26.27,0,1,1,24.38,46.53h0l-13.35,7,13.08,7.47a26.26,26.26,0,1,1-26,45.62h0l-15.47-8.84v17.81a26.26,26.26,0,0,1-52.52,0h0V450l-17.41,9.12a26.26,26.26,0,1,1-24.37-46.53h0l13.34-7-13.08-7.47a26.26,26.26,0,1,1,26.05-45.61h0l15.47,8.84V343.53A26.26,26.26,0,0,1,291.45,317.27Z" style="fill:#404040;fill-rule:evenodd"/></g></g></g></g></svg>