<svg xmlns="http://www.w3.org/2000/svg" viewBox="0 0 886.91 862.77"><g id="Layer_2" data-name="Layer 2"><g id="Layer_3" data-name="Layer 3"><g id="snow_2_moon"><g id="Page-1"><path id="Snow_2_Moon-2" data-name="Snow 2 Moon" d="M424.89,683.17a26.4,26.4,0,0,1,26.4,26.41h0v19.76l17.51-9.17A26.4,26.4,0,1,1,493.3,767h0l-13.42,7L493,781.49a26.4,26.4,0,1,1-26.2,45.85h0l-15.55-8.88v17.91a26.4,26.4,0,0,1-52.8,0h0V816.61L381,825.78A26.4,26.4,0,0,1,356.49,779h0l13.41-7-13.15-7.51A26.41,26.41,0,0,1,383,718.6h0l15.54,8.88v-17.9A26.41,26.41,0,0,1,424.89,683.17ZM532.63,491.64A26.4,26.4,0,0,1,559,518h0V537.8l17.5-9.17A26.4,26.4,0,0,1,601,575.41h0l-13.42,7L600.77,590a26.41,26.41,0,1,1-26.19,45.86h0L559,626.92v17.91a26.41,26.41,0,0,1-52.81,0h0V625.07l-17.5,9.17a26.4,26.4,0,0,1-24.5-46.78h0l13.41-7-13.14-7.51a26.4,26.4,0,1,1,26.18-45.86h0L506.22,536V518A26.41,26.41,0,0,1,532.63,491.64ZM642.84,0c7.69,0,15.64.37,23.61,1.1a26.41,26.41,0,0,1,21.9,36.54A119.86,119.86,0,0,0,798.73,203.82a118,118,0,0,0,49.2-10.59,26.41,26.41,0,0,1,37.13,20.7,244.26,244.26,0,0,1-58.55,190.81,176.37,176.37,0,0,1,20.18,82.05c0,97.89-79.64,177.54-177.54,177.54a26.41,26.41,0,1,1,0-52.81A124.87,124.87,0,0,0,793.88,486.79c0-68.51-55.53-124.26-123.94-124.69.91,9.09,1.39,18.31,1.39,27.64,0,7.72-.33,15.57-1,23.32A273.24,273.24,0,0,1,659,471.38a26.4,26.4,0,1,1-50.42-15.69,220.81,220.81,0,0,0,9.17-47.06c.53-6.27.8-12.63.8-18.89C618.53,267.45,519,168,396.74,168A222.12,222.12,0,0,0,215.1,262.66a200.33,200.33,0,0,1,91.83,29.6,26.4,26.4,0,1,1-27.84,44.87,147.87,147.87,0,0,0-78-22.15c-81.76,0-148.27,66.51-148.27,148.27s66.51,148.27,148.27,148.27a26.41,26.41,0,0,1,0,52.81C90.2,664.33,0,574.13,0,463.25,0,370,63.88,291.3,150.2,268.7A274.06,274.06,0,0,1,434,117.74,242.68,242.68,0,0,1,642.84,0ZM293,434.11a26.4,26.4,0,0,1,26.4,26.4h0v19.77l17.5-9.18a26.4,26.4,0,1,1,24.5,46.78h0l-13.42,7,13.16,7.51A26.41,26.41,0,1,1,335,578.28h0l-15.55-8.88v17.91a26.4,26.4,0,0,1-52.8,0h0V567.54l-17.5,9.17a26.4,26.4,0,1,1-24.5-46.77h0l13.41-7-13.15-7.51a26.41,26.41,0,0,1,26.19-45.86h0l15.55,8.89V460.51A26.4,26.4,0,0,1,293,434.11ZM629,53.29A189.93,189.93,0,0,0,488.59,131,275.8,275.8,0,0,1,659.35,309.54c3.27-.18,6.53-.29,9.8-.29A177,177,0,0,1,794.27,361,189.08,189.08,0,0,0,833.9,253a172,172,0,0,1-35.17,3.59c-95.11,0-172.49-77.39-172.49-172.5A174.66,174.66,0,0,1,629,53.29Z" style="fill:#404040;fill-rule:evenodd"/></g></g></g></g></svg>