<svg xmlns="http://www.w3.org/2000/svg" viewBox="0 0 939.41 942.35"><g id="Layer_2" data-name="Layer 2"><g id="Layer_3" data-name="Layer 3"><g id="wind_mix_sun"><g id="Page-1"><path id="WinteryMix_Sun" data-name="WinteryMix Sun" d="M420.94,888.47a26.18,26.18,0,0,1,26.18,26.17h0v1.54a26.18,26.18,0,0,1-52.35,0h0v-1.54A26.17,26.17,0,0,1,420.94,888.47Zm130.5-127.71a26.17,26.17,0,0,1,26.17,26.17h0v19.59L595,797.43a26.17,26.17,0,0,1,24.28,46.36h0l-13.3,7,13,7.45a26.17,26.17,0,1,1-26,45.45h0l-15.41-8.8V912.6a26.17,26.17,0,1,1-52.34,0h0V893l-17.35,9.09a26.17,26.17,0,1,1-24.29-46.37h0l13.3-7-13-7.45a26.17,26.17,0,1,1,26-45.45h0l15.41,8.79V786.93A26.17,26.17,0,0,1,551.44,760.76Zm-261,57.92a26.17,26.17,0,0,1,26.17,26.17h0v1.54a26.18,26.18,0,0,1-52.35,0h0v-1.54A26.18,26.18,0,0,1,290.45,818.68ZM420.71,603.77a26.17,26.17,0,0,1,26.17,26.17h0v19.59l17.35-9.09a26.17,26.17,0,0,1,24.29,46.37h0l-13.3,7,13,7.45a26.17,26.17,0,1,1-26,45.45h0l-15.42-8.81v17.76a26.17,26.17,0,0,1-52.34,0h0V736l-17.34,9.08a26.17,26.17,0,1,1-24.29-46.36h0l13.3-7-13-7.44a26.17,26.17,0,1,1,26-45.45h0l15.41,8.8V629.94A26.17,26.17,0,0,1,420.71,603.77ZM290.45,679.1a26.17,26.17,0,0,1,26.17,26.17h0v1.54a26.18,26.18,0,1,1-52.35,0h0v-1.54A26.18,26.18,0,0,1,290.45,679.1ZM551,665.69a26.17,26.17,0,0,1,26.17,26.17h0v1.55a26.17,26.17,0,1,1-52.34,0h0v-1.55A26.17,26.17,0,0,1,551,665.69ZM641.36,0a26.16,26.16,0,0,1,26.17,26.17h0v87.64a188.91,188.91,0,0,1,74.86,27.31h0l56.37-67.18a26.17,26.17,0,1,1,40.1,33.64h0l-56.38,67.19a190.17,190.17,0,0,1,39.91,69h0l86.3-15.21a26.17,26.17,0,1,1,9.09,51.54h0l-86.33,15.22c.08,2.31.18,4.62.18,6.95a190.06,190.06,0,0,1-13.91,71.6h0l75.81,43.77a26.17,26.17,0,1,1-26.18,45.32h0l-75.89-43.81c-.47.6-.93,1.22-1.42,1.82a175.35,175.35,0,0,1,49.23,121.89c0,97-78.94,176-176,176a26.17,26.17,0,1,1,0-52.34A123.79,123.79,0,0,0,786.93,542.83c0-67.91-55-123.17-122.86-123.6a272.6,272.6,0,0,1,1.38,27.4c0,7.66-.33,15.43-1,23.11a271.26,271.26,0,0,1-11.27,57.82,26.17,26.17,0,0,1-50-15.56,218.72,218.72,0,0,0,9.09-46.64c.52-6.22.79-12.53.79-18.73,0-121.22-98.62-219.85-219.84-219.85a220.17,220.17,0,0,0-180,93.88,198.72,198.72,0,0,1,91,29.34,26.17,26.17,0,1,1-27.6,44.48,146.65,146.65,0,0,0-77.33-22c-81,0-147,65.93-147,147s65.94,147,147,147a26.17,26.17,0,1,1,0,52.34C89.41,718.81,0,629.4,0,519.49,0,427,63.32,349,148.89,326.65A272.26,272.26,0,0,1,487,191.1a189.79,189.79,0,0,1,13.2-16.33h0l-56.37-67.19A26.17,26.17,0,1,1,484,73.94h0l56.41,67.23a190.49,190.49,0,0,1,74.82-27.36h0V26.17A26.17,26.17,0,0,1,641.36,0ZM290.45,539.52a26.17,26.17,0,0,1,26.17,26.17h0v1.54a26.18,26.18,0,1,1-52.35,0h0v-1.54A26.18,26.18,0,0,1,290.45,539.52ZM641.36,164.31A138.24,138.24,0,0,0,535.1,214.42,273.48,273.48,0,0,1,653.58,367.13c3.23-.17,6.46-.29,9.71-.29A174.88,174.88,0,0,1,748.6,389a138,138,0,0,0,12.08-17.51c.05-.09.08-.18.13-.27a1.21,1.21,0,0,1,.14-.2,137.16,137.16,0,0,0,18.34-68.76C779.29,226.18,717.42,164.31,641.36,164.31Z" style="fill:#404040;fill-rule:evenodd"/></g></g></g></g></svg>