<svg xmlns="http://www.w3.org/2000/svg" viewBox="0 0 840.55 767.01"><g id="Layer_2" data-name="Layer 2"><g id="Layer_3" data-name="Layer 3"><g id="wind"><g id="Page-1"><path id="Wind-2" data-name="Wind" d="M289.7,616.42l264,1a26.22,26.22,0,0,1-.11,52.43h-.1l-263.93-1a22.88,22.88,0,0,0,.1,45.75,22.56,22.56,0,0,0,9.91-2.25,26.21,26.21,0,1,1,22.81,47.2A74.54,74.54,0,0,1,289.7,767a75.3,75.3,0,1,1,0-150.59ZM138.26,558.74A74.53,74.53,0,0,1,171,566.21a26.21,26.21,0,1,1-22.79,47.2,22.88,22.88,0,1,0-9.92,43.51,26.21,26.21,0,0,1,0,52.42,75.3,75.3,0,0,1,0-150.6ZM393.87,0c122.62,0,226.56,81.39,260.7,193,3.24-.17,6.49-.28,9.73-.28,97.19,0,176.25,79.06,176.25,176.25s-79,176.17-176.11,176.25h0l-263.94,1a75.3,75.3,0,1,1-.1-150.6,74.53,74.53,0,0,1,32.71,7.47,26.21,26.21,0,1,1-22.79,47.21,22.53,22.53,0,0,0-9.92-2.26,22.88,22.88,0,1,0,0,45.75h0l263.83-1h.1A124,124,0,0,0,788.13,369c0-68-55.13-123.36-123-123.79.9,9,1.38,18.18,1.38,27.44,0,7.67-.33,15.46-1,23.16a272.76,272.76,0,0,1-11.29,57.9,26.21,26.21,0,0,1-50.06-15.58,218.86,218.86,0,0,0,9.11-46.72c.52-6.24.79-12.55.79-18.76,0-121.41-98.77-220.18-220.18-220.18a220.5,220.5,0,0,0-180.32,94,199.06,199.06,0,0,1,91.16,29.39,26.21,26.21,0,0,1-27.63,44.55,146.75,146.75,0,0,0-77.46-22c-81.16,0-147.2,66-147.2,147.2s66,147.2,147.2,147.2a26.21,26.21,0,1,1,0,52.42C89.55,545.2,0,455.65,0,345.58,0,253,63.42,174.87,149.12,152.44A273.07,273.07,0,0,1,393.87,0Z" style="fill:#404040;fill-rule:evenodd"/></g></g></g></g></svg>