<svg xmlns="http://www.w3.org/2000/svg" viewBox="0 0 883.12 886.04"><g id="Layer_2" data-name="Layer 2"><g id="Layer_3" data-name="Layer 3"><g id="wind_mix_moon"><g id="Page-1"><path id="WinteryMix_Moon" data-name="WinteryMix Moon" d="M422.85,831.91a26.3,26.3,0,0,1,26.29,26.29h0v1.55a26.29,26.29,0,1,1-52.58,0h0V858.2A26.3,26.3,0,0,1,422.85,831.91ZM553.94,703.62a26.29,26.29,0,0,1,26.28,26.29h0v19.68l17.44-9.13A26.29,26.29,0,1,1,622.05,787h0l-13.36,7,13.1,7.49a26.29,26.29,0,1,1-26.08,45.65h0l-15.49-8.84v17.83a26.29,26.29,0,1,1-52.57,0h0V836.49l-17.43,9.13A26.29,26.29,0,0,1,485.82,799h0l13.36-7-13.1-7.48a26.29,26.29,0,0,1,26.09-45.66h0l15.48,8.84V729.91A26.3,26.3,0,0,1,553.94,703.62ZM291.76,761.81a26.29,26.29,0,0,1,26.29,26.29h0v1.55a26.29,26.29,0,0,1-52.58,0h0V788.1A26.29,26.29,0,0,1,291.76,761.81ZM422.62,545.92a26.29,26.29,0,0,1,26.28,26.29h0v19.68l17.43-9.13a26.29,26.29,0,0,1,24.4,46.58h0l-13.36,7,13.1,7.47a26.3,26.3,0,0,1-26.09,45.67h0l-15.48-8.84v17.82a26.29,26.29,0,1,1-52.57,0h0V678.79l-17.43,9.13a26.29,26.29,0,1,1-24.39-46.58h0l13.35-7-13.1-7.48a26.29,26.29,0,0,1,26.09-45.66h0L396.33,590V572.21A26.3,26.3,0,0,1,422.62,545.92ZM291.76,621.6a26.29,26.29,0,0,1,26.29,26.29h0v1.55a26.29,26.29,0,0,1-52.58,0h0v-1.55A26.29,26.29,0,0,1,291.76,621.6Zm261.72-13.47a26.29,26.29,0,0,1,26.29,26.29h0V636a26.29,26.29,0,0,1-52.58,0h0v-1.55A26.29,26.29,0,0,1,553.48,608.13ZM640.09,0c7.66,0,15.57.37,23.51,1.1a26.3,26.3,0,0,1,21.81,36.38A119.36,119.36,0,0,0,795.31,203a117.66,117.66,0,0,0,49-10.55,26.28,26.28,0,0,1,37,20.61A243.25,243.25,0,0,1,823,403a175.63,175.63,0,0,1,20.09,81.69c0,97.48-79.3,176.79-176.79,176.79a26.29,26.29,0,1,1,0-52.58A124.35,124.35,0,0,0,790.49,484.7c0-68.21-55.3-123.72-123.41-124.15.9,9.05,1.38,18.23,1.38,27.52,0,7.69-.33,15.5-1,23.22a273.71,273.71,0,0,1-11.32,58.08A26.29,26.29,0,0,1,606,453.74a220.3,220.3,0,0,0,9.13-46.86c.53-6.24.79-12.58.79-18.81,0-121.77-99.06-220.84-220.83-220.84a221.19,221.19,0,0,0-180.87,94.31A199.47,199.47,0,0,1,305.62,291a26.29,26.29,0,0,1-27.72,44.68,147.24,147.24,0,0,0-77.68-22.06c-81.41,0-147.64,66.23-147.64,147.64s66.23,147.64,147.64,147.64a26.29,26.29,0,0,1,0,52.58C89.82,661.49,0,571.67,0,461.27c0-92.91,63.61-171.22,149.56-193.72a272.88,272.88,0,0,1,282.6-150.31A241.64,241.64,0,0,1,640.09,0ZM291.76,481.39a26.29,26.29,0,0,1,26.29,26.29h0v1.54a26.29,26.29,0,0,1-52.58,0h0v-1.54A26.29,26.29,0,0,1,291.76,481.39ZM626.27,53.06A189.13,189.13,0,0,0,486.5,130.44a274.65,274.65,0,0,1,170,177.77c3.25-.17,6.5-.28,9.75-.28a176.19,176.19,0,0,1,124.59,51.5A188.33,188.33,0,0,0,830.34,252a172.11,172.11,0,0,1-35,3.57c-94.7,0-171.75-77.06-171.75-171.76A174.25,174.25,0,0,1,626.27,53.06Z" style="fill:#404040;fill-rule:evenodd"/></g></g></g></g></svg>