<svg xmlns="http://www.w3.org/2000/svg" viewBox="0 0 955.71 726.99"><g id="Layer_2" data-name="Layer 2"><g id="Layer_3" data-name="Layer 3"><g id="cloud_moon"><circle cx="658.14" cy="297.57" r="297.57" style="fill:#9332d8"/><g id="Page-1"><path id="Cloud_Moon-2" data-name="Cloud Moon" d="M675.73,673.66H203.06c-82.56,0-149.74-67.16-149.74-149.72S120.5,374.2,203.06,374.2a149.31,149.31,0,0,1,78.78,22.38A26.66,26.66,0,0,0,310,351.26a202.55,202.55,0,0,0-92.73-29.89,224.3,224.3,0,0,1,183.42-95.64c123.5,0,224,100.47,224,224,0,6.32-.27,12.74-.8,19.08a223.15,223.15,0,0,1-9.27,47.52,26.66,26.66,0,1,0,50.92,15.85A276.7,276.7,0,0,0,677,473.25c.65-7.82,1-15.74,1-23.55,0-9.42-.49-18.73-1.41-27.92,69.08.45,125.16,56.74,125.16,125.93a126.1,126.1,0,0,1-126,125.95M635.15,110a175.22,175.22,0,0,0-2.75,31.14c0,96,78.13,174.19,174.18,174.19a173.24,173.24,0,0,0,35.52-3.62,190.92,190.92,0,0,1-40,109,178.68,178.68,0,0,0-126.35-52.23c-3.3,0-6.6.11-9.89.3A278.57,278.57,0,0,0,493.4,188.42,191.79,191.79,0,0,1,635.15,110M895.63,302.6a241.3,241.3,0,0,0-1.87-30.43,26.64,26.64,0,0,0-37.49-20.9A119.24,119.24,0,0,1,806.58,262,121.05,121.05,0,0,1,695.12,94.14,26.67,26.67,0,0,0,673,57.25c-8-.75-16.07-1.12-23.84-1.12A245.06,245.06,0,0,0,438.28,175a276.71,276.71,0,0,0-286.6,152.44C64.51,350.29,0,429.71,0,523.94c0,112,91.09,203,203.06,203H675.73C774.59,727,855,646.56,855,547.71a178.07,178.07,0,0,0-20.37-82.86,244.11,244.11,0,0,0,61-162.25" style="fill:#404040;fill-rule:evenodd"/></g></g></g></g></svg>