<svg xmlns="http://www.w3.org/2000/svg" viewBox="0 0 946.88 889.09"><g id="Layer_2" data-name="Layer 2"><g id="Layer_3" data-name="Layer 3"><g id="fog_moon"><circle cx="649.31" cy="297.57" r="297.57" style="fill:#9332d8"/><g id="Page-1"><path id="Fog_Moon-2" data-name="Fog Moon" d="M679.63,836.64v52.45H157.57V836.64ZM653.4,754.21a26.23,26.23,0,1,1,0,52.45H183.79a26.23,26.23,0,0,1,0-52.45H653.4ZM638.54,66.49c7.64,0,15.54.36,23.45,1.1a26.22,26.22,0,0,1,21.76,36.28A119.07,119.07,0,0,0,793.39,269a117.2,117.2,0,0,0,48.87-10.52A26.22,26.22,0,0,1,879.14,279,242.56,242.56,0,0,1,821,468.52,175.1,175.1,0,0,1,841,550c0,97.24-79.11,176.35-176.36,176.35H199.74C89.6,726.37,0,636.77,0,526.64,0,434,63.46,355.83,149.2,333.4A272.25,272.25,0,0,1,431.11,183.45,241.05,241.05,0,0,1,638.54,66.49ZM394.09,233.32a220.61,220.61,0,0,0-180.42,94.07,199.15,199.15,0,0,1,91.21,29.4,26.23,26.23,0,0,1-27.65,44.58,146.86,146.86,0,0,0-77.49-22c-81.22,0-147.29,66.07-147.29,147.28s66.07,147.28,147.29,147.28H664.67A124,124,0,0,0,788.57,550c0-68-55.16-123.43-123.11-123.86a273.79,273.79,0,0,1,1.38,27.46c0,7.67-.33,15.47-1,23.17a272.3,272.3,0,0,1-11.29,57.93,26.23,26.23,0,0,1-50.09-15.59,219.8,219.8,0,0,0,9.11-46.74c.52-6.24.79-12.55.79-18.77C614.39,332.14,515.57,233.32,394.09,233.32ZM624.75,119.43a188.61,188.61,0,0,0-139.42,77.18A274,274,0,0,1,654.94,374c3.24-.18,6.48-.29,9.73-.29A175.74,175.74,0,0,1,789,425.05a187.92,187.92,0,0,0,39.37-107.21,171.3,171.3,0,0,1-34.94,3.56c-94.48,0-171.34-76.86-171.34-171.34A173.23,173.23,0,0,1,624.75,119.43Z" style="fill:#404040;fill-rule:evenodd"/></g></g></g></g></svg>