<svg xmlns="http://www.w3.org/2000/svg" viewBox="0 0 952.45 946.95"><g id="Layer_2" data-name="Layer 2"><g id="Layer_3" data-name="Layer 3"><g id="hail"><circle cx="654.88" cy="297.57" r="297.57" style="fill:#3282b8"/><g id="Page-1"><path id="Hail-2" data-name="Hail" d="M168.45,812.49a26.37,26.37,0,0,1,37.31,0c43.63,43.62,45.66,101.29,45.75,107.59v.48a26.39,26.39,0,0,1-52.78.15c0-1-1.09-41.71-30.28-70.9A26.38,26.38,0,0,1,168.45,812.49Zm212,0a26.39,26.39,0,0,1,37.32,37.32c-28.48,28.48-30.19,67.9-30.28,70.76v.16a26.47,26.47,0,0,1-26.39,26.14H361a26.32,26.32,0,0,1-26.22-26.31h0v-.48C334.84,913.78,336.86,856.11,380.49,812.49Zm-87.6,53.45a26.39,26.39,0,0,1,26.39,26.39h0v4.38a26.39,26.39,0,0,1-52.78,0h0v-4.38A26.4,26.4,0,0,1,292.89,865.94ZM641.33,765.57a26.39,26.39,0,0,1,37.31,37.32c-29.41,29.42-30.27,70.5-30.28,70.92A26.47,26.47,0,0,1,622,900h-.17a26.32,26.32,0,0,1-26.23-26.3h0v-.28C595.63,868.27,597.17,809.73,641.33,765.57ZM553.72,819a26.39,26.39,0,0,1,26.39,26.39h0v4.39a26.39,26.39,0,1,1-52.78,0h0v-4.39A26.4,26.4,0,0,1,553.72,819ZM292.89,610.72a26.38,26.38,0,0,1,26.39,26.39h0V826.42a26.39,26.39,0,0,1-52.78,0h0V637.11A26.39,26.39,0,0,1,292.89,610.72Zm264.2-49.87a26.4,26.4,0,0,1,26.39,26.39h0V776.56a26.39,26.39,0,0,1-52.78,0h0V587.24A26.4,26.4,0,0,1,557.09,560.85ZM424.25,736.92a26.39,26.39,0,0,1,26.39,26.39h0v4.38a26.39,26.39,0,0,1-52.78,0h0v-4.38A26.38,26.38,0,0,1,424.25,736.92ZM425,560.85a26.4,26.4,0,0,1,26.39,26.39h0V702.49a26.39,26.39,0,0,1-52.78,0h0V587.24A26.4,26.4,0,0,1,425,560.85Zm-28.42-382.2c123.46,0,228.12,82,262.5,194.31,3.26-.17,6.52-.28,9.79-.28,97.86,0,177.46,79.6,177.46,177.46S766.72,727.6,668.86,727.6a26.39,26.39,0,1,1,0-52.78A124.83,124.83,0,0,0,793.54,550.14c0-68.48-55.51-124.21-123.89-124.64.91,9.09,1.39,18.3,1.39,27.63,0,7.72-.33,15.57-1,23.31a273.15,273.15,0,0,1-11.36,58.3,26.39,26.39,0,1,1-50.4-15.69,219.89,219.89,0,0,0,9.16-47c.53-6.28.8-12.63.8-18.89,0-122.24-99.45-221.69-221.69-221.69A222,222,0,0,0,215,326.1a200.51,200.51,0,0,1,91.8,29.59A26.4,26.4,0,0,1,279,400.55a147.83,147.83,0,0,0-78-22.15c-81.72,0-148.21,66.49-148.21,148.21S119.27,674.82,201,674.82a26.39,26.39,0,1,1,0,52.78c-110.83,0-201-90.16-201-201,0-93.27,63.85-171.89,150.14-194.46A275,275,0,0,1,396.57,178.65Z" style="fill:#404040;fill-rule:evenodd"/></g></g></g></g></svg>