<svg xmlns="http://www.w3.org/2000/svg" viewBox="0 0 950.61 951.11"><g id="Layer_2" data-name="Layer 2"><g id="Layer_3" data-name="Layer 3"><g id="rain_light_sun"><circle cx="653.03" cy="297.57" r="297.57" style="fill:#ffd45a"/><g id="Page-1"><path id="Rain_Light_Sun-2" data-name="Rain Light Sun" d="M425.73,896.58a26.48,26.48,0,0,1,26.48,26.48v1.57a26.48,26.48,0,1,1-53,0v-1.57A26.49,26.49,0,0,1,425.73,896.58ZM293.91,831.16a26.49,26.49,0,0,1,26.48,26.48h0v1.57a26.49,26.49,0,0,1-53,0h0v-1.57A26.49,26.49,0,0,1,293.91,831.16Zm263.65,0A26.49,26.49,0,0,1,584,857.64h0v1.57a26.49,26.49,0,0,1-53,0h0v-1.57A26.49,26.49,0,0,1,557.56,831.16Zm-131.83-61a26.48,26.48,0,0,1,26.48,26.49h0v42.75a26.48,26.48,0,1,1-53,0h0V796.67A26.49,26.49,0,0,1,425.73,770.18ZM293.91,704.76a26.49,26.49,0,0,1,26.48,26.48h0V774a26.49,26.49,0,1,1-53,0h0V731.24A26.49,26.49,0,0,1,293.91,704.76Zm263.65,0A26.49,26.49,0,0,1,584,731.24h0V774a26.49,26.49,0,1,1-53,0h0V731.24A26.49,26.49,0,0,1,557.56,704.76ZM425.73,611.84a26.48,26.48,0,0,1,26.48,26.49h0v66.29a26.48,26.48,0,1,1-53,0h0V638.33A26.49,26.49,0,0,1,425.73,611.84ZM649,.47A26.48,26.48,0,0,1,675.49,27h0v88.68a191.17,191.17,0,0,1,75.75,27.63h0l57-68a26.49,26.49,0,0,1,40.58,34.05h0l-57.05,68a192.6,192.6,0,0,1,40.38,69.8h0l87.33-15.39a26.48,26.48,0,0,1,9.2,52.16h0l-87.36,15.4c.09,2.34.18,4.67.18,7a192.23,192.23,0,0,1-14.07,72.45h0l76.71,44.29a26.48,26.48,0,1,1-26.49,45.87h0l-76.8-44.34c-.47.61-.94,1.24-1.43,1.85a177.39,177.39,0,0,1,49.81,123.33c0,98.2-79.88,178.09-178.07,178.09a26.49,26.49,0,1,1,0-53A125.26,125.26,0,0,0,796.31,549.76c0-68.71-55.71-124.63-124.32-125.07.91,9.12,1.39,18.37,1.39,27.73,0,7.75-.33,15.62-1,23.39a275,275,0,0,1-11.4,58.5,26.49,26.49,0,0,1-50.58-15.74,221.4,221.4,0,0,0,9.2-47.19c.53-6.3.8-12.68.8-19C620.42,329.75,520.62,230,398,230a222.8,222.8,0,0,0-182.19,95,201.22,201.22,0,0,1,92.12,29.69,26.49,26.49,0,0,1-27.93,45,148.34,148.34,0,0,0-78.25-22.22c-82,0-148.73,66.71-148.73,148.72S119.69,674.88,201.7,674.88a26.49,26.49,0,0,1,0,53C90.48,727.85,0,637.37,0,526.15,0,432.56,64.08,353.67,150.67,331A275.52,275.52,0,0,1,492.83,193.84a196.41,196.41,0,0,1,13.36-16.53h0l-57-68a26.49,26.49,0,0,1,40.58-34h0l57.08,68a192.83,192.83,0,0,1,75.71-27.69h0V27A26.48,26.48,0,0,1,649,.47ZM293.91,546.42a26.49,26.49,0,0,1,26.48,26.48h0v66.3a26.49,26.49,0,0,1-53,0h0V572.9A26.49,26.49,0,0,1,293.91,546.42Zm263.65,0A26.49,26.49,0,0,1,584,572.9h0v66.3a26.49,26.49,0,0,1-53,0h0V572.9A26.49,26.49,0,0,1,557.56,546.42ZM649,166.73a139.93,139.93,0,0,0-107.53,50.71A276.71,276.71,0,0,1,661.37,372c3.27-.17,6.54-.29,9.83-.29a176.9,176.9,0,0,1,86.32,22.4,137.92,137.92,0,0,0,12.23-17.72c0-.09.07-.18.13-.27a1.21,1.21,0,0,1,.14-.2,138.7,138.7,0,0,0,18.55-69.58C788.57,229.35,726,166.73,649,166.73Z" style="fill:#404040;fill-rule:evenodd"/></g></g></g></g></svg>