<svg xmlns="http://www.w3.org/2000/svg" viewBox="0 0 948.29 943.96"><g id="Layer_2" data-name="Layer 2"><g id="Layer_3" data-name="Layer 3"><g id="rain_heavy"><circle cx="650.72" cy="297.57" r="297.57" style="fill:#3282b8"/><g id="Page-1"><path id="Rain_Heavy-2" data-name="Rain Heavy" d="M421.54,609.33a26.23,26.23,0,0,1,26.23,26.22h0V917.73a26.23,26.23,0,1,1-52.45,0h0V635.55A26.22,26.22,0,0,1,421.54,609.33ZM291,544.55a26.22,26.22,0,0,1,26.22,26.22h0V853a26.23,26.23,0,0,1-52.45,0h0V570.77A26.23,26.23,0,0,1,291,544.55Zm261.05,0a26.22,26.22,0,0,1,26.22,26.22h0V853a26.22,26.22,0,1,1-52.44,0h0V570.77A26.22,26.22,0,0,1,552.07,544.55ZM394,178.75c122.67,0,226.66,81.43,260.82,193.07,3.24-.18,6.48-.29,9.73-.29,97.23,0,176.33,79.1,176.33,176.33s-79.1,176.33-176.33,176.33a26.22,26.22,0,1,1,0-52.44A124,124,0,0,0,788.47,547.86c0-68-55.15-123.41-123.09-123.84.9,9,1.38,18.18,1.38,27.45,0,7.67-.33,15.47-1,23.16a272.18,272.18,0,0,1-11.3,57.93A26.23,26.23,0,1,1,604.41,517a218.83,218.83,0,0,0,9.11-46.73c.53-6.24.79-12.55.79-18.77C614.31,330,515.5,231.19,394,231.19a220.6,220.6,0,0,0-180.4,94.07,199,199,0,0,1,91.21,29.4,26.22,26.22,0,1,1-27.65,44.56,147,147,0,0,0-77.49-22c-81.2,0-147.26,66.06-147.26,147.26s66.06,147.27,147.26,147.27a26.22,26.22,0,0,1,0,52.44C89.59,724.19,0,634.6,0,524.48c0-92.67,63.45-170.79,149.18-193.22A273.2,273.2,0,0,1,394,178.75Z" style="fill:#404040;fill-rule:evenodd"/></g></g></g></g></svg>