<svg xmlns="http://www.w3.org/2000/svg" viewBox="0 0 950.61 948.95"><g id="Layer_2" data-name="Layer 2"><g id="Layer_3" data-name="Layer 3"><g id="rain_light"><circle cx="653.03" cy="297.57" r="297.57" style="fill:#3282b8"/><g id="Page-1"><path id="Rain_Light-2" data-name="Rain Light" d="M422.66,894.81a26.31,26.31,0,0,1,26.3,26.3h0v1.55a26.3,26.3,0,0,1-52.59,0h0v-1.55A26.3,26.3,0,0,1,422.66,894.81ZM291.79,829.86a26.3,26.3,0,0,1,26.29,26.29h0v1.56a26.29,26.29,0,1,1-52.58,0h0v-1.56A26.3,26.3,0,0,1,291.79,829.86Zm261.75,0a26.3,26.3,0,0,1,26.29,26.29h0v1.56a26.29,26.29,0,0,1-52.58,0h0v-1.56A26.3,26.3,0,0,1,553.54,829.86ZM422.66,769.33A26.3,26.3,0,0,1,449,795.62h0v42.45a26.3,26.3,0,0,1-52.59,0h0V795.62A26.3,26.3,0,0,1,422.66,769.33Zm-130.87-65a26.29,26.29,0,0,1,26.29,26.29h0v42.46a26.29,26.29,0,1,1-52.58,0h0V730.66A26.29,26.29,0,0,1,291.79,704.37Zm261.75,0a26.29,26.29,0,0,1,26.29,26.29h0v42.46a26.29,26.29,0,0,1-52.58,0h0V730.66A26.29,26.29,0,0,1,553.54,704.37ZM422.66,612.13A26.3,26.3,0,0,1,449,638.42h0v65.82a26.3,26.3,0,0,1-52.59,0h0V638.42A26.3,26.3,0,0,1,422.66,612.13ZM395.09,180.4c123,0,227.26,81.65,261.51,193.58,3.25-.17,6.5-.28,9.76-.28,97.49,0,176.8,79.31,176.8,176.79s-79.31,176.8-176.8,176.8a26.29,26.29,0,0,1,0-52.58A124.36,124.36,0,0,0,790.57,550.49c0-68.22-55.3-123.74-123.42-124.17.9,9.06,1.38,18.24,1.38,27.53,0,7.69-.33,15.5-1,23.22a272.56,272.56,0,0,1-11.33,58.09A26.29,26.29,0,0,1,606,519.53a219.66,219.66,0,0,0,9.13-46.86c.53-6.25.8-12.59.8-18.82C616,332.07,516.87,233,395.09,233A221.17,221.17,0,0,0,214.21,327.3a199.67,199.67,0,0,1,91.45,29.48,26.29,26.29,0,0,1-27.72,44.68,147.31,147.31,0,0,0-77.7-22.06c-81.42,0-147.66,66.24-147.66,147.65s66.24,147.66,147.66,147.66a26.29,26.29,0,1,1,0,52.58C89.83,727.29,0,637.47,0,527.05c0-92.92,63.62-171.24,149.58-193.73A273.93,273.93,0,0,1,395.09,180.4ZM291.79,547.17a26.3,26.3,0,0,1,26.29,26.3h0v65.81a26.29,26.29,0,1,1-52.58,0h0V573.47A26.3,26.3,0,0,1,291.79,547.17Zm261.75,0a26.3,26.3,0,0,1,26.29,26.3h0v65.81a26.29,26.29,0,1,1-52.58,0h0V573.47A26.3,26.3,0,0,1,553.54,547.17Z" style="fill:#404040;fill-rule:evenodd"/></g></g></g></g></svg>