<svg xmlns="http://www.w3.org/2000/svg" viewBox="0 0 949.64 923.71"><g id="Layer_2" data-name="Layer 2"><g id="Layer_3" data-name="Layer 3"><g id="snow_2"><circle cx="652.07" cy="297.57" r="297.57" style="fill:#3282b8"/><g id="Page-1"><path id="Snow_2-2" data-name="Snow 2" d="M422.63,745.07a26.26,26.26,0,0,1,26.26,26.26h0V791l17.41-9.13a26.26,26.26,0,1,1,24.37,46.53h0l-13.35,7,13.09,7.48a26.26,26.26,0,1,1-26.05,45.61h0l-15.47-8.84v17.82a26.27,26.27,0,0,1-52.53,0h0V877.8L379,886.91a26.26,26.26,0,0,1-24.37-46.53h0l13.34-7-13.08-7.47a26.26,26.26,0,1,1,26-45.61h0l15.46,8.83V771.33A26.27,26.27,0,0,1,422.63,745.07ZM529.79,554.56a26.26,26.26,0,0,1,26.26,26.26h0v19.65l17.41-9.12a26.26,26.26,0,1,1,24.37,46.53h0l-13.35,7,13.09,7.47A26.26,26.26,0,1,1,571.51,698h0l-15.46-8.83v17.81a26.27,26.27,0,0,1-52.53,0h0V687.28l-17.4,9.12a26.26,26.26,0,0,1-24.37-46.53h0l13.34-7L462,635.4a26.26,26.26,0,0,1,26.06-45.61h0l15.45,8.83v-17.8A26.27,26.27,0,0,1,529.79,554.56ZM394.63,180.07c122.85,0,227,81.56,261.21,193.35,3.24-.17,6.49-.28,9.74-.28,97.37,0,176.59,79.22,176.59,176.59S763,726.32,665.58,726.32a26.26,26.26,0,1,1,0-52.52A124.21,124.21,0,0,0,789.65,549.73c0-68.14-55.24-123.6-123.28-124,.9,9.05,1.38,18.22,1.38,27.5,0,7.68-.33,15.49-1,23.19a272.39,272.39,0,0,1-11.31,58,26.27,26.27,0,0,1-50.16-15.61A219.09,219.09,0,0,0,614.44,472c.52-6.24.79-12.57.79-18.79,0-121.64-99-220.61-220.6-220.61A220.9,220.9,0,0,0,214,326.8a199.31,199.31,0,0,1,91.34,29.44,26.26,26.26,0,0,1-27.68,44.63,147.22,147.22,0,0,0-77.61-22c-81.32,0-147.49,66.17-147.49,147.48S118.69,673.8,200,673.8a26.26,26.26,0,0,1,0,52.52c-110.29,0-200-89.72-200-200,0-92.8,63.54-171,149.41-193.5A273.58,273.58,0,0,1,394.63,180.07ZM291.45,497.33a26.27,26.27,0,0,1,26.26,26.27h0v19.65l17.4-9.12a26.27,26.27,0,1,1,24.38,46.53h0l-13.35,7,13.08,7.47a26.26,26.26,0,1,1-26,45.62h0l-15.47-8.84v17.81a26.26,26.26,0,0,1-52.52,0h0V630.06l-17.41,9.12a26.26,26.26,0,0,1-24.37-46.53h0l13.34-7-13.08-7.47a26.26,26.26,0,1,1,26.05-45.61h0l15.47,8.83V523.6A26.27,26.27,0,0,1,291.45,497.33Z" style="fill:#404040;fill-rule:evenodd"/></g></g></g></g></svg>