<svg xmlns="http://www.w3.org/2000/svg" viewBox="0 0 950.61 949.3"><g id="Layer_2" data-name="Layer 2"><g id="Layer_3" data-name="Layer 3"><g id="snow_1_moon"><circle cx="653.03" cy="297.57" r="297.57" style="fill:#9332d8"/><g id="Page-1"><path id="Snow_1_Moon-2" data-name="Snow 1 Moon" d="M294.28,771a26.21,26.21,0,0,1,26.21,26.22h0L319,807a7.15,7.15,0,0,0,11.57,6.62h0l6.57-5.32a7.73,7.73,0,0,1,1.55-1,26.21,26.21,0,0,1,24.38,46.37,7.55,7.55,0,0,1-1.86.75h0l-.29.08a7.15,7.15,0,0,0-.07,13.8,7.71,7.71,0,0,1,2,.87,26.21,26.21,0,0,1-26.07,45.44,8,8,0,0,1-1.61-1.16h0l-4-3.66a7.15,7.15,0,0,0-11.89,6.47h0l1,6a7.33,7.33,0,0,1,.13,1.62,26.21,26.21,0,0,1-52.4,0,7.46,7.46,0,0,1,.14-1.7h0l1.57-8.67a7.15,7.15,0,0,0-11.41-6.94h0l-7.69,5.94a26.21,26.21,0,0,1-25.22-46,7.32,7.32,0,0,1,1.88-.75h0l.25-.07a7.15,7.15,0,0,0,.13-13.79h0l-.06,0a7.92,7.92,0,0,1-2-.86,26.21,26.21,0,0,1,26.05-45.45,7.72,7.72,0,0,1,1.62,1.16h0l4,3.64a7.15,7.15,0,0,0,11.86-6.5h0l-1-6a7.56,7.56,0,0,1-.13-1.64A26.21,26.21,0,0,1,294.28,771Zm258.09,0a26.21,26.21,0,0,1,26.21,26.22h0L577.1,807a7.15,7.15,0,0,0,11.57,6.62h0l6.58-5.32a7.39,7.39,0,0,1,1.54-1,26.21,26.21,0,0,1,24.38,46.37,7.64,7.64,0,0,1-1.85.75h0l-.3.08a7.15,7.15,0,0,0-.07,13.8,7.57,7.57,0,0,1,2,.87,26.21,26.21,0,0,1-26.07,45.44,8.33,8.33,0,0,1-1.61-1.16h0l-4-3.66a7.15,7.15,0,0,0-11.89,6.47h0l1,6a7.33,7.33,0,0,1,.13,1.62,26.21,26.21,0,0,1-52.4,0,7.46,7.46,0,0,1,.14-1.7h0l1.57-8.67a7.15,7.15,0,0,0-11.41-6.94h0l-7.69,5.94a26.22,26.22,0,0,1-25.23-46,7.68,7.68,0,0,1,1.89-.75h0l.25-.07a7.15,7.15,0,0,0,.13-13.79h0l-.06,0a7.92,7.92,0,0,1-2-.86,26.21,26.21,0,0,1,26.05-45.45,7.72,7.72,0,0,1,1.62,1.16h0l4,3.64a7.15,7.15,0,0,0,11.86-6.5h0l-1-6a8.25,8.25,0,0,1-.13-1.64A26.22,26.22,0,0,1,552.37,771Zm-131-164.68a26.21,26.21,0,0,1,26.21,26.22h0l-1.48,9.79A7.15,7.15,0,0,0,457.7,649h0l6.57-5.33a8.38,8.38,0,0,1,1.55-1A26.22,26.22,0,0,1,490.2,689a7.53,7.53,0,0,1-1.86.74h0l-.29.08a7.16,7.16,0,0,0-.06,13.81,7.44,7.44,0,0,1,2,.86,26.21,26.21,0,0,1-26.06,45.44,7.54,7.54,0,0,1-1.63-1.16h0l-4-3.66a7.15,7.15,0,0,0-11.89,6.47h0l1,6a8.85,8.85,0,0,1,.13,1.62,26.21,26.21,0,0,1-52.4,0,8.69,8.69,0,0,1,.13-1.69h0l1.59-8.67A7.16,7.16,0,0,0,385.5,742h0l-7.69,5.94A26.22,26.22,0,0,1,352.58,702a7.53,7.53,0,0,1,1.89-.75h0l.25-.06a7.15,7.15,0,0,0,.13-13.8h0l-.07,0a7.19,7.19,0,0,1-2-.86A26.21,26.21,0,0,1,378.86,641a7.33,7.33,0,0,1,1.62,1.15h0l4,3.64a7.15,7.15,0,0,0,11.86-6.5h0l-1-6a8.14,8.14,0,0,1-.12-1.63A26.21,26.21,0,0,1,421.4,606.32ZM638.25,65.52c7.64,0,15.53.37,23.44,1.1a26.2,26.2,0,0,1,21.74,36.27,119,119,0,0,0,109.6,165,117.11,117.11,0,0,0,48.85-10.52,26.22,26.22,0,0,1,36.86,20.56,242.43,242.43,0,0,1-58.13,189.44,175.11,175.11,0,0,1,20,81.46c0,97.2-79.07,176.28-176.27,176.28a26.22,26.22,0,1,1,0-52.43A124,124,0,0,0,788.22,548.83c0-68-55.14-123.37-123.06-123.8.9,9,1.38,18.18,1.38,27.45,0,7.67-.33,15.46-1,23.15a272,272,0,0,1-11.29,57.91A26.21,26.21,0,1,1,604.22,518a219.69,219.69,0,0,0,9.1-46.73c.53-6.22.79-12.54.79-18.75,0-121.42-98.78-220.21-220.2-220.21a220.54,220.54,0,0,0-180.34,94,199,199,0,0,1,91.17,29.38,26.22,26.22,0,0,1-27.64,44.56,146.81,146.81,0,0,0-77.45-22c-81.18,0-147.22,66-147.22,147.21s66,147.22,147.22,147.22a26.22,26.22,0,0,1,0,52.43C89.56,725.11,0,635.55,0,525.46c0-92.63,63.43-170.72,149.13-193.15A272,272,0,0,1,430.91,182.43,241,241,0,0,1,638.25,65.52Zm-13.78,52.91a188.54,188.54,0,0,0-139.36,77.16A273.85,273.85,0,0,1,654.65,372.85c3.23-.17,6.47-.29,9.72-.29A175.7,175.7,0,0,1,788.6,423.92,187.77,187.77,0,0,0,828,316.76,171.11,171.11,0,0,1,793,320.32c-94.44,0-171.26-76.83-171.26-171.27A173.2,173.2,0,0,1,624.47,118.43Z" style="fill:#404040;fill-rule:evenodd"/></g></g></g></g></svg>