<svg xmlns="http://www.w3.org/2000/svg" viewBox="0 0 950.51 926.33"><g id="Layer_2" data-name="Layer 2"><g id="Layer_3" data-name="Layer 3"><g id="snow_2_moon"><circle cx="652.93" cy="297.57" r="297.57" style="fill:#9332d8"/><g id="Page-1"><path id="Snow_2_Moon-2" data-name="Snow 2 Moon" d="M424.89,746.73a26.39,26.39,0,0,1,26.4,26.4h0V792.9l17.51-9.17a26.4,26.4,0,1,1,24.5,46.77h0l-13.42,7L493,845a26.41,26.41,0,1,1-26.2,45.86h0L451.29,882v17.91a26.4,26.4,0,0,1-52.8,0h0V880.17L381,889.34a26.4,26.4,0,0,1-24.5-46.78h0l13.41-7L356.75,828A26.41,26.41,0,0,1,383,782.16h0L398.49,791V773.13A26.4,26.4,0,0,1,424.89,746.73ZM532.63,555.2A26.4,26.4,0,0,1,559,581.6h0v19.76l17.5-9.17A26.4,26.4,0,1,1,601,639h0l-13.42,7,13.16,7.52a26.41,26.41,0,0,1-26.19,45.86h0L559,690.48v17.91a26.41,26.41,0,0,1-52.81,0h0V688.63l-17.5,9.17A26.4,26.4,0,0,1,464.22,651h0l13.41-7-13.14-7.51a26.4,26.4,0,1,1,26.18-45.86h0l15.55,8.89V581.6A26.41,26.41,0,0,1,532.63,555.2ZM642.84,63.56c7.69,0,15.64.37,23.61,1.1a26.41,26.41,0,0,1,21.9,36.54A119.86,119.86,0,0,0,798.73,267.38a118,118,0,0,0,49.2-10.59,26.41,26.41,0,0,1,37.13,20.7A244.26,244.26,0,0,1,826.51,468.3a176.36,176.36,0,0,1,20.18,82c0,97.9-79.64,177.55-177.54,177.55a26.41,26.41,0,1,1,0-52.81A124.88,124.88,0,0,0,793.88,550.34c0-68.5-55.53-124.25-123.94-124.69.91,9.1,1.39,18.32,1.39,27.64,0,7.73-.33,15.58-1,23.33A273.48,273.48,0,0,1,659,534.94a26.4,26.4,0,1,1-50.42-15.69,220.93,220.93,0,0,0,9.17-47.06c.53-6.28.8-12.64.8-18.9C618.53,331,519,231.51,396.74,231.51A222.12,222.12,0,0,0,215.1,326.22a200.21,200.21,0,0,1,91.83,29.6,26.4,26.4,0,1,1-27.84,44.87,147.88,147.88,0,0,0-78-22.16c-81.76,0-148.27,66.52-148.27,148.27s66.51,148.28,148.27,148.28a26.41,26.41,0,0,1,0,52.81C90.2,727.89,0,637.68,0,526.8c0-93.3,63.88-171.95,150.2-194.54A274.06,274.06,0,0,1,434,181.3,242.66,242.66,0,0,1,642.84,63.56ZM293,497.67a26.4,26.4,0,0,1,26.4,26.4h0v19.76l17.5-9.17a26.4,26.4,0,1,1,24.5,46.78h0l-13.42,7L361.15,596A26.41,26.41,0,1,1,335,641.84h0L319.41,633v17.9a26.4,26.4,0,1,1-52.8,0h0V631.1l-17.5,9.17a26.4,26.4,0,1,1-24.5-46.78h0l13.41-7L224.87,579a26.4,26.4,0,0,1,26.19-45.85h0L266.61,542V524.07A26.4,26.4,0,0,1,293,497.67ZM629,116.85a189.93,189.93,0,0,0-140.37,77.71A275.78,275.78,0,0,1,659.35,373.09c3.27-.17,6.53-.28,9.8-.28a177,177,0,0,1,125.12,51.72A189.11,189.11,0,0,0,833.9,316.6a172,172,0,0,1-35.17,3.58c-95.11,0-172.49-77.38-172.49-172.49A174.66,174.66,0,0,1,629,116.85Z" style="fill:#404040;fill-rule:evenodd"/></g></g></g></g></svg>