<svg xmlns="http://www.w3.org/2000/svg" viewBox="0 0 950.61 948.64"><g id="Layer_2" data-name="Layer 2"><g id="Layer_3" data-name="Layer 3"><g id="snow_1"><circle cx="653.03" cy="297.57" r="297.57" style="fill:#3282b8"/><g id="Page-1"><path id="Snow_1-2" data-name="Snow 1" d="M293.29,768.87a26.43,26.43,0,0,1,26.43,26.43h0v19.78l17.52-9.18a26.43,26.43,0,1,1,24.52,46.82h0l-13.44,7,13.18,7.52a26.43,26.43,0,1,1-26.21,45.91h0l-15.57-8.9v17.93a26.43,26.43,0,0,1-52.86,0h0V902.43l-17.52,9.18a26.43,26.43,0,0,1-24.52-46.83h0l13.42-7-13.16-7.52a26.43,26.43,0,0,1,26.21-45.9h0l15.57,8.9V795.3A26.43,26.43,0,0,1,293.29,768.87Zm263.55,0a26.43,26.43,0,0,1,26.43,26.43h0v19.78l17.53-9.18a26.43,26.43,0,1,1,24.52,46.82h0l-13.44,7,13.18,7.53a26.43,26.43,0,1,1-26.22,45.89h0l-15.57-8.88v17.92a26.43,26.43,0,0,1-52.85,0h0V902.43l-17.52,9.18a26.43,26.43,0,0,1-24.53-46.82h0l13.43-7-13.16-7.52a26.43,26.43,0,0,1,26.22-45.9h0l15.56,8.89V795.3A26.43,26.43,0,0,1,556.84,768.87Zm-132-162.11a26.43,26.43,0,0,1,26.43,26.43h0V653l17.52-9.18a26.43,26.43,0,1,1,24.53,46.82h0l-13.44,7L493,705.16a26.43,26.43,0,1,1-26.21,45.9h0l-15.57-8.89v17.92a26.43,26.43,0,1,1-52.85,0h0V740.32l-17.52,9.17a26.43,26.43,0,1,1-24.52-46.82h0l13.42-7-13.16-7.52a26.43,26.43,0,0,1,26.21-45.9h0l15.57,8.89V633.19A26.42,26.42,0,0,1,424.83,606.76ZM397.12,176.81c123.63,0,228.44,82.07,262.86,194.57,3.27-.17,6.53-.28,9.81-.28,98,0,177.71,79.71,177.71,177.7S767.78,726.51,669.79,726.51a26.43,26.43,0,1,1,0-52.85A125,125,0,0,0,794.64,548.8c0-68.57-55.59-124.37-124.06-124.81.91,9.11,1.39,18.33,1.39,27.67,0,7.73-.33,15.59-1,23.34a273.38,273.38,0,0,1-11.38,58.39,26.43,26.43,0,1,1-50.47-15.71,220.67,220.67,0,0,0,9.18-47.1c.53-6.29.8-12.65.8-18.92,0-122.41-99.59-222-222-222a222.32,222.32,0,0,0-181.81,94.8,200.64,200.64,0,0,1,91.92,29.63A26.42,26.42,0,1,1,279.37,399a148.11,148.11,0,0,0-78.1-22.17c-81.83,0-148.41,66.58-148.41,148.41s66.58,148.42,148.41,148.42a26.43,26.43,0,1,1,0,52.85C90.29,726.51,0,636.22,0,525.24c0-93.4,63.94-172.12,150.35-194.73A275.32,275.32,0,0,1,397.12,176.81Z" style="fill:#404040;fill-rule:evenodd"/></g></g></g></g></svg>