<svg xmlns="http://www.w3.org/2000/svg" viewBox="0 0 952.09 927.67"><g id="Layer_2" data-name="Layer 2"><g id="Layer_3" data-name="Layer 3"><g id="snow_2_sun"><circle cx="654.52" cy="302.61" r="297.57" style="fill:#ffd45a"/><g id="Page-1"><path id="Snow_2_Sun-2" data-name="Snow 2 Sun" d="M426.76,747.29a26.52,26.52,0,0,1,26.52,26.52h0v19.84l17.59-9.21a26.52,26.52,0,0,1,24.6,47h0L482,838.48,495.21,846a26.52,26.52,0,1,1-26.3,46.06h0l-15.63-8.93v18a26.52,26.52,0,0,1-53,0h0V881.31l-17.57,9.21a26.52,26.52,0,0,1-24.61-47h0l13.47-7.06-13.2-7.54a26.52,26.52,0,1,1,26.3-46.06h0l15.61,8.92v-18A26.52,26.52,0,0,1,426.76,747.29ZM535,554.91a26.52,26.52,0,0,1,26.52,26.52h0v19.84l17.58-9.21a26.52,26.52,0,0,1,24.61,47h0L590.2,646.1l13.22,7.55a26.52,26.52,0,1,1-26.31,46.06h0l-15.62-8.92v18a26.52,26.52,0,0,1-53,0h0V688.93l-17.58,9.21a26.52,26.52,0,0,1-24.61-47h0l13.48-7-13.21-7.55a26.52,26.52,0,0,1,26.31-46.06h0l15.61,8.92v-18A26.52,26.52,0,0,1,535,554.91ZM649.87,0a26.52,26.52,0,0,1,26.52,26.52h0v88.8A191.51,191.51,0,0,1,752.25,143h0l57.12-68.07A26.52,26.52,0,1,1,850,109h0l-57.13,68.08A192.66,192.66,0,0,1,833.31,247h0l87.44-15.42A26.52,26.52,0,0,1,930,283.79h0l-87.48,15.42c.09,2.34.18,4.68.18,7a192.62,192.62,0,0,1-14.09,72.56h0l76.81,44.34a26.52,26.52,0,1,1-26.52,45.93h0L802,424.68c-.48.62-.94,1.24-1.43,1.85A177.68,177.68,0,0,1,850.41,550c0,98.33-80,178.33-178.31,178.33a26.52,26.52,0,0,1,0-53A125.43,125.43,0,0,0,797.38,550c0-68.8-55.78-124.8-124.49-125.24a277.15,277.15,0,0,1,1.4,27.77c0,7.76-.34,15.64-1,23.42a274.42,274.42,0,0,1-11.42,58.58,26.52,26.52,0,1,1-50.64-15.76,221.31,221.31,0,0,0,9.21-47.26c.53-6.31.8-12.7.8-19,0-122.84-99.93-222.77-222.76-222.77a223.11,223.11,0,0,0-182.44,95.13,201.34,201.34,0,0,1,92.24,29.73,26.52,26.52,0,1,1-28,45.07A148.54,148.54,0,0,0,202,377.47C119.85,377.47,53,444.27,53,526.39S119.85,675.32,202,675.32a26.52,26.52,0,1,1,0,53c-111.37,0-202-90.6-202-202C0,432.67,64.16,353.68,150.87,331A275.91,275.91,0,0,1,493.5,193.63a191.24,191.24,0,0,1,13.37-16.54h0L449.75,109a26.52,26.52,0,1,1,40.63-34.09h0L547.55,143a193.11,193.11,0,0,1,75.81-27.72h0V26.52A26.51,26.51,0,0,1,649.87,0ZM294.3,497.13a26.52,26.52,0,0,1,26.52,26.52h0v19.84l17.57-9.21a26.52,26.52,0,0,1,24.61,47h0l-13.47,7.06,13.21,7.54a26.52,26.52,0,1,1-26.3,46.06h0L320.82,633v18a26.52,26.52,0,0,1-53,0h0V631.15l-17.58,9.21a26.52,26.52,0,1,1-24.6-47h0l13.47-7.06-13.21-7.54a26.52,26.52,0,1,1,26.3-46h0l15.62,8.92v-18A26.52,26.52,0,0,1,294.3,497.13ZM649.87,166.49A140.1,140.1,0,0,0,542.2,217.27,277.06,277.06,0,0,1,662.26,372c3.27-.17,6.55-.28,9.84-.28a177.17,177.17,0,0,1,86.44,22.43,139.71,139.71,0,0,0,12.24-17.75h0l.13-.27c0-.08.1-.13.14-.2a138.86,138.86,0,0,0,18.58-69.68C789.63,229.18,726.94,166.49,649.87,166.49Z" style="fill:#404040;fill-rule:evenodd"/></g></g></g></g></svg>