<svg xmlns="http://www.w3.org/2000/svg" viewBox="0 0 954.09 953.25"><g id="Layer_2" data-name="Layer 2"><g id="Layer_3" data-name="Layer 3"><g id="thunder"><circle cx="656.52" cy="297.57" r="297.57" style="fill:#3282b8"/><g id="Page-1"><path id="Thunder-2" data-name="Thunder" d="M375.88,531.23l156.36,0a26.64,26.64,0,0,1,23.85,38.51h0L523,636.38l53.49-4a26.65,26.65,0,0,1,23.36,42.49h0L400.62,942.51a26.65,26.65,0,0,1-47.75-19.72h0l23-159.23-79.52,1.77a26.65,26.65,0,0,1-25-37.44h0l80.14-180.82a26.66,26.66,0,0,1,24.36-15.84h0Zm17.33,53.3-56.1,126.58,69-1.54h.59A26.65,26.65,0,0,1,433.09,740h0l-12.46,86.36L522.22,689.89l-42,3.13a26.65,26.65,0,0,1-25.84-38.44h0l34.81-70Zm7.22-410.22c124.66,0,230.33,82.76,265.05,196.2,3.29-.18,6.58-.29,9.89-.29,98.8,0,179.18,80.38,179.18,179.18S774.17,728.6,675.37,728.6a26.65,26.65,0,0,1,0-53.3A126,126,0,0,0,801.26,549.4c0-69.14-56-125.41-125.09-125.84.91,9.17,1.4,18.48,1.4,27.89,0,7.8-.34,15.72-1,23.54a276,276,0,0,1-11.48,58.87A26.65,26.65,0,1,1,614.21,518a222.35,222.35,0,0,0,9.26-47.49c.53-6.34.8-12.76.8-19.08,0-123.42-100.41-223.84-223.84-223.84A224.17,224.17,0,0,0,217.1,323.19a202.35,202.35,0,0,1,92.69,29.88,26.65,26.65,0,0,1-28.09,45.29A149.28,149.28,0,0,0,203,376C120.43,376,53.3,443.13,53.3,525.65S120.43,675.3,203,675.3a26.65,26.65,0,0,1,0,53.3C91,728.6,0,637.55,0,525.65c0-94.18,64.48-173.56,151.6-196.36A277.63,277.63,0,0,1,400.43,174.31Z" style="fill:#404040;fill-rule:evenodd"/></g></g></g></g></svg>