<svg xmlns="http://www.w3.org/2000/svg" viewBox="0 0 949.12 948.68"><g id="Layer_2" data-name="Layer 2"><g id="Layer_3" data-name="Layer 3"><g id="wind_mix_sun"><circle cx="651.54" cy="297.57" r="297.57" style="fill:#ffd45a"/><g id="Page-1"><path id="WinteryMix_Sun" data-name="WinteryMix Sun" d="M420.94,894.8A26.18,26.18,0,0,1,447.12,921h0v1.54a26.18,26.18,0,0,1-52.35,0h0V921A26.17,26.17,0,0,1,420.94,894.8Zm130.5-127.71a26.17,26.17,0,0,1,26.17,26.17h0v19.59L595,803.76a26.17,26.17,0,0,1,24.28,46.36h0l-13.3,7,13,7.45A26.17,26.17,0,1,1,593,910h0l-15.41-8.8v17.74a26.17,26.17,0,1,1-52.34,0h0V899.35l-17.35,9.09a26.17,26.17,0,1,1-24.29-46.37h0l13.3-7-13-7.45a26.18,26.18,0,1,1,26-45.46h0l15.41,8.8V793.26A26.17,26.17,0,0,1,551.44,767.09ZM290.45,825a26.17,26.17,0,0,1,26.17,26.17h0v1.54a26.18,26.18,0,0,1-52.35,0h0v-1.54A26.18,26.18,0,0,1,290.45,825ZM420.71,610.1a26.17,26.17,0,0,1,26.17,26.17h0v19.59l17.35-9.09a26.17,26.17,0,1,1,24.29,46.37h0l-13.3,7,13,7.45a26.17,26.17,0,1,1-26,45.45h0l-15.42-8.81V762a26.17,26.17,0,0,1-52.34,0h0V742.37l-17.34,9.08a26.17,26.17,0,1,1-24.29-46.36h0l13.3-7-13-7.44a26.17,26.17,0,1,1,26-45.45h0l15.41,8.8V636.27A26.17,26.17,0,0,1,420.71,610.1ZM290.45,685.43a26.17,26.17,0,0,1,26.17,26.17h0v1.54a26.18,26.18,0,0,1-52.35,0h0V711.6A26.18,26.18,0,0,1,290.45,685.43ZM551,672a26.17,26.17,0,0,1,26.17,26.17h0v1.55a26.17,26.17,0,0,1-52.34,0h0v-1.55A26.17,26.17,0,0,1,551,672ZM641.36,6.33A26.16,26.16,0,0,1,667.53,32.5h0v87.64a189,189,0,0,1,74.86,27.3h0l56.37-67.17a26.17,26.17,0,1,1,40.1,33.64h0l-56.38,67.18a190.29,190.29,0,0,1,39.91,69h0l86.3-15.21a26.17,26.17,0,1,1,9.09,51.54h0l-86.33,15.22c.08,2.31.18,4.62.18,6.95a190.06,190.06,0,0,1-13.91,71.6h0l75.81,43.76a26.17,26.17,0,1,1-26.18,45.33h0l-75.89-43.81c-.47.6-.93,1.22-1.42,1.82a175.35,175.35,0,0,1,49.23,121.89c0,97-78.94,176-176,176a26.17,26.17,0,0,1,0-52.34A123.79,123.79,0,0,0,786.93,549.16c0-67.91-55-123.17-122.86-123.6a272.6,272.6,0,0,1,1.38,27.4c0,7.66-.33,15.43-1,23.11a271.26,271.26,0,0,1-11.27,57.82,26.17,26.17,0,0,1-50-15.56,218.72,218.72,0,0,0,9.09-46.64c.52-6.22.79-12.53.79-18.73,0-121.22-98.62-219.85-219.84-219.85a220.17,220.17,0,0,0-180,93.88,198.72,198.72,0,0,1,91,29.34,26.17,26.17,0,1,1-27.6,44.48,146.65,146.65,0,0,0-77.33-22c-81,0-147,65.93-147,147s65.94,147,147,147a26.17,26.17,0,0,1,0,52.34C89.41,725.14,0,635.73,0,525.82,0,433.33,63.32,355.37,148.89,333A272.26,272.26,0,0,1,487,197.43a189.93,189.93,0,0,1,13.2-16.34h0l-56.37-67.18A26.17,26.17,0,1,1,484,80.27h0l56.41,67.23a190.49,190.49,0,0,1,74.82-27.36h0V32.5A26.17,26.17,0,0,1,641.36,6.33ZM290.45,545.85A26.17,26.17,0,0,1,316.62,572h0v1.54a26.18,26.18,0,0,1-52.35,0h0V572A26.18,26.18,0,0,1,290.45,545.85ZM641.36,170.64A138.24,138.24,0,0,0,535.1,220.75,273.45,273.45,0,0,1,653.58,373.46c3.23-.18,6.46-.29,9.71-.29a174.88,174.88,0,0,1,85.31,22.14,138,138,0,0,0,12.08-17.51c.05-.09.08-.18.13-.27a.9.9,0,0,1,.14-.2,137.16,137.16,0,0,0,18.34-68.76C779.29,232.51,717.42,170.64,641.36,170.64Z" style="fill:#404040;fill-rule:evenodd"/></g></g></g></g></svg>